<svg id="svg" version="1.1" xmlns="http://www.w3.org/2000/svg" xmlns:xlink="http://www.w3.org/1999/xlink" width="400" height="567.032967032967" viewBox="0, 0, 400,567.032967032967"><g id="svgg"><path id="path0" d="M36.073 4.600 C 35.153 5.374,34.434 5.600,32.891 5.600 C 30.888 5.600,29.657 6.321,30.189 7.182 C 30.478 7.650,30.395 7.677,28.341 7.798 C 26.267 7.919,25.600 8.258,25.600 9.187 C 25.600 9.849,25.341 10.000,24.200 10.000 C 23.430 10.000,22.800 10.174,22.800 10.387 C 22.800 10.601,22.538 10.674,22.217 10.551 C 21.832 10.403,21.549 10.663,21.386 11.314 C 21.250 11.857,20.927 12.295,20.669 12.287 C 19.161 12.244,18.800 12.454,18.800 13.373 C 18.800 14.138,18.564 14.374,17.700 14.473 C 16.772 14.580,16.612 14.773,16.677 15.712 C 16.745 16.695,16.629 16.810,15.677 16.712 C 14.776 16.618,14.580 16.773,14.478 17.654 C 14.384 18.466,14.078 18.764,13.149 18.950 C 12.195 19.141,11.993 19.348,12.182 19.944 C 12.371 20.539,12.169 20.746,11.210 20.938 C 10.362 21.108,10.000 21.412,10.000 21.957 C 10.000 23.193,9.577 23.966,9.019 23.752 C 8.457 23.536,7.860 24.649,8.222 25.236 C 8.346 25.436,8.227 25.600,7.957 25.600 C 7.687 25.600,7.579 25.713,7.717 25.850 C 7.855 25.988,7.435 26.568,6.784 27.139 C 6.006 27.822,5.600 28.559,5.600 29.289 C 5.600 29.983,5.386 30.400,5.031 30.400 C 4.281 30.400,3.527 32.764,3.457 35.337 C 3.417 36.774,3.184 37.582,2.686 38.000 C 2.242 38.374,1.824 39.580,1.577 41.200 C 0.749 46.647,1.282 528.338,2.119 530.193 C 2.666 531.408,2.922 531.650,3.192 531.213 C 3.424 530.837,3.500 531.183,3.412 532.220 C 3.207 534.627,3.893 537.710,4.800 538.464 C 5.240 538.829,5.600 539.488,5.600 539.929 C 5.600 540.369,6.130 541.175,6.778 541.720 C 7.426 542.265,7.869 542.798,7.763 542.904 C 7.397 543.269,8.523 545.185,9.236 545.411 C 9.639 545.539,10.005 546.110,10.075 546.719 C 10.172 547.557,10.443 547.828,11.278 547.924 C 12.029 548.011,12.289 548.225,12.133 548.630 C 11.840 549.393,12.702 550.400,13.649 550.400 C 14.183 550.400,14.400 550.688,14.400 551.400 C 14.400 552.200,14.600 552.400,15.400 552.400 C 16.096 552.400,16.400 552.619,16.400 553.120 C 16.400 554.006,17.149 554.800,17.985 554.800 C 18.329 554.800,18.788 555.205,19.005 555.700 C 19.222 556.195,19.798 556.657,20.285 556.726 C 20.772 556.795,21.736 557.380,22.428 558.026 C 23.119 558.672,24.103 559.200,24.615 559.200 C 25.177 559.200,25.641 559.500,25.786 559.957 C 26.042 560.762,27.107 561.186,28.900 561.195 C 29.505 561.198,30.000 561.367,30.000 561.571 C 30.000 562.541,31.365 563.121,34.280 563.389 C 36.279 563.573,37.667 563.914,38.142 564.338 C 39.288 565.361,360.712 565.361,361.858 564.338 C 362.333 563.914,363.721 563.573,365.720 563.389 C 368.635 563.121,370.000 562.541,370.000 561.571 C 370.000 561.367,370.495 561.198,371.100 561.195 C 372.893 561.186,373.958 560.762,374.214 559.957 C 374.359 559.500,374.823 559.200,375.385 559.200 C 375.897 559.200,376.881 558.672,377.572 558.026 C 378.264 557.380,379.228 556.795,379.715 556.726 C 380.202 556.657,380.778 556.195,380.995 555.700 C 381.212 555.205,381.671 554.800,382.015 554.800 C 382.851 554.800,383.600 554.006,383.600 553.120 C 383.600 552.619,383.904 552.400,384.600 552.400 C 385.400 552.400,385.600 552.200,385.600 551.400 C 385.600 550.704,385.819 550.400,386.320 550.400 C 387.232 550.400,388.000 549.644,388.000 548.748 C 388.000 548.335,388.363 548.004,388.900 547.928 C 389.540 547.837,389.836 547.488,389.925 546.719 C 389.996 546.098,390.361 545.539,390.782 545.406 C 391.184 545.278,391.746 544.594,392.030 543.887 C 392.314 543.179,392.975 542.077,393.499 541.438 C 394.157 540.637,394.432 539.831,394.387 538.838 C 394.352 538.047,394.353 537.040,394.389 536.600 L 394.456 535.800 394.800 536.600 C 394.989 537.040,395.156 537.164,395.172 536.876 C 395.187 536.588,395.370 536.458,395.578 536.587 C 395.967 536.827,396.794 534.411,396.798 533.026 C 396.799 532.601,397.205 531.431,397.700 530.426 L 398.600 528.600 398.705 286.400 C 398.809 46.059,398.777 39.555,397.481 38.062 C 397.165 37.698,396.795 36.399,396.658 35.175 C 396.337 32.290,395.665 30.400,394.961 30.400 C 394.617 30.400,394.397 29.974,394.393 29.300 C 394.389 28.663,393.979 27.814,393.418 27.282 C 392.886 26.777,392.251 25.761,392.008 25.024 C 391.759 24.270,391.223 23.595,390.783 23.480 C 390.261 23.343,390.000 22.931,390.000 22.245 C 390.000 21.487,389.743 21.151,389.023 20.970 C 388.428 20.821,387.998 20.387,387.923 19.862 C 387.838 19.263,387.472 18.962,386.724 18.876 C 385.893 18.780,385.620 18.507,385.524 17.676 C 385.428 16.839,385.206 16.620,384.526 16.691 C 383.843 16.762,383.624 16.542,383.526 15.691 C 383.427 14.837,383.161 14.573,382.300 14.473 C 381.447 14.375,381.200 14.135,381.200 13.405 C 381.200 12.687,380.919 12.402,380.018 12.204 C 379.368 12.061,378.732 11.616,378.605 11.215 C 378.357 10.435,377.277 10.014,375.500 10.005 C 374.663 10.001,374.400 9.806,374.400 9.187 C 374.400 8.256,373.699 7.901,371.746 7.842 C 370.703 7.810,370.253 7.559,369.877 6.800 C 369.453 5.947,369.063 5.782,367.220 5.677 C 365.635 5.586,364.751 5.293,363.899 4.577 L 362.739 3.600 200.000 3.600 L 37.261 3.600 36.073 4.600 M276.500 5.100 C 234.425 5.156,165.575 5.156,123.500 5.100 C 81.425 5.044,115.850 4.998,200.000 4.998 C 284.150 4.998,318.575 5.044,276.500 5.100 M32.407 11.796 C 33.041 11.404,33.193 12.308,32.579 12.818 C 31.789 13.473,31.068 12.809,31.460 11.787 C 31.632 11.340,31.811 11.234,31.908 11.523 C 31.996 11.788,32.221 11.911,32.407 11.796 M368.653 12.606 C 368.378 13.322,367.547 13.242,367.292 12.475 C 367.205 12.214,367.429 12.000,367.790 12.000 C 368.200 12.000,368.341 11.812,368.165 11.500 C 367.946 11.113,367.998 11.107,368.394 11.473 C 368.676 11.733,368.792 12.243,368.653 12.606 M19.377 20.647 C 19.878 20.839,19.918 21.017,19.557 21.452 C 19.045 22.068,17.815 21.423,18.228 20.755 C 18.489 20.333,18.546 20.328,19.377 20.647 M382.500 20.691 C 382.225 20.788,382.000 21.122,382.000 21.433 C 382.000 22.080,380.972 22.203,380.600 21.600 C 380.193 20.942,380.716 20.500,381.893 20.508 C 382.502 20.512,382.775 20.595,382.500 20.691 M17.156 22.947 C 17.501 23.363,17.465 23.614,17.005 23.996 C 16.491 24.422,16.400 24.340,16.400 23.449 C 16.400 22.255,16.517 22.177,17.156 22.947 M276.500 23.500 C 234.425 23.556,165.575 23.556,123.500 23.500 C 81.425 23.444,115.850 23.398,200.000 23.398 C 284.150 23.398,318.575 23.444,276.500 23.500 M40.300 25.476 C 39.915 25.576,39.285 25.576,38.900 25.476 C 38.515 25.375,38.830 25.293,39.600 25.293 C 40.370 25.293,40.685 25.375,40.300 25.476 M361.100 25.476 C 360.715 25.576,360.085 25.576,359.700 25.476 C 359.315 25.375,359.630 25.293,360.400 25.293 C 361.170 25.293,361.485 25.375,361.100 25.476 M359.206 30.100 C 359.223 31.503,359.964 31.856,363.124 31.968 C 363.632 31.985,363.946 32.164,363.822 32.364 C 363.392 33.061,364.092 34.000,365.043 34.000 C 365.795 34.000,366.000 34.212,366.000 34.992 C 366.000 35.708,366.269 36.052,366.965 36.227 C 367.540 36.371,368.029 36.860,368.173 37.435 C 368.348 38.131,368.692 38.400,369.408 38.400 C 370.251 38.400,370.407 38.595,370.446 39.700 C 370.529 42.030,370.589 42.195,371.500 42.595 C 372.416 42.997,373.129 45.144,372.620 45.967 C 372.072 46.854,372.849 49.150,373.740 49.277 C 374.596 49.399,374.601 49.462,374.706 61.500 L 374.812 73.600 200.000 73.600 L 25.188 73.600 25.294 61.500 L 25.400 49.400 26.300 49.272 C 26.954 49.179,27.220 48.851,27.274 48.072 C 27.314 47.482,27.387 46.640,27.434 46.200 C 27.482 45.760,27.539 44.858,27.561 44.195 C 27.588 43.351,27.870 42.871,28.500 42.595 C 29.221 42.279,29.424 41.822,29.522 40.300 C 29.632 38.589,29.740 38.400,30.614 38.400 C 31.307 38.400,31.654 38.123,31.827 37.435 C 31.971 36.860,32.460 36.371,33.035 36.227 C 33.722 36.055,34.000 35.706,34.000 35.019 C 34.000 34.263,34.239 34.026,35.100 33.927 C 35.888 33.836,36.236 33.544,36.328 32.900 C 36.453 32.019,37.094 31.793,38.924 31.983 C 39.883 32.083,40.800 31.285,40.800 30.351 C 40.800 29.618,44.527 29.600,200.000 29.600 C 327.090 29.600,359.201 29.701,359.206 30.100 M390.454 32.900 C 390.324 33.712,390.187 33.928,390.089 33.477 C 389.940 32.789,390.212 31.600,390.518 31.600 C 390.597 31.600,390.568 32.185,390.454 32.900 M137.787 39.000 C 137.684 39.330,137.516 39.870,137.413 40.200 C 137.158 41.016,134.471 40.989,133.557 40.161 C 133.168 39.809,132.659 39.640,132.425 39.784 C 131.886 40.117,131.866 41.600,132.400 41.600 C 132.620 41.600,132.800 41.870,132.800 42.200 C 132.800 42.530,132.620 42.800,132.400 42.800 C 132.180 42.800,132.000 42.530,132.000 42.200 C 132.000 41.409,131.023 41.435,130.210 42.248 C 129.625 42.833,129.622 42.961,130.181 43.579 C 131.225 44.732,131.004 47.200,129.857 47.200 C 128.040 47.200,128.082 55.670,129.900 55.928 C 130.671 56.037,130.800 56.298,130.800 57.748 C 130.800 59.551,131.329 60.400,132.453 60.400 C 132.834 60.400,133.257 60.749,133.392 61.175 C 133.867 62.672,135.554 62.795,154.200 62.696 L 172.200 62.600 172.327 61.500 C 172.433 60.579,172.644 60.400,173.627 60.400 C 174.596 60.400,174.800 60.234,174.800 59.447 C 174.800 58.377,175.849 57.999,177.959 58.309 C 178.938 58.452,179.200 58.687,179.200 59.419 C 179.200 60.134,179.452 60.376,180.300 60.473 C 181.119 60.568,181.382 60.803,181.329 61.394 C 181.205 62.775,181.510 62.787,217.912 62.782 L 253.625 62.777 253.862 61.588 C 254.046 60.671,254.317 60.400,255.050 60.400 C 255.797 60.400,256.000 60.186,256.000 59.400 C 256.000 58.688,256.217 58.400,256.751 58.400 C 258.259 58.400,258.454 57.524,258.324 51.330 L 258.200 45.400 257.100 45.273 C 256.179 45.167,256.000 44.956,256.000 43.973 C 256.000 42.988,255.839 42.800,255.000 42.800 C 254.200 42.800,254.000 42.600,254.000 41.800 C 254.000 40.956,253.813 40.800,252.800 40.800 C 251.893 40.800,251.600 40.617,251.600 40.049 C 251.600 38.380,251.846 38.391,217.156 38.498 L 183.800 38.600 183.673 39.700 C 183.553 40.750,183.447 40.800,181.373 40.800 C 179.322 40.800,179.200 40.856,179.200 41.800 C 179.200 42.542,178.988 42.800,178.379 42.800 C 177.827 42.800,177.422 43.192,177.140 44.000 C 176.519 45.780,175.186 45.096,174.585 42.689 C 174.263 41.397,173.336 40.800,171.653 40.800 C 170.759 40.800,170.382 40.571,170.173 39.900 C 170.019 39.405,169.691 38.868,169.446 38.706 C 168.477 38.068,137.990 38.351,137.787 39.000 M21.100 68.274 C 21.035 72.633,20.982 69.180,20.982 60.600 C 20.982 52.020,21.035 48.453,21.099 52.674 C 21.164 56.894,21.164 63.914,21.100 68.274 M395.182 284.600 C 395.181 436.107,395.040 523.219,394.796 523.600 C 394.551 523.983,394.412 437.711,394.412 284.600 C 394.412 130.530,394.550 45.214,394.798 45.600 C 395.045 45.984,395.183 132.126,395.182 284.600 M177.076 49.100 C 176.975 49.485,176.893 49.170,176.893 48.400 C 176.893 47.630,176.975 47.315,177.076 47.700 C 177.176 48.085,177.176 48.715,177.076 49.100 M172.800 51.286 C 172.800 52.863,172.757 52.928,172.129 52.300 C 171.576 51.748,171.540 51.451,171.920 50.615 C 172.575 49.178,172.800 49.349,172.800 51.286 M181.490 52.893 C 181.401 53.612,181.326 53.120,181.324 51.800 C 181.322 50.480,181.395 49.892,181.486 50.493 C 181.577 51.094,181.579 52.174,181.490 52.893 M287.500 93.500 C 239.375 93.556,160.625 93.556,112.500 93.500 C 64.375 93.444,103.750 93.398,200.000 93.398 C 296.250 93.398,335.625 93.444,287.500 93.500 M21.102 284.500 C 21.049 387.295,20.914 449.710,20.802 423.200 C 20.558 364.949,20.721 97.600,21.001 97.600 C 21.111 97.600,21.156 181.705,21.102 284.500 M374.800 284.500 L 374.800 469.200 200.000 469.200 L 25.200 469.200 25.200 284.500 L 25.200 99.800 200.000 99.800 L 374.800 99.800 374.800 284.500 M43.746 166.305 C 43.497 166.467,43.219 166.960,43.130 167.400 C 43.017 167.953,42.691 168.170,42.073 168.103 C 41.368 168.026,41.128 168.259,40.939 169.203 C 40.740 170.199,40.507 170.400,39.550 170.400 C 38.592 170.400,38.400 170.566,38.400 171.392 C 38.400 172.117,38.131 172.452,37.400 172.636 L 36.400 172.887 36.400 179.243 L 36.400 185.600 37.400 185.600 C 38.240 185.600,38.400 185.788,38.400 186.774 C 38.400 188.787,39.068 190.000,40.176 190.000 C 40.749 190.000,41.347 190.326,41.583 190.768 C 42.010 191.566,44.011 192.368,45.400 192.298 C 45.840 192.276,55.335 192.289,66.500 192.329 L 86.800 192.400 86.800 194.150 C 86.800 197.075,87.191 198.311,88.197 198.563 C 89.005 198.766,89.125 199.087,89.275 201.435 C 89.409 203.547,89.616 204.211,90.303 204.739 C 90.964 205.247,91.190 205.909,91.282 207.600 C 91.368 209.206,91.562 209.815,92.000 209.854 C 92.330 209.883,92.825 209.928,93.100 209.954 C 93.454 209.987,93.600 210.931,93.600 213.200 C 93.600 216.347,93.617 216.400,94.600 216.400 C 95.583 216.400,95.600 216.453,95.600 219.600 L 95.600 222.800 96.800 222.800 L 98.000 222.800 98.000 226.200 C 98.000 228.351,98.157 229.600,98.429 229.600 C 99.449 229.600,99.887 230.794,100.096 234.144 C 100.289 237.244,100.442 237.800,101.367 238.766 C 102.302 239.742,102.422 240.192,102.447 242.828 C 102.475 245.845,102.698 246.641,103.835 247.778 C 104.240 248.182,104.507 249.235,104.563 250.639 C 104.649 252.796,105.104 253.579,106.283 253.594 C 106.608 253.598,106.805 254.613,106.883 256.700 C 106.991 259.569,107.067 259.810,107.900 259.928 C 108.756 260.049,109.162 262.128,108.831 264.695 C 108.715 265.593,109.614 266.800,110.397 266.800 C 111.080 266.800,111.179 267.149,111.283 269.900 C 111.391 272.769,111.467 273.010,112.300 273.128 C 113.132 273.246,113.613 275.623,113.234 277.741 C 113.081 278.590,113.752 279.677,114.634 280.013 C 115.506 280.344,115.600 280.612,115.600 282.757 C 115.600 285.650,115.856 286.400,116.843 286.400 C 117.489 286.400,117.601 286.708,117.606 288.500 C 117.612 290.841,118.334 292.622,119.249 292.557 C 119.580 292.533,119.853 292.803,119.854 293.157 C 119.873 297.202,119.976 297.600,121.000 297.600 C 121.984 297.600,122.000 297.653,122.000 300.810 L 122.000 304.020 123.229 304.266 C 124.304 304.481,124.427 304.638,124.208 305.512 C 123.666 307.671,124.399 310.800,125.446 310.800 C 126.323 310.800,126.856 313.998,126.457 316.870 C 126.437 317.019,126.974 317.263,127.652 317.411 C 128.751 317.653,128.859 317.804,128.657 318.813 C 128.175 321.223,128.817 324.000,129.856 324.000 C 130.751 324.000,131.211 326.731,130.842 329.849 C 130.812 330.096,131.315 330.403,131.958 330.532 C 133.118 330.764,133.126 330.786,133.085 333.494 C 133.038 336.526,133.282 337.200,134.424 337.200 C 135.115 337.200,135.201 337.496,135.206 339.900 C 135.213 342.879,135.417 343.431,136.600 343.667 C 137.254 343.798,137.387 344.116,137.329 345.413 C 137.217 347.919,137.891 350.000,138.815 350.000 C 139.508 350.000,139.600 350.282,139.600 352.400 C 139.600 354.172,139.744 354.800,140.151 354.800 C 141.143 354.800,141.685 355.947,141.800 358.293 C 141.863 359.562,141.934 360.735,141.957 360.900 C 141.981 361.065,142.441 361.200,142.979 361.200 C 143.878 361.200,143.968 361.372,144.079 363.300 C 144.184 365.129,144.316 365.416,145.100 365.528 C 145.595 365.598,146.020 365.778,146.045 365.928 C 146.069 366.078,146.159 366.830,146.244 367.600 C 146.469 369.625,146.678 370.000,147.587 370.000 C 148.190 370.000,148.400 370.261,148.400 371.010 C 148.400 371.808,148.647 372.069,149.578 372.256 C 150.381 372.416,150.795 372.763,150.878 373.346 C 150.983 374.078,151.306 374.217,153.134 374.322 C 154.800 374.417,155.220 374.571,155.047 375.022 C 154.556 376.301,155.229 376.800,157.443 376.800 C 159.477 376.800,159.600 376.857,159.600 377.800 L 159.600 378.800 228.557 378.800 L 297.513 378.800 297.759 377.822 C 297.970 376.981,298.270 376.827,299.902 376.722 C 301.640 376.610,301.811 376.507,301.927 375.500 C 302.015 374.731,302.281 374.400,302.812 374.400 C 304.150 374.400,304.400 373.080,304.400 366.026 L 304.400 359.200 303.200 359.200 C 302.187 359.200,302.000 359.044,302.000 358.200 C 302.000 357.400,301.800 357.200,301.000 357.200 C 300.156 357.200,300.000 357.013,300.000 356.000 L 300.000 354.800 234.000 354.800 L 168.000 354.800 168.000 353.800 C 168.000 353.000,167.800 352.800,167.000 352.800 C 166.103 352.800,166.000 352.638,166.000 351.233 C 166.000 349.053,165.667 348.400,164.557 348.400 C 163.628 348.400,163.600 348.308,163.600 345.208 C 163.600 342.136,163.562 342.006,162.600 341.764 C 161.690 341.536,161.600 341.322,161.600 339.383 C 161.600 336.634,161.055 335.200,160.010 335.200 C 159.377 335.200,159.200 334.938,159.200 334.001 L 159.200 332.802 229.300 332.701 L 299.400 332.600 299.788 331.715 C 300.132 330.932,300.521 330.817,303.188 330.715 C 306.144 330.602,306.202 330.579,306.327 329.500 C 306.476 328.204,309.441 327.844,310.404 329.005 C 310.786 329.465,311.037 329.501,311.453 329.156 C 312.187 328.547,312.150 327.200,311.400 327.200 C 311.070 327.200,310.800 327.020,310.800 326.800 C 310.800 326.580,311.070 326.400,311.400 326.400 C 311.730 326.400,312.000 326.580,312.000 326.800 C 312.000 327.357,313.339 327.301,313.920 326.720 C 314.587 326.053,314.520 325.200,313.800 325.200 C 313.470 325.200,313.200 324.930,313.200 324.600 C 313.200 324.270,313.470 324.000,313.800 324.000 C 314.130 324.000,314.400 324.270,314.400 324.600 C 314.400 325.377,315.359 325.372,316.006 324.592 C 316.417 324.097,316.389 323.851,315.855 323.261 C 314.962 322.274,315.016 322.137,316.400 321.860 C 317.538 321.632,317.600 321.519,317.600 319.653 C 317.600 317.889,317.703 317.661,318.600 317.436 C 319.561 317.194,319.600 317.062,319.600 314.019 C 319.600 310.863,319.603 310.853,320.700 310.727 C 321.790 310.601,321.801 310.570,321.916 307.300 C 322.029 304.093,322.060 304.000,323.016 304.000 C 323.979 304.000,324.000 303.931,324.000 300.827 C 324.000 297.976,324.083 297.627,324.823 297.393 C 325.991 297.022,326.400 295.616,326.400 291.974 C 326.400 288.855,326.417 288.800,327.400 288.800 C 328.383 288.800,328.400 288.747,328.400 285.600 C 328.400 282.785,328.487 282.400,329.120 282.400 C 330.423 282.400,330.800 281.535,330.800 278.548 C 330.800 275.853,330.861 275.647,331.700 275.528 C 332.528 275.410,332.616 275.143,332.800 272.200 C 332.981 269.305,333.082 268.988,333.859 268.878 C 334.875 268.733,335.187 267.790,335.195 264.846 C 335.199 263.066,335.374 262.531,336.200 261.765 C 337.093 260.938,337.200 260.521,337.200 257.885 C 337.200 255.108,337.272 254.868,338.400 253.863 C 339.518 252.867,339.600 252.601,339.600 249.987 C 339.600 247.361,339.664 247.156,340.600 246.800 C 341.544 246.441,341.600 246.252,341.600 243.410 C 341.600 241.120,341.732 240.400,342.151 240.400 C 343.141 240.400,343.617 239.339,343.877 236.557 C 344.070 234.486,344.331 233.660,344.950 233.159 C 345.608 232.627,345.799 231.916,345.926 229.548 C 346.045 227.318,346.276 226.390,346.876 225.738 C 349.028 223.396,348.966 205.537,346.800 204.051 C 346.360 203.749,346.000 203.115,346.000 202.642 C 346.000 201.548,341.464 196.800,340.420 196.800 C 339.881 196.800,339.616 196.473,339.527 195.700 C 339.430 194.862,339.158 194.572,338.387 194.482 C 337.801 194.414,337.211 193.992,336.987 193.482 C 336.648 192.708,336.246 192.586,333.725 192.483 C 330.931 192.369,330.846 192.336,330.725 191.283 L 330.600 190.200 228.275 190.099 C 122.647 189.995,124.400 189.970,124.400 191.614 C 124.400 192.173,124.128 192.400,123.456 192.400 C 122.916 192.400,122.191 192.828,121.761 193.400 C 121.348 193.950,120.805 194.400,120.555 194.400 C 120.305 194.400,119.992 194.940,119.860 195.600 C 119.669 196.553,119.412 196.800,118.610 196.800 C 118.054 196.800,117.621 196.935,117.647 197.100 C 117.939 198.944,117.526 204.086,117.120 203.680 C 116.856 203.416,116.324 203.200,115.937 203.200 C 115.336 203.200,115.217 202.747,115.117 200.100 C 115.009 197.231,114.933 196.990,114.100 196.872 C 113.267 196.754,113.200 196.541,113.200 194.001 C 113.200 191.211,112.652 190.000,111.388 190.000 C 110.973 190.000,110.804 189.220,110.717 186.900 C 110.609 184.031,110.533 183.790,109.700 183.672 C 108.894 183.558,108.800 183.319,108.800 181.398 C 108.800 178.635,108.256 177.200,107.210 177.200 C 106.487 177.200,106.400 176.943,106.400 174.800 C 106.400 172.507,106.356 172.400,105.400 172.400 C 104.661 172.400,104.400 172.188,104.400 171.586 C 104.400 170.521,103.260 168.800,102.554 168.800 C 102.249 168.800,102.000 168.637,102.000 168.437 C 102.000 168.238,101.658 168.164,101.239 168.274 C 100.693 168.417,100.325 168.153,99.934 167.336 L 99.389 166.200 71.795 166.105 C 56.618 166.052,43.996 166.142,43.746 166.305 M98.200 172.628 C 98.200 173.491,97.293 173.787,96.402 173.215 C 95.888 172.886,95.917 172.747,96.602 172.229 C 97.594 171.481,98.200 171.632,98.200 172.628 M120.999 212.000 C 121.675 212.000,121.981 212.257,122.072 212.900 L 122.200 213.800 222.164 214.000 L 322.129 214.200 322.035 217.396 C 321.932 220.932,321.967 220.817,320.937 220.967 C 320.324 221.055,320.143 221.618,319.862 224.314 C 319.561 227.202,319.431 227.568,318.662 227.677 C 317.746 227.808,317.713 227.935,317.643 231.636 C 317.605 233.612,317.484 233.924,316.600 234.327 C 315.703 234.736,315.599 235.020,315.595 237.091 C 315.588 239.922,315.272 241.200,314.580 241.200 C 313.657 241.200,313.311 242.626,313.246 246.700 C 313.201 249.514,313.170 249.600,312.200 249.600 C 311.650 249.600,311.221 249.735,311.247 249.900 C 311.577 251.987,311.121 256.345,310.595 256.143 C 309.341 255.662,308.800 256.771,308.800 259.821 C 308.800 262.548,308.740 262.753,307.900 262.872 C 307.071 262.990,306.991 263.236,306.881 266.000 C 306.774 268.669,306.648 269.090,305.733 269.820 C 304.671 270.668,304.525 271.426,304.435 276.567 C 304.416 277.648,304.282 278.415,304.137 278.270 C 303.992 278.125,303.597 278.230,303.260 278.503 C 302.757 278.910,302.708 278.899,302.985 278.438 C 303.215 278.057,303.175 277.968,302.862 278.162 C 302.597 278.325,302.400 279.454,302.400 280.805 C 302.400 282.756,302.235 283.328,301.448 284.116 C 300.641 284.922,300.451 285.629,300.206 288.719 C 300.022 291.053,299.716 292.538,299.359 292.834 C 299.051 293.089,298.800 293.805,298.800 294.425 C 298.800 295.045,298.620 295.664,298.400 295.800 C 298.175 295.939,298.000 297.871,298.000 300.224 L 298.000 304.400 296.800 304.400 C 295.733 304.400,295.600 304.533,295.600 305.600 L 295.600 306.800 223.058 306.800 L 150.515 306.800 150.284 303.733 C 150.116 301.522,149.820 300.353,149.221 299.542 C 148.706 298.846,148.293 297.495,148.136 295.992 C 147.939 294.103,147.674 293.402,146.941 292.825 C 146.146 292.200,145.999 291.721,145.993 289.742 C 145.987 287.773,145.828 287.250,144.993 286.458 C 144.250 285.753,143.999 285.099,143.995 283.858 C 143.986 281.240,143.636 280.400,142.553 280.400 C 141.629 280.400,141.600 280.304,141.600 277.208 C 141.600 274.136,141.562 274.006,140.600 273.764 C 139.682 273.534,139.600 273.328,139.595 271.257 C 139.587 268.047,139.289 267.200,138.170 267.200 C 137.279 267.200,137.228 267.051,137.117 264.100 C 137.012 261.326,136.905 260.958,136.100 260.605 C 135.333 260.269,135.200 259.904,135.200 258.131 C 135.200 255.432,134.649 254.000,133.610 254.000 C 132.877 254.000,132.799 253.742,132.794 251.300 C 132.787 248.423,132.607 247.892,131.500 247.483 C 130.963 247.285,130.800 246.766,130.800 245.255 C 130.800 243.618,130.597 243.067,129.600 242.000 C 128.578 240.906,128.400 240.400,128.400 238.586 C 128.400 236.681,128.305 236.442,127.500 236.328 C 126.672 236.210,126.584 235.943,126.400 233.000 C 126.204 229.863,126.178 229.798,125.100 229.673 C 124.003 229.547,124.000 229.538,124.000 226.373 C 124.000 223.269,123.979 223.200,123.016 223.200 C 122.060 223.200,122.029 223.107,121.916 219.900 C 121.801 216.630,121.790 216.599,120.700 216.473 L 119.600 216.347 119.660 213.073 C 119.693 211.273,119.795 210.295,119.887 210.900 C 120.014 211.743,120.274 212.000,120.999 212.000 M328.676 215.900 C 328.575 216.285,328.493 215.970,328.493 215.200 C 328.493 214.430,328.575 214.115,328.676 214.500 C 328.776 214.885,328.776 215.515,328.676 215.900 M341.876 224.700 C 341.775 225.085,341.693 224.770,341.693 224.000 C 341.693 223.230,341.775 222.915,341.876 223.300 C 341.976 223.685,341.976 224.315,341.876 224.700 M325.200 229.854 C 325.200 231.430,324.241 232.000,323.807 230.683 C 323.519 229.810,323.514 229.253,323.792 228.940 C 324.278 228.393,325.200 228.992,325.200 229.854 M119.876 231.500 C 119.775 231.885,119.693 231.570,119.693 230.800 C 119.693 230.030,119.775 229.715,119.876 230.100 C 119.976 230.485,119.976 231.115,119.876 231.500 M322.994 235.991 C 323.127 236.205,322.965 236.880,322.634 237.491 L 322.032 238.600 322.016 237.500 C 322.002 236.508,321.631 236.196,320.670 236.363 C 320.489 236.394,320.455 236.235,320.594 236.010 C 320.916 235.488,322.675 235.474,322.994 235.991 M337.998 238.200 C 338.175 238.420,338.084 238.817,337.795 239.083 C 336.828 239.973,336.198 238.649,336.851 237.100 C 337.385 235.836,337.404 235.828,337.538 236.800 C 337.614 237.350,337.821 237.980,337.998 238.200 M106.800 239.600 C 106.800 240.260,106.651 240.800,106.469 240.800 C 106.287 240.800,106.218 240.260,106.315 239.600 C 106.412 238.940,106.560 238.400,106.645 238.400 C 106.730 238.400,106.800 238.940,106.800 239.600 M320.800 243.120 C 320.800 243.516,320.633 244.011,320.429 244.220 C 320.224 244.429,319.983 245.230,319.893 246.000 C 319.767 247.070,319.713 246.905,319.664 245.300 C 319.622 243.925,319.427 243.198,319.100 243.194 C 318.767 243.190,318.800 243.058,319.200 242.800 C 320.133 242.197,320.800 242.330,320.800 243.120 M124.276 244.700 C 124.175 245.085,124.093 244.770,124.093 244.000 C 124.093 243.230,124.175 242.915,124.276 243.300 C 124.376 243.685,124.376 244.315,124.276 244.700 M335.476 246.327 C 334.775 247.209,333.970 245.303,334.528 244.079 L 334.967 243.115 335.431 244.457 C 335.757 245.399,335.770 245.958,335.476 246.327 M318.309 249.090 C 318.745 249.495,318.738 249.767,318.268 250.663 L 317.701 251.747 317.396 250.774 C 317.229 250.238,316.891 249.668,316.646 249.506 C 316.338 249.303,316.362 249.210,316.724 249.206 C 317.012 249.203,317.133 249.016,316.994 248.790 C 316.657 248.245,317.640 248.469,318.309 249.090 M333.135 254.180 C 332.951 254.389,332.826 253.309,332.859 251.780 L 332.918 249.000 333.194 251.400 C 333.346 252.720,333.320 253.971,333.135 254.180 M111.030 253.903 C 110.596 254.338,110.471 253.799,110.729 252.600 L 110.987 251.400 111.124 252.537 C 111.199 253.162,111.157 253.777,111.030 253.903 M128.800 255.987 C 128.800 256.560,128.983 256.705,129.472 256.517 C 130.051 256.295,130.037 256.402,129.372 257.292 L 128.600 258.325 128.070 257.329 C 127.517 256.290,127.679 255.200,128.387 255.200 C 128.614 255.200,128.800 255.554,128.800 255.987 M315.982 256.866 C 316.688 258.028,316.702 258.229,316.146 259.303 C 315.813 259.947,315.507 260.413,315.466 260.337 C 315.425 260.262,315.033 259.764,314.596 259.232 C 313.896 258.382,313.885 258.295,314.500 258.520 C 314.885 258.660,315.200 258.601,315.200 258.387 C 315.200 258.174,314.998 258.000,314.751 258.000 C 314.439 258.000,314.453 257.818,314.796 257.405 C 315.067 257.078,315.185 256.538,315.057 256.205 C 314.661 255.171,315.175 255.539,315.982 256.866 M331.719 260.495 C 331.910 261.022,331.783 261.162,331.196 261.072 C 330.070 260.900,329.871 260.568,330.174 259.361 C 330.462 258.215,331.049 258.646,331.719 260.495 M131.574 262.048 C 131.297 262.565,131.281 262.797,131.532 262.642 C 131.759 262.502,132.058 262.570,132.196 262.793 C 132.334 263.017,132.176 263.200,131.843 263.200 C 131.511 263.200,131.084 263.479,130.893 263.820 C 130.604 264.336,130.471 264.274,130.096 263.450 C 129.581 262.321,130.052 261.747,131.914 261.232 C 131.977 261.214,131.824 261.582,131.574 262.048 M116.387 264.657 C 116.394 265.129,116.130 265.618,115.800 265.745 C 115.320 265.929,115.200 265.603,115.200 264.111 C 115.200 262.386,115.244 262.305,115.787 263.024 C 116.110 263.451,116.380 264.186,116.387 264.657 M313.945 265.831 C 313.483 266.937,313.449 266.951,313.300 266.094 C 313.214 265.596,312.971 265.294,312.761 265.424 C 312.288 265.717,312.458 264.803,313.000 264.146 C 313.789 263.190,314.510 264.476,313.945 265.831 M328.800 266.400 C 328.800 267.998,328.189 268.557,327.735 267.374 C 327.504 266.774,328.161 264.800,328.591 264.800 C 328.706 264.800,328.800 265.520,328.800 266.400 M134.042 268.697 C 134.134 268.643,133.982 268.800,133.705 269.044 C 132.987 269.675,133.080 270.013,133.900 269.755 C 134.531 269.556,134.537 269.587,133.965 270.067 C 133.616 270.360,133.245 270.856,133.142 271.169 C 133.023 271.528,132.761 271.270,132.428 270.468 C 131.824 269.008,132.465 267.624,133.390 268.392 C 133.656 268.612,133.949 268.750,134.042 268.697 M118.374 271.832 C 118.010 272.270,117.762 272.300,117.347 271.956 C 116.720 271.436,116.596 270.627,117.200 271.000 C 117.429 271.142,117.607 270.768,117.616 270.124 L 117.632 269.000 118.243 270.127 C 118.723 271.012,118.751 271.377,118.374 271.832 M311.732 272.531 L 311.102 273.751 310.611 272.575 C 309.927 270.935,310.213 270.332,311.415 270.880 C 312.330 271.297,312.341 271.353,311.732 272.531 M326.979 273.064 C 327.381 272.909,327.399 273.067,327.059 273.787 C 326.220 275.565,325.133 274.019,325.896 272.133 C 326.159 271.484,326.208 271.506,326.328 272.331 C 326.410 272.893,326.667 273.183,326.979 273.064 M135.834 275.457 C 135.635 275.974,135.697 276.017,136.124 275.663 C 136.538 275.320,136.667 275.348,136.667 275.784 C 136.667 276.098,136.562 276.344,136.433 276.330 C 135.603 276.241,135.198 276.490,135.186 277.100 C 135.175 277.630,135.038 277.558,134.619 276.801 C 134.230 276.099,134.190 275.654,134.482 275.301 C 135.107 274.548,136.137 274.666,135.834 275.457 M120.787 277.657 C 120.805 278.551,119.769 278.886,119.180 278.176 C 118.841 277.768,118.833 277.600,119.151 277.600 C 119.398 277.600,119.600 277.409,119.600 277.176 C 119.600 276.943,119.407 276.872,119.170 277.018 C 118.932 277.166,118.966 276.923,119.248 276.472 C 119.817 275.560,120.761 276.287,120.787 277.657 M309.658 277.945 C 309.800 278.085,309.721 278.650,309.483 279.200 L 309.050 280.200 308.898 279.100 C 308.813 278.482,308.496 278.000,308.173 278.000 C 307.858 278.000,307.600 277.808,307.600 277.573 C 307.600 277.149,309.133 277.426,309.658 277.945 M324.290 281.293 C 324.201 282.012,324.126 281.520,324.124 280.200 C 324.122 278.880,324.195 278.292,324.286 278.893 C 324.377 279.494,324.379 280.574,324.290 281.293 M138.325 281.348 C 138.921 281.164,138.918 281.192,138.300 281.590 C 137.915 281.837,137.600 282.233,137.600 282.469 C 137.600 282.760,137.778 282.750,138.153 282.439 C 138.580 282.085,138.760 282.119,138.941 282.590 C 139.087 282.970,138.948 283.200,138.575 283.200 C 138.244 283.200,137.832 283.584,137.658 284.054 C 137.361 284.859,137.312 284.835,136.823 283.654 C 136.392 282.616,136.397 282.177,136.851 281.100 C 137.334 279.956,137.415 279.906,137.525 280.678 C 137.612 281.292,137.853 281.493,138.325 281.348 M122.796 284.803 C 122.170 285.189,120.740 284.821,121.032 284.348 C 121.155 284.149,121.423 284.091,121.628 284.217 C 121.832 284.344,122.007 283.942,122.016 283.324 L 122.032 282.200 122.656 283.352 C 123.132 284.231,123.165 284.574,122.796 284.803 M306.800 285.667 C 306.800 287.123,306.625 287.070,306.249 285.500 C 306.092 284.847,306.150 284.400,306.392 284.400 C 306.617 284.400,306.800 284.970,306.800 285.667 M124.994 291.209 C 124.579 291.881,123.489 291.667,123.757 290.967 C 123.891 290.619,124.007 289.944,124.016 289.467 C 124.031 288.679,124.087 288.702,124.634 289.709 C 124.965 290.320,125.127 290.995,124.994 291.209 M141.876 295.100 C 141.775 295.485,141.693 295.170,141.693 294.400 C 141.693 293.630,141.775 293.315,141.876 293.700 C 141.976 294.085,141.976 294.715,141.876 295.100 M319.876 295.100 C 319.775 295.485,319.693 295.170,319.693 294.400 C 319.693 293.630,319.775 293.315,319.876 293.700 C 319.976 294.085,319.976 294.715,319.876 295.100 M127.586 297.700 C 127.594 297.865,127.330 298.000,127.000 298.000 C 126.587 298.000,126.404 297.595,126.414 296.700 L 126.428 295.400 127.000 296.400 C 127.314 296.950,127.578 297.535,127.586 297.700 M128.676 303.900 C 128.575 304.285,128.493 303.970,128.493 303.200 C 128.493 302.430,128.575 302.115,128.676 302.500 C 128.776 302.885,128.776 303.515,128.676 303.900 M138.500 387.882 C 137.861 388.005,137.600 388.338,137.600 389.028 C 137.600 390.207,134.505 390.490,133.596 389.395 C 133.214 388.935,132.963 388.899,132.547 389.244 C 131.939 389.749,131.798 391.200,132.357 391.200 C 132.554 391.200,132.814 391.461,132.937 391.780 C 133.085 392.167,132.967 392.285,132.580 392.137 C 132.261 392.014,132.000 391.754,132.000 391.557 C 132.000 390.998,130.549 391.139,130.044 391.747 C 129.699 392.163,129.735 392.414,130.195 392.796 C 131.234 393.658,130.991 396.337,129.848 396.624 C 128.078 397.068,128.059 405.200,129.829 405.200 C 130.668 405.200,130.770 405.404,130.879 407.300 C 130.992 409.259,131.074 409.409,132.100 409.527 C 132.947 409.624,133.200 409.866,133.200 410.580 C 133.200 411.973,133.429 411.989,153.700 411.995 L 172.400 412.000 172.400 410.800 C 172.400 409.733,172.533 409.600,173.600 409.600 C 174.613 409.600,174.800 409.444,174.800 408.600 C 174.800 407.800,175.000 407.600,175.800 407.600 L 176.800 407.600 176.800 401.000 L 176.800 394.400 175.827 394.400 C 175.062 394.400,174.826 394.164,174.727 393.300 C 174.657 392.695,174.381 392.243,174.114 392.295 C 173.847 392.348,173.721 392.149,173.834 391.854 C 174.097 391.171,172.333 390.000,171.042 390.000 C 170.326 390.000,170.021 389.755,169.928 389.105 C 169.828 388.409,169.445 388.148,168.200 387.928 C 166.503 387.629,140.029 387.588,138.500 387.882 M266.880 387.891 C 265.932 388.008,265.455 388.328,265.190 389.027 C 264.914 389.753,264.522 390.000,263.643 390.000 C 261.952 390.000,261.187 390.382,260.791 391.424 C 260.596 391.936,260.037 392.396,259.522 392.469 C 258.712 392.584,258.585 392.855,258.479 394.700 C 258.376 396.483,258.239 396.800,257.569 396.800 C 255.465 396.800,255.414 404.824,257.516 405.128 C 258.268 405.237,258.400 405.508,258.400 406.948 C 258.400 408.751,258.929 409.600,260.052 409.600 C 260.461 409.600,260.797 409.962,260.872 410.484 C 261.072 411.864,261.812 411.918,281.274 411.960 C 300.064 412.001,301.322 411.905,301.803 410.391 C 301.952 409.921,302.598 409.036,303.237 408.425 L 304.400 407.313 304.400 400.883 C 304.400 394.020,304.101 392.400,302.836 392.400 C 302.279 392.400,302.017 392.082,301.927 391.300 C 301.814 390.325,301.621 390.190,300.222 390.113 C 298.093 389.996,297.600 389.761,297.600 388.865 C 297.600 388.297,297.220 388.042,296.100 387.857 C 294.489 387.590,269.075 387.620,266.880 387.891 M263.414 398.423 C 263.763 398.987,263.288 400.800,262.792 400.800 C 262.577 400.800,262.400 400.350,262.400 399.800 C 262.400 399.250,262.209 398.800,261.976 398.800 C 261.743 398.800,261.664 398.620,261.800 398.400 C 262.125 397.874,263.083 397.888,263.414 398.423 M173.727 400.846 C 174.539 400.890,174.544 400.907,173.800 401.093 C 173.360 401.203,172.885 401.475,172.745 401.698 C 171.916 403.012,171.296 400.882,172.097 399.474 C 172.589 398.610,172.596 398.612,172.724 399.700 C 172.819 400.506,173.086 400.812,173.727 400.846 M263.357 401.833 C 263.858 403.138,263.619 404.000,262.757 404.000 C 262.153 404.000,261.983 403.821,262.157 403.367 C 262.291 403.019,262.400 402.389,262.400 401.967 C 262.400 401.040,263.020 400.953,263.357 401.833 M287.500 475.500 C 239.375 475.556,160.625 475.556,112.500 475.500 C 64.375 475.444,103.750 475.398,200.000 475.398 C 296.250 475.398,335.625 475.444,287.500 475.500 M21.100 516.274 C 21.035 520.633,20.982 517.180,20.982 508.600 C 20.982 500.020,21.035 496.453,21.099 500.674 C 21.164 504.894,21.164 511.914,21.100 516.274 M374.800 506.704 C 374.800 517.292,374.764 517.830,374.017 518.296 C 373.123 518.855,372.240 521.665,372.601 522.802 C 373.054 524.229,372.397 526.344,371.460 526.477 C 370.591 526.601,370.529 526.760,370.446 529.100 C 370.411 530.089,370.220 530.400,369.649 530.400 C 368.668 530.400,367.920 531.326,368.236 532.149 C 368.464 532.744,367.605 533.053,366.300 532.847 C 366.135 532.821,366.021 532.935,366.047 533.100 C 366.239 534.312,365.941 535.152,365.395 534.943 C 364.531 534.611,363.536 535.567,363.818 536.456 C 364.028 537.120,363.816 537.200,361.854 537.200 C 359.644 537.200,358.658 537.999,359.396 539.193 C 359.560 539.460,306.414 539.561,200.122 539.497 C 58.656 539.411,40.597 539.332,40.561 538.800 C 40.540 538.470,40.494 537.975,40.461 537.700 C 40.421 537.375,39.701 537.200,38.400 537.200 C 36.710 537.200,36.400 537.084,36.400 536.449 C 36.400 535.489,35.390 534.642,34.605 534.943 C 34.149 535.118,34.000 534.883,34.000 533.987 C 34.000 533.334,33.865 532.821,33.700 532.847 C 32.672 533.010,32.000 532.706,32.000 532.080 C 32.000 531.166,31.244 530.400,30.342 530.400 C 29.793 530.400,29.618 529.994,29.522 528.500 C 29.418 526.879,29.268 526.581,28.500 526.472 C 27.787 526.371,27.596 526.079,27.580 525.072 C 27.513 520.820,27.146 519.512,26.070 519.689 C 25.458 519.790,25.391 518.759,25.294 507.700 L 25.188 495.600 199.994 495.600 L 374.800 495.600 374.800 506.704 M177.683 504.877 C 177.418 505.142,177.200 505.594,177.200 505.880 C 177.200 506.274,176.176 506.400,172.979 506.400 L 168.758 506.400 168.340 507.600 C 168.032 508.484,167.669 508.800,166.961 508.800 C 166.432 508.800,166.021 508.935,166.047 509.100 C 166.212 510.143,165.874 510.745,165.000 510.964 C 163.912 511.237,163.935 511.131,163.764 516.800 C 163.612 521.870,163.918 523.564,165.038 523.845 C 165.719 524.016,166.000 524.367,166.000 525.043 C 166.000 525.784,166.215 526.000,166.950 526.000 C 167.682 526.000,167.954 526.271,168.136 527.179 C 168.357 528.284,168.502 528.365,170.486 528.479 C 172.330 528.584,172.616 528.715,172.728 529.500 L 172.856 530.400 200.028 530.400 C 226.658 530.400,227.200 530.385,227.200 529.624 C 227.200 528.602,227.554 528.423,229.736 528.341 C 231.397 528.278,231.588 528.167,231.814 527.136 C 232.004 526.270,232.293 526.000,233.032 526.000 C 233.786 526.000,234.000 525.789,234.000 525.043 C 234.000 524.369,234.281 524.016,234.954 523.847 C 236.060 523.570,236.291 522.292,236.192 517.000 C 236.082 511.169,236.096 511.239,235.000 510.964 C 234.282 510.784,234.000 510.443,234.000 509.757 C 234.000 509.013,233.786 508.800,233.039 508.800 C 232.331 508.800,231.968 508.484,231.660 507.600 L 231.242 506.400 227.116 506.400 C 223.221 506.400,222.968 506.350,222.595 505.500 L 222.200 504.600 200.183 504.497 C 183.392 504.418,178.052 504.508,177.683 504.877 M171.394 512.791 C 171.527 513.005,171.365 513.680,171.034 514.291 C 170.487 515.298,170.431 515.321,170.416 514.533 C 170.407 514.056,170.291 513.381,170.157 513.033 C 169.889 512.333,170.979 512.119,171.394 512.791 M230.088 516.700 C 229.945 522.149,229.707 523.254,229.646 518.746 C 229.618 516.595,229.381 514.870,229.020 514.174 C 228.372 512.924,228.521 512.400,229.524 512.400 C 230.124 512.399,230.187 512.883,230.088 516.700 M390.276 536.700 C 390.175 537.085,390.093 536.770,390.093 536.000 C 390.093 535.230,390.175 534.915,390.276 535.300 C 390.376 535.685,390.376 536.315,390.276 536.700 M385.876 543.500 C 385.775 543.885,385.693 543.570,385.693 542.800 C 385.693 542.030,385.775 541.715,385.876 542.100 C 385.976 542.485,385.976 543.115,385.876 543.500 M40.300 543.876 C 39.915 543.976,39.285 543.976,38.900 543.876 C 38.515 543.775,38.830 543.693,39.600 543.693 C 40.370 543.693,40.685 543.775,40.300 543.876 M361.100 543.876 C 360.715 543.976,360.085 543.976,359.700 543.876 C 359.315 543.775,359.630 543.693,360.400 543.693 C 361.170 543.693,361.485 543.775,361.100 543.876 M384.116 545.600 C 384.335 546.439,384.090 546.563,383.023 546.153 C 382.525 545.962,382.483 545.782,382.839 545.353 C 383.476 544.585,383.871 544.662,384.116 545.600 M19.462 548.329 C 19.098 548.400,18.800 548.648,18.800 548.878 C 18.800 549.138,18.573 549.109,18.204 548.804 C 17.582 548.287,17.779 547.416,18.428 547.817 C 18.632 547.944,18.800 547.835,18.800 547.575 C 18.800 547.242,18.996 547.265,19.462 547.651 C 20.079 548.162,20.079 548.209,19.462 548.329 M21.600 549.800 C 22.021 550.308,21.934 550.400,21.033 550.400 C 20.131 550.400,20.047 550.311,20.484 549.815 C 21.123 549.091,21.013 549.092,21.600 549.800 M380.161 550.106 C 380.316 549.951,380.324 550.134,380.178 550.512 C 379.894 551.253,379.200 551.457,379.200 550.800 C 379.200 550.580,378.908 550.400,378.551 550.400 C 378.003 550.400,377.984 550.301,378.430 549.764 C 378.910 549.185,379.000 549.185,379.419 549.758 C 379.672 550.104,380.006 550.261,380.161 550.106 " stroke="none" fill="#1c64fc" fill-rule="evenodd"></path><path id="path1" d="M123.500 5.100 C 165.575 5.156,234.425 5.156,276.500 5.100 C 318.575 5.044,284.150 4.998,200.000 4.998 C 115.850 4.998,81.425 5.044,123.500 5.100 M381.039 20.738 C 380.900 20.961,380.982 21.265,381.220 21.412 C 381.835 21.793,382.232 21.272,381.718 20.758 C 381.431 20.471,381.207 20.464,381.039 20.738 M97.000 172.400 C 97.136 172.620,97.517 172.800,97.847 172.800 C 98.177 172.800,98.336 172.620,98.200 172.400 C 98.064 172.180,97.683 172.000,97.353 172.000 C 97.023 172.000,96.864 172.180,97.000 172.400 M337.200 238.400 C 337.200 239.147,337.307 239.253,337.680 238.880 C 338.053 238.507,338.053 238.293,337.680 237.920 C 337.307 237.547,337.200 237.653,337.200 238.400 M332.800 253.600 C 332.800 254.347,332.907 254.453,333.280 254.080 C 333.653 253.707,333.653 253.493,333.280 253.120 C 332.907 252.747,332.800 252.853,332.800 253.600 M310.250 271.119 C 309.934 271.631,310.667 272.529,311.155 272.228 C 311.797 271.831,311.702 270.800,311.024 270.800 C 310.707 270.800,310.358 270.944,310.250 271.119 M303.711 277.300 C 302.834 278.435,302.611 279.029,303.260 278.503 C 303.597 278.230,303.992 278.125,304.137 278.270 C 304.282 278.415,304.400 278.143,304.400 277.667 C 304.400 276.673,304.256 276.596,303.711 277.300 M186.732 306.700 C 206.824 306.757,239.584 306.757,259.532 306.700 C 279.479 306.643,263.040 306.596,223.000 306.596 C 182.960 306.596,166.639 306.643,186.732 306.700 M132.893 332.000 C 132.893 332.770,132.975 333.085,133.076 332.700 C 133.176 332.315,133.176 331.685,133.076 331.300 C 132.975 330.915,132.893 331.230,132.893 332.000 M394.321 536.700 C 394.063 537.645,394.521 538.219,395.200 537.800 C 395.420 537.664,395.597 537.248,395.594 536.876 C 395.589 536.330,395.520 536.307,395.234 536.758 C 394.952 537.205,394.850 537.165,394.724 536.558 C 394.585 535.883,394.541 535.899,394.321 536.700 M121.900 539.500 C 164.855 539.556,235.145 539.556,278.100 539.500 C 321.055 539.444,285.910 539.398,200.000 539.398 C 114.090 539.398,78.945 539.444,121.900 539.500 " stroke="none" fill="#1c6cfc" fill-rule="evenodd"></path><path id="path2" d="" stroke="none" fill="#246cfc" fill-rule="evenodd"></path><path id="path3" d="M31.460 11.787 C 31.068 12.809,31.789 13.473,32.579 12.818 C 33.193 12.308,33.041 11.404,32.407 11.796 C 32.221 11.911,31.996 11.788,31.908 11.523 C 31.811 11.234,31.632 11.340,31.460 11.787 M368.221 11.705 C 368.431 12.257,368.338 12.351,367.790 12.141 C 367.306 11.955,367.146 12.038,367.270 12.411 C 367.369 12.708,367.664 13.021,367.925 13.108 C 368.600 13.333,369.000 12.039,368.429 11.473 C 368.061 11.108,368.014 11.161,368.221 11.705 M18.904 21.274 C 18.856 21.916,18.951 21.972,19.423 21.581 C 20.129 20.995,20.133 20.937,19.482 20.687 C 19.175 20.569,18.939 20.808,18.904 21.274 M380.600 20.800 C 380.245 21.374,380.734 22.002,381.524 21.988 C 382.139 21.977,382.136 21.939,381.492 21.563 C 381.102 21.336,380.888 20.982,381.015 20.775 C 381.143 20.569,381.157 20.400,381.047 20.400 C 380.937 20.400,380.736 20.580,380.600 20.800 M123.500 23.500 C 165.575 23.556,234.425 23.556,276.500 23.500 C 318.575 23.444,284.150 23.398,200.000 23.398 C 115.850 23.398,81.425 23.444,123.500 23.500 M38.900 25.476 C 39.285 25.576,39.915 25.576,40.300 25.476 C 40.685 25.375,40.370 25.293,39.600 25.293 C 38.830 25.293,38.515 25.375,38.900 25.476 M359.700 25.476 C 360.085 25.576,360.715 25.576,361.100 25.476 C 361.485 25.375,361.170 25.293,360.400 25.293 C 359.630 25.293,359.315 25.375,359.700 25.476 M390.154 32.177 C 390.032 32.494,390.003 33.079,390.089 33.477 C 390.187 33.928,390.324 33.712,390.454 32.900 C 390.671 31.538,390.530 31.196,390.154 32.177 M20.982 60.600 C 20.982 69.180,21.035 72.633,21.100 68.274 C 21.164 63.914,21.164 56.894,21.099 52.674 C 21.035 48.453,20.982 52.020,20.982 60.600 M394.412 284.600 C 394.412 437.711,394.551 523.983,394.796 523.600 C 395.323 522.776,395.325 46.419,394.798 45.600 C 394.550 45.214,394.412 130.530,394.412 284.600 M171.920 50.615 C 171.540 51.451,171.576 51.748,172.129 52.300 C 172.757 52.928,172.800 52.863,172.800 51.286 C 172.800 49.349,172.575 49.178,171.920 50.615 M181.324 51.800 C 181.326 53.120,181.401 53.612,181.490 52.893 C 181.579 52.174,181.577 51.094,181.486 50.493 C 181.395 49.892,181.322 50.480,181.324 51.800 M112.500 93.500 C 160.625 93.556,239.375 93.556,287.500 93.500 C 335.625 93.444,296.250 93.398,200.000 93.398 C 103.750 93.398,64.375 93.444,112.500 93.500 M20.701 236.300 C 20.646 312.585,20.691 396.690,20.802 423.200 C 20.914 449.710,21.049 387.295,21.102 284.500 C 21.156 181.705,21.111 97.600,21.001 97.600 C 20.892 97.600,20.757 160.015,20.701 236.300 M96.000 172.773 C 96.000 173.293,97.492 173.714,98.070 173.357 C 98.401 173.152,98.310 172.969,97.773 172.759 C 96.683 172.332,96.000 172.337,96.000 172.773 M328.493 215.200 C 328.493 215.970,328.575 216.285,328.676 215.900 C 328.776 215.515,328.776 214.885,328.676 214.500 C 328.575 214.115,328.493 214.430,328.493 215.200 M341.693 224.000 C 341.693 224.770,341.775 225.085,341.876 224.700 C 341.976 224.315,341.976 223.685,341.876 223.300 C 341.775 222.915,341.693 223.230,341.693 224.000 M323.792 228.940 C 323.514 229.253,323.519 229.810,323.807 230.683 C 324.203 231.885,324.260 231.916,324.715 231.188 C 325.594 229.780,324.789 227.817,323.792 228.940 M119.693 230.800 C 119.693 231.570,119.775 231.885,119.876 231.500 C 119.976 231.115,119.976 230.485,119.876 230.100 C 119.775 229.715,119.693 230.030,119.693 230.800 M320.594 236.010 C 320.455 236.235,320.489 236.394,320.670 236.363 C 321.631 236.196,322.002 236.508,322.016 237.500 L 322.032 238.600 322.634 237.491 C 323.481 235.929,321.522 234.507,320.594 236.010 M336.789 237.226 C 336.368 238.242,336.377 238.548,336.841 239.007 C 337.319 239.480,337.412 239.303,337.481 237.780 C 337.578 235.675,337.468 235.587,336.789 237.226 M106.315 239.600 C 106.218 240.260,106.287 240.800,106.469 240.800 C 106.651 240.800,106.800 240.260,106.800 239.600 C 106.800 238.940,106.730 238.400,106.645 238.400 C 106.560 238.400,106.412 238.940,106.315 239.600 M319.200 242.800 C 318.800 243.058,318.767 243.190,319.100 243.194 C 319.427 243.198,319.622 243.925,319.664 245.300 C 319.713 246.905,319.767 247.070,319.893 246.000 C 319.983 245.230,320.224 244.429,320.429 244.220 C 321.514 243.109,320.513 241.952,319.200 242.800 M124.093 244.000 C 124.093 244.770,124.175 245.085,124.276 244.700 C 124.376 244.315,124.376 243.685,124.276 243.300 C 124.175 242.915,124.093 243.230,124.093 244.000 M334.528 244.079 C 333.970 245.303,334.775 247.209,335.476 246.327 C 335.770 245.958,335.757 245.399,335.431 244.457 L 334.967 243.115 334.528 244.079 M316.994 248.790 C 317.133 249.016,317.012 249.203,316.724 249.206 C 316.362 249.210,316.338 249.303,316.646 249.506 C 316.891 249.668,317.229 250.238,317.396 250.774 L 317.701 251.747 318.268 250.663 C 318.738 249.767,318.745 249.495,318.309 249.090 C 317.640 248.469,316.657 248.245,316.994 248.790 M332.914 251.000 C 332.917 252.100,332.995 252.503,333.087 251.895 C 333.179 251.286,333.177 250.386,333.082 249.895 C 332.987 249.403,332.911 249.900,332.914 251.000 M110.729 252.600 C 110.471 253.799,110.596 254.338,111.030 253.903 C 111.157 253.777,111.199 253.162,111.124 252.537 L 110.987 251.400 110.729 252.600 M127.757 255.767 C 127.638 256.079,127.778 256.782,128.070 257.329 L 128.600 258.325 129.372 257.292 C 130.037 256.402,130.051 256.295,129.472 256.517 C 128.983 256.705,128.800 256.560,128.800 255.987 C 128.800 255.080,128.080 254.927,127.757 255.767 M315.057 256.205 C 315.185 256.538,315.067 257.078,314.796 257.405 C 314.392 257.892,314.425 258.000,314.975 258.000 C 315.345 258.000,315.541 258.172,315.411 258.383 C 315.281 258.593,314.865 258.652,314.487 258.515 C 313.896 258.299,313.911 258.399,314.596 259.232 C 315.033 259.764,315.425 260.262,315.466 260.337 C 315.507 260.413,315.813 259.947,316.146 259.303 C 316.702 258.229,316.688 258.028,315.982 256.866 C 315.175 255.539,314.661 255.171,315.057 256.205 M330.171 259.372 C 329.999 260.059,330.086 260.632,330.408 260.929 C 330.810 261.300,330.865 261.251,330.671 260.700 C 330.536 260.315,330.599 260.000,330.813 260.000 C 331.026 260.000,331.200 260.270,331.200 260.600 C 331.200 260.930,331.374 261.200,331.587 261.200 C 332.023 261.200,331.725 260.182,330.956 259.042 C 330.473 258.327,330.429 258.346,330.171 259.372 M130.941 261.597 C 129.721 262.090,129.590 262.474,130.257 263.605 L 130.844 264.600 130.677 263.500 C 130.565 262.757,130.688 262.400,131.055 262.400 C 131.355 262.400,131.600 262.580,131.600 262.800 C 131.600 263.020,131.802 263.200,132.049 263.200 C 132.365 263.200,132.355 263.028,132.015 262.618 C 131.749 262.297,131.647 261.847,131.789 261.618 C 132.086 261.137,132.083 261.137,130.941 261.597 M115.200 264.111 C 115.200 265.603,115.320 265.929,115.800 265.745 C 116.560 265.453,116.553 264.036,115.787 263.024 C 115.244 262.305,115.200 262.386,115.200 264.111 M312.813 264.307 C 312.292 264.879,312.302 264.923,312.900 264.694 C 313.465 264.477,313.535 264.625,313.336 265.618 C 313.042 267.092,313.481 267.164,314.026 265.731 C 314.569 264.304,313.720 263.309,312.813 264.307 M327.939 265.774 C 327.695 266.310,327.603 267.030,327.735 267.374 C 328.171 268.511,328.668 268.025,328.732 266.400 C 328.803 264.565,328.573 264.383,327.939 265.774 M132.404 268.595 C 132.001 269.080,132.006 269.449,132.428 270.468 C 132.761 271.270,133.023 271.528,133.142 271.169 C 133.245 270.856,133.616 270.366,133.965 270.079 C 134.519 269.625,134.485 269.590,133.700 269.806 C 133.050 269.985,132.800 269.883,132.800 269.440 C 132.800 269.077,133.030 268.913,133.360 269.040 C 133.667 269.158,134.056 269.017,134.224 268.727 C 134.391 268.437,134.381 268.333,134.201 268.497 C 134.021 268.660,133.656 268.612,133.390 268.392 C 133.055 268.114,132.751 268.177,132.404 268.595 M117.616 270.124 C 117.607 270.768,117.429 271.142,117.200 271.000 C 116.596 270.627,116.720 271.436,117.347 271.956 C 118.338 272.778,118.975 271.477,118.243 270.127 L 117.632 269.000 117.616 270.124 M311.200 272.199 C 310.906 272.749,310.772 273.306,310.903 273.437 C 311.034 273.567,311.429 273.118,311.781 272.437 C 312.133 271.757,312.266 271.200,312.078 271.200 C 311.889 271.200,311.494 271.650,311.200 272.199 M325.900 272.133 C 325.112 274.058,326.227 275.551,327.088 273.725 C 327.475 272.904,327.462 272.817,327.005 273.196 C 326.567 273.559,326.432 273.425,326.329 272.525 C 326.222 271.595,326.148 271.527,325.900 272.133 M134.482 275.301 C 134.189 275.655,134.240 276.096,134.655 276.801 L 135.244 277.800 135.077 276.700 C 134.962 275.938,135.086 275.600,135.479 275.600 C 135.792 275.600,135.955 275.750,135.841 275.933 C 135.728 276.117,135.867 276.267,136.151 276.267 C 136.435 276.267,136.667 276.035,136.667 275.751 C 136.667 275.467,136.517 275.328,136.333 275.441 C 136.150 275.555,136.000 275.457,136.000 275.224 C 136.000 274.639,134.989 274.691,134.482 275.301 M119.273 276.431 C 118.899 277.031,118.899 277.180,119.272 277.101 C 119.536 277.046,119.829 277.354,119.922 277.787 C 120.077 278.503,120.024 278.521,119.346 277.987 C 118.665 277.451,118.646 277.459,119.129 278.076 C 119.751 278.870,120.806 278.603,120.787 277.657 C 120.761 276.319,119.820 275.556,119.273 276.431 M307.600 277.573 C 307.600 277.808,307.858 278.000,308.173 278.000 C 308.496 278.000,308.813 278.482,308.898 279.100 L 309.050 280.200 309.483 279.200 C 309.965 278.088,309.815 277.815,308.500 277.418 C 307.959 277.255,307.600 277.316,307.600 277.573 M136.851 281.100 C 136.397 282.177,136.392 282.616,136.823 283.654 C 137.312 284.835,137.361 284.859,137.658 284.054 C 137.832 283.584,138.244 283.200,138.575 283.200 C 138.948 283.200,139.087 282.970,138.941 282.590 C 138.760 282.119,138.580 282.085,138.153 282.439 C 137.778 282.750,137.600 282.760,137.600 282.469 C 137.600 282.233,137.915 281.837,138.300 281.590 C 138.918 281.192,138.921 281.164,138.325 281.348 C 137.853 281.493,137.612 281.292,137.525 280.678 C 137.415 279.906,137.334 279.956,136.851 281.100 M122.110 283.649 C 122.170 284.618,122.366 285.034,122.700 284.906 C 123.326 284.666,123.313 284.445,122.596 283.200 C 122.021 282.202,122.020 282.202,122.110 283.649 M306.249 285.500 C 306.625 287.070,306.800 287.123,306.800 285.667 C 306.800 284.970,306.617 284.400,306.392 284.400 C 306.150 284.400,306.092 284.847,306.249 285.500 M124.172 289.600 C 124.291 290.150,124.392 290.861,124.395 291.180 C 124.398 291.599,124.521 291.639,124.836 291.324 C 125.150 291.010,125.088 290.570,124.613 289.744 C 123.985 288.654,123.964 288.647,124.172 289.600 M141.693 294.400 C 141.693 295.170,141.775 295.485,141.876 295.100 C 141.976 294.715,141.976 294.085,141.876 293.700 C 141.775 293.315,141.693 293.630,141.693 294.400 M319.693 294.400 C 319.693 295.170,319.775 295.485,319.876 295.100 C 319.976 294.715,319.976 294.085,319.876 293.700 C 319.775 293.315,319.693 293.630,319.693 294.400 M126.414 296.700 C 126.404 297.595,126.587 298.000,127.000 298.000 C 127.736 298.000,127.736 297.688,127.000 296.400 L 126.428 295.400 126.414 296.700 M128.493 303.200 C 128.493 303.970,128.575 304.285,128.676 303.900 C 128.776 303.515,128.776 302.885,128.676 302.500 C 128.575 302.115,128.493 302.430,128.493 303.200 M261.800 398.400 C 261.664 398.620,261.837 398.800,262.184 398.800 C 262.658 398.800,262.753 399.050,262.564 399.800 C 262.412 400.408,262.484 400.800,262.749 400.800 C 263.278 400.800,263.778 399.012,263.414 398.423 C 263.083 397.888,262.125 397.874,261.800 398.400 M171.939 399.774 C 171.496 400.746,171.693 402.002,172.287 401.998 C 172.459 401.997,172.641 401.277,172.691 400.398 C 172.795 398.566,172.573 398.382,171.939 399.774 M262.400 401.776 C 262.400 402.093,262.607 402.481,262.861 402.637 C 263.180 402.835,263.095 403.088,262.584 403.461 C 261.884 403.973,261.891 404.000,262.724 404.000 C 263.620 404.000,263.866 403.159,263.357 401.833 C 263.054 401.042,262.400 401.003,262.400 401.776 M112.500 475.500 C 160.625 475.556,239.375 475.556,287.500 475.500 C 335.625 475.444,296.250 475.398,200.000 475.398 C 103.750 475.398,64.375 475.444,112.500 475.500 M20.982 508.600 C 20.982 517.180,21.035 520.633,21.100 516.274 C 21.164 511.914,21.164 504.894,21.099 500.674 C 21.035 496.453,20.982 500.020,20.982 508.600 M170.157 513.033 C 170.291 513.381,170.407 514.056,170.416 514.533 C 170.431 515.321,170.487 515.298,171.034 514.291 C 171.688 513.085,171.507 512.400,170.534 512.400 C 170.133 512.400,170.000 512.624,170.157 513.033 M228.644 512.729 C 228.532 512.909,228.702 513.560,229.020 514.174 C 229.371 514.851,229.631 516.654,229.677 518.746 L 229.755 522.200 229.977 518.200 C 230.100 516.000,230.066 513.900,229.903 513.532 C 229.724 513.128,229.803 512.785,230.103 512.664 C 230.376 512.553,230.206 512.449,229.724 512.432 C 229.242 512.414,228.756 512.548,228.644 512.729 M390.093 536.000 C 390.093 536.770,390.175 537.085,390.276 536.700 C 390.376 536.315,390.376 535.685,390.276 535.300 C 390.175 534.915,390.093 535.230,390.093 536.000 M385.693 542.800 C 385.693 543.570,385.775 543.885,385.876 543.500 C 385.976 543.115,385.976 542.485,385.876 542.100 C 385.775 541.715,385.693 542.030,385.693 542.800 M38.900 543.876 C 39.285 543.976,39.915 543.976,40.300 543.876 C 40.685 543.775,40.370 543.693,39.600 543.693 C 38.830 543.693,38.515 543.775,38.900 543.876 M359.700 543.876 C 360.085 543.976,360.715 543.976,361.100 543.876 C 361.485 543.775,361.170 543.693,360.400 543.693 C 359.630 543.693,359.315 543.775,359.700 543.876 M382.839 545.353 C 382.483 545.782,382.525 545.962,383.023 546.153 C 384.090 546.563,384.335 546.439,384.116 545.600 C 383.871 544.662,383.476 544.585,382.839 545.353 M20.484 549.815 C 20.047 550.311,20.131 550.400,21.033 550.400 C 21.934 550.400,22.021 550.308,21.600 549.800 C 21.013 549.092,21.123 549.091,20.484 549.815 M378.430 549.764 C 377.984 550.301,378.003 550.400,378.551 550.400 C 378.908 550.400,379.200 550.580,379.200 550.800 C 379.200 551.457,379.894 551.253,380.178 550.512 C 380.324 550.134,380.316 549.951,380.161 550.106 C 380.006 550.261,379.672 550.104,379.419 549.758 C 379.000 549.185,378.910 549.185,378.430 549.764 " stroke="none" fill="#2064fc" fill-rule="evenodd"></path><path id="path4" d="M31.460 11.787 C 31.068 12.809,31.789 13.473,32.579 12.818 C 33.193 12.308,33.041 11.404,32.407 11.796 C 32.221 11.911,31.996 11.788,31.908 11.523 C 31.811 11.234,31.632 11.340,31.460 11.787 M368.221 11.705 C 368.431 12.257,368.338 12.351,367.790 12.141 C 367.306 11.955,367.146 12.038,367.270 12.411 C 367.369 12.708,367.664 13.021,367.925 13.108 C 368.600 13.333,369.000 12.039,368.429 11.473 C 368.061 11.108,368.014 11.161,368.221 11.705 M18.904 21.274 C 18.856 21.916,18.951 21.972,19.423 21.581 C 20.129 20.995,20.133 20.937,19.482 20.687 C 19.175 20.569,18.939 20.808,18.904 21.274 M380.600 20.800 C 380.245 21.374,380.734 22.002,381.524 21.988 C 382.139 21.977,382.136 21.939,381.492 21.563 C 381.102 21.336,380.888 20.982,381.015 20.775 C 381.143 20.569,381.157 20.400,381.047 20.400 C 380.937 20.400,380.736 20.580,380.600 20.800 M123.500 23.500 C 165.575 23.556,234.425 23.556,276.500 23.500 C 318.575 23.444,284.150 23.398,200.000 23.398 C 115.850 23.398,81.425 23.444,123.500 23.500 M38.900 25.476 C 39.285 25.576,39.915 25.576,40.300 25.476 C 40.685 25.375,40.370 25.293,39.600 25.293 C 38.830 25.293,38.515 25.375,38.900 25.476 M359.700 25.476 C 360.085 25.576,360.715 25.576,361.100 25.476 C 361.485 25.375,361.170 25.293,360.400 25.293 C 359.630 25.293,359.315 25.375,359.700 25.476 M390.154 32.177 C 390.032 32.494,390.003 33.079,390.089 33.477 C 390.187 33.928,390.324 33.712,390.454 32.900 C 390.671 31.538,390.530 31.196,390.154 32.177 M20.982 60.600 C 20.982 69.180,21.035 72.633,21.100 68.274 C 21.164 63.914,21.164 56.894,21.099 52.674 C 21.035 48.453,20.982 52.020,20.982 60.600 M394.412 284.600 C 394.412 437.711,394.551 523.983,394.796 523.600 C 395.323 522.776,395.325 46.419,394.798 45.600 C 394.550 45.214,394.412 130.530,394.412 284.600 M171.920 50.615 C 171.540 51.451,171.576 51.748,172.129 52.300 C 172.757 52.928,172.800 52.863,172.800 51.286 C 172.800 49.349,172.575 49.178,171.920 50.615 M181.324 51.800 C 181.326 53.120,181.401 53.612,181.490 52.893 C 181.579 52.174,181.577 51.094,181.486 50.493 C 181.395 49.892,181.322 50.480,181.324 51.800 M112.500 93.500 C 160.625 93.556,239.375 93.556,287.500 93.500 C 335.625 93.444,296.250 93.398,200.000 93.398 C 103.750 93.398,64.375 93.444,112.500 93.500 M20.701 236.300 C 20.646 312.585,20.691 396.690,20.802 423.200 C 20.914 449.710,21.049 387.295,21.102 284.500 C 21.156 181.705,21.111 97.600,21.001 97.600 C 20.892 97.600,20.757 160.015,20.701 236.300 M96.000 172.773 C 96.000 173.293,97.492 173.714,98.070 173.357 C 98.401 173.152,98.310 172.969,97.773 172.759 C 96.683 172.332,96.000 172.337,96.000 172.773 M328.493 215.200 C 328.493 215.970,328.575 216.285,328.676 215.900 C 328.776 215.515,328.776 214.885,328.676 214.500 C 328.575 214.115,328.493 214.430,328.493 215.200 M341.693 224.000 C 341.693 224.770,341.775 225.085,341.876 224.700 C 341.976 224.315,341.976 223.685,341.876 223.300 C 341.775 222.915,341.693 223.230,341.693 224.000 M323.792 228.940 C 323.514 229.253,323.519 229.810,323.807 230.683 C 324.203 231.885,324.260 231.916,324.715 231.188 C 325.594 229.780,324.789 227.817,323.792 228.940 M119.693 230.800 C 119.693 231.570,119.775 231.885,119.876 231.500 C 119.976 231.115,119.976 230.485,119.876 230.100 C 119.775 229.715,119.693 230.030,119.693 230.800 M320.594 236.010 C 320.455 236.235,320.489 236.394,320.670 236.363 C 321.631 236.196,322.002 236.508,322.016 237.500 L 322.032 238.600 322.634 237.491 C 323.481 235.929,321.522 234.507,320.594 236.010 M336.789 237.226 C 336.368 238.242,336.377 238.548,336.841 239.007 C 337.319 239.480,337.412 239.303,337.481 237.780 C 337.578 235.675,337.468 235.587,336.789 237.226 M106.315 239.600 C 106.218 240.260,106.287 240.800,106.469 240.800 C 106.651 240.800,106.800 240.260,106.800 239.600 C 106.800 238.940,106.730 238.400,106.645 238.400 C 106.560 238.400,106.412 238.940,106.315 239.600 M319.200 242.800 C 318.800 243.058,318.767 243.190,319.100 243.194 C 319.427 243.198,319.622 243.925,319.664 245.300 C 319.713 246.905,319.767 247.070,319.893 246.000 C 319.983 245.230,320.224 244.429,320.429 244.220 C 321.514 243.109,320.513 241.952,319.200 242.800 M124.093 244.000 C 124.093 244.770,124.175 245.085,124.276 244.700 C 124.376 244.315,124.376 243.685,124.276 243.300 C 124.175 242.915,124.093 243.230,124.093 244.000 M334.528 244.079 C 333.970 245.303,334.775 247.209,335.476 246.327 C 335.770 245.958,335.757 245.399,335.431 244.457 L 334.967 243.115 334.528 244.079 M316.994 248.790 C 317.133 249.016,317.012 249.203,316.724 249.206 C 316.362 249.210,316.338 249.303,316.646 249.506 C 316.891 249.668,317.229 250.238,317.396 250.774 L 317.701 251.747 318.268 250.663 C 318.738 249.767,318.745 249.495,318.309 249.090 C 317.640 248.469,316.657 248.245,316.994 248.790 M332.914 251.000 C 332.917 252.100,332.995 252.503,333.087 251.895 C 333.179 251.286,333.177 250.386,333.082 249.895 C 332.987 249.403,332.911 249.900,332.914 251.000 M110.729 252.600 C 110.471 253.799,110.596 254.338,111.030 253.903 C 111.157 253.777,111.199 253.162,111.124 252.537 L 110.987 251.400 110.729 252.600 M127.757 255.767 C 127.638 256.079,127.778 256.782,128.070 257.329 L 128.600 258.325 129.372 257.292 C 130.037 256.402,130.051 256.295,129.472 256.517 C 128.983 256.705,128.800 256.560,128.800 255.987 C 128.800 255.080,128.080 254.927,127.757 255.767 M315.057 256.205 C 315.185 256.538,315.067 257.078,314.796 257.405 C 314.392 257.892,314.425 258.000,314.975 258.000 C 315.345 258.000,315.541 258.172,315.411 258.383 C 315.281 258.593,314.865 258.652,314.487 258.515 C 313.896 258.299,313.911 258.399,314.596 259.232 C 315.033 259.764,315.425 260.262,315.466 260.337 C 315.507 260.413,315.813 259.947,316.146 259.303 C 316.702 258.229,316.688 258.028,315.982 256.866 C 315.175 255.539,314.661 255.171,315.057 256.205 M330.171 259.372 C 329.999 260.059,330.086 260.632,330.408 260.929 C 330.810 261.300,330.865 261.251,330.671 260.700 C 330.536 260.315,330.599 260.000,330.813 260.000 C 331.026 260.000,331.200 260.270,331.200 260.600 C 331.200 260.930,331.374 261.200,331.587 261.200 C 332.023 261.200,331.725 260.182,330.956 259.042 C 330.473 258.327,330.429 258.346,330.171 259.372 M130.941 261.597 C 129.721 262.090,129.590 262.474,130.257 263.605 L 130.844 264.600 130.677 263.500 C 130.565 262.757,130.688 262.400,131.055 262.400 C 131.355 262.400,131.600 262.580,131.600 262.800 C 131.600 263.020,131.802 263.200,132.049 263.200 C 132.365 263.200,132.355 263.028,132.015 262.618 C 131.749 262.297,131.647 261.847,131.789 261.618 C 132.086 261.137,132.083 261.137,130.941 261.597 M115.200 264.111 C 115.200 265.603,115.320 265.929,115.800 265.745 C 116.560 265.453,116.553 264.036,115.787 263.024 C 115.244 262.305,115.200 262.386,115.200 264.111 M312.813 264.307 C 312.292 264.879,312.302 264.923,312.900 264.694 C 313.465 264.477,313.535 264.625,313.336 265.618 C 313.042 267.092,313.481 267.164,314.026 265.731 C 314.569 264.304,313.720 263.309,312.813 264.307 M327.939 265.774 C 327.695 266.310,327.603 267.030,327.735 267.374 C 328.171 268.511,328.668 268.025,328.732 266.400 C 328.803 264.565,328.573 264.383,327.939 265.774 M132.404 268.595 C 132.001 269.080,132.006 269.449,132.428 270.468 C 132.761 271.270,133.023 271.528,133.142 271.169 C 133.245 270.856,133.616 270.366,133.965 270.079 C 134.519 269.625,134.485 269.590,133.700 269.806 C 133.050 269.985,132.800 269.883,132.800 269.440 C 132.800 269.077,133.030 268.913,133.360 269.040 C 133.667 269.158,134.056 269.017,134.224 268.727 C 134.391 268.437,134.381 268.333,134.201 268.497 C 134.021 268.660,133.656 268.612,133.390 268.392 C 133.055 268.114,132.751 268.177,132.404 268.595 M117.616 270.124 C 117.607 270.768,117.429 271.142,117.200 271.000 C 116.596 270.627,116.720 271.436,117.347 271.956 C 118.338 272.778,118.975 271.477,118.243 270.127 L 117.632 269.000 117.616 270.124 M311.200 272.199 C 310.906 272.749,310.772 273.306,310.903 273.437 C 311.034 273.567,311.429 273.118,311.781 272.437 C 312.133 271.757,312.266 271.200,312.078 271.200 C 311.889 271.200,311.494 271.650,311.200 272.199 M325.900 272.133 C 325.112 274.058,326.227 275.551,327.088 273.725 C 327.475 272.904,327.462 272.817,327.005 273.196 C 326.567 273.559,326.432 273.425,326.329 272.525 C 326.222 271.595,326.148 271.527,325.900 272.133 M134.482 275.301 C 134.189 275.655,134.240 276.096,134.655 276.801 L 135.244 277.800 135.077 276.700 C 134.962 275.938,135.086 275.600,135.479 275.600 C 135.792 275.600,135.955 275.750,135.841 275.933 C 135.728 276.117,135.867 276.267,136.151 276.267 C 136.435 276.267,136.667 276.035,136.667 275.751 C 136.667 275.467,136.517 275.328,136.333 275.441 C 136.150 275.555,136.000 275.457,136.000 275.224 C 136.000 274.639,134.989 274.691,134.482 275.301 M119.273 276.431 C 118.899 277.031,118.899 277.180,119.272 277.101 C 119.536 277.046,119.829 277.354,119.922 277.787 C 120.077 278.503,120.024 278.521,119.346 277.987 C 118.665 277.451,118.646 277.459,119.129 278.076 C 119.751 278.870,120.806 278.603,120.787 277.657 C 120.761 276.319,119.820 275.556,119.273 276.431 M307.600 277.573 C 307.600 277.808,307.858 278.000,308.173 278.000 C 308.496 278.000,308.813 278.482,308.898 279.100 L 309.050 280.200 309.483 279.200 C 309.965 278.088,309.815 277.815,308.500 277.418 C 307.959 277.255,307.600 277.316,307.600 277.573 M136.851 281.100 C 136.397 282.177,136.392 282.616,136.823 283.654 C 137.312 284.835,137.361 284.859,137.658 284.054 C 137.832 283.584,138.244 283.200,138.575 283.200 C 138.948 283.200,139.087 282.970,138.941 282.590 C 138.760 282.119,138.580 282.085,138.153 282.439 C 137.778 282.750,137.600 282.760,137.600 282.469 C 137.600 282.233,137.915 281.837,138.300 281.590 C 138.918 281.192,138.921 281.164,138.325 281.348 C 137.853 281.493,137.612 281.292,137.525 280.678 C 137.415 279.906,137.334 279.956,136.851 281.100 M122.110 283.649 C 122.170 284.618,122.366 285.034,122.700 284.906 C 123.326 284.666,123.313 284.445,122.596 283.200 C 122.021 282.202,122.020 282.202,122.110 283.649 M306.249 285.500 C 306.625 287.070,306.800 287.123,306.800 285.667 C 306.800 284.970,306.617 284.400,306.392 284.400 C 306.150 284.400,306.092 284.847,306.249 285.500 M124.172 289.600 C 124.291 290.150,124.392 290.861,124.395 291.180 C 124.398 291.599,124.521 291.639,124.836 291.324 C 125.150 291.010,125.088 290.570,124.613 289.744 C 123.985 288.654,123.964 288.647,124.172 289.600 M141.693 294.400 C 141.693 295.170,141.775 295.485,141.876 295.100 C 141.976 294.715,141.976 294.085,141.876 293.700 C 141.775 293.315,141.693 293.630,141.693 294.400 M319.693 294.400 C 319.693 295.170,319.775 295.485,319.876 295.100 C 319.976 294.715,319.976 294.085,319.876 293.700 C 319.775 293.315,319.693 293.630,319.693 294.400 M126.414 296.700 C 126.404 297.595,126.587 298.000,127.000 298.000 C 127.736 298.000,127.736 297.688,127.000 296.400 L 126.428 295.400 126.414 296.700 M128.493 303.200 C 128.493 303.970,128.575 304.285,128.676 303.900 C 128.776 303.515,128.776 302.885,128.676 302.500 C 128.575 302.115,128.493 302.430,128.493 303.200 M261.800 398.400 C 261.664 398.620,261.837 398.800,262.184 398.800 C 262.658 398.800,262.753 399.050,262.564 399.800 C 262.412 400.408,262.484 400.800,262.749 400.800 C 263.278 400.800,263.778 399.012,263.414 398.423 C 263.083 397.888,262.125 397.874,261.800 398.400 M171.939 399.774 C 171.496 400.746,171.693 402.002,172.287 401.998 C 172.459 401.997,172.641 401.277,172.691 400.398 C 172.795 398.566,172.573 398.382,171.939 399.774 M262.400 401.776 C 262.400 402.093,262.607 402.481,262.861 402.637 C 263.180 402.835,263.095 403.088,262.584 403.461 C 261.884 403.973,261.891 404.000,262.724 404.000 C 263.620 404.000,263.866 403.159,263.357 401.833 C 263.054 401.042,262.400 401.003,262.400 401.776 M112.500 475.500 C 160.625 475.556,239.375 475.556,287.500 475.500 C 335.625 475.444,296.250 475.398,200.000 475.398 C 103.750 475.398,64.375 475.444,112.500 475.500 M20.982 508.600 C 20.982 517.180,21.035 520.633,21.100 516.274 C 21.164 511.914,21.164 504.894,21.099 500.674 C 21.035 496.453,20.982 500.020,20.982 508.600 M170.157 513.033 C 170.291 513.381,170.407 514.056,170.416 514.533 C 170.431 515.321,170.487 515.298,171.034 514.291 C 171.688 513.085,171.507 512.400,170.534 512.400 C 170.133 512.400,170.000 512.624,170.157 513.033 M228.644 512.729 C 228.532 512.909,228.702 513.560,229.020 514.174 C 229.371 514.851,229.631 516.654,229.677 518.746 L 229.755 522.200 229.977 518.200 C 230.100 516.000,230.066 513.900,229.903 513.532 C 229.724 513.128,229.803 512.785,230.103 512.664 C 230.376 512.553,230.206 512.449,229.724 512.432 C 229.242 512.414,228.756 512.548,228.644 512.729 M390.093 536.000 C 390.093 536.770,390.175 537.085,390.276 536.700 C 390.376 536.315,390.376 535.685,390.276 535.300 C 390.175 534.915,390.093 535.230,390.093 536.000 M385.693 542.800 C 385.693 543.570,385.775 543.885,385.876 543.500 C 385.976 543.115,385.976 542.485,385.876 542.100 C 385.775 541.715,385.693 542.030,385.693 542.800 M38.900 543.876 C 39.285 543.976,39.915 543.976,40.300 543.876 C 40.685 543.775,40.370 543.693,39.600 543.693 C 38.830 543.693,38.515 543.775,38.900 543.876 M359.700 543.876 C 360.085 543.976,360.715 543.976,361.100 543.876 C 361.485 543.775,361.170 543.693,360.400 543.693 C 359.630 543.693,359.315 543.775,359.700 543.876 M382.839 545.353 C 382.483 545.782,382.525 545.962,383.023 546.153 C 384.090 546.563,384.335 546.439,384.116 545.600 C 383.871 544.662,383.476 544.585,382.839 545.353 M20.484 549.815 C 20.047 550.311,20.131 550.400,21.033 550.400 C 21.934 550.400,22.021 550.308,21.600 549.800 C 21.013 549.092,21.123 549.091,20.484 549.815 M378.430 549.764 C 377.984 550.301,378.003 550.400,378.551 550.400 C 378.908 550.400,379.200 550.580,379.200 550.800 C 379.200 551.457,379.894 551.253,380.178 550.512 C 380.324 550.134,380.316 549.951,380.161 550.106 C 380.006 550.261,379.672 550.104,379.419 549.758 C 379.000 549.185,378.910 549.185,378.430 549.764 " stroke="none" fill="#2064fc" fill-rule="evenodd"></path></g></svg>