<svg id="svg" version="1.1" xmlns="http://www.w3.org/2000/svg" xmlns:xlink="http://www.w3.org/1999/xlink" width="400" height="591.044776119403" viewBox="0, 0, 400,591.044776119403"><g id="svgg"><path id="path0" d="M39.758 4.861 C 38.901 5.005,37.390 5.034,36.400 4.925 C 34.074 4.669,32.493 5.290,32.168 6.586 C 31.978 7.342,31.644 7.606,30.857 7.624 C 26.745 7.715,25.600 8.259,25.600 10.120 C 25.600 10.739,25.406 10.838,24.597 10.635 C 23.357 10.324,21.442 11.259,20.558 12.608 C 20.200 13.154,19.557 13.600,19.128 13.600 C 17.738 13.600,16.800 14.371,16.799 15.514 C 16.799 16.448,16.621 16.612,15.529 16.689 C 14.135 16.788,13.615 17.330,13.606 18.700 C 13.602 19.299,13.358 19.600,12.876 19.600 C 11.599 19.600,10.786 20.532,10.728 22.064 C 10.691 23.047,10.511 23.464,10.178 23.336 C 9.677 23.144,7.519 25.621,7.633 26.257 C 7.889 27.679,7.535 28.800,6.829 28.800 C 6.404 28.800,5.773 29.085,5.425 29.432 C 4.806 30.051,4.743 30.454,4.725 33.871 C 4.719 35.060,4.569 35.486,4.206 35.347 C 3.231 34.973,1.923 37.241,2.067 39.057 C 2.140 39.974,2.065 40.640,1.900 40.538 C 1.523 40.305,1.546 555.236,1.923 557.358 C 2.075 558.215,2.290 558.860,2.400 558.791 C 2.510 558.721,3.001 558.879,3.491 559.142 C 4.228 559.536,4.344 559.520,4.164 559.050 C 4.044 558.737,4.113 558.377,4.318 558.251 C 4.537 558.115,4.697 559.459,4.706 561.510 C 4.723 565.539,5.178 567.025,6.592 567.669 C 7.564 568.112,7.773 568.606,7.620 570.103 C 7.547 570.821,7.757 570.948,9.729 571.381 C 10.736 571.603,10.829 571.755,10.600 572.802 C 10.377 573.813,10.580 574.208,12.077 575.687 C 13.032 576.629,14.031 577.895,14.298 578.500 C 14.720 579.457,15.414 579.819,16.500 579.647 C 16.665 579.621,16.800 579.780,16.800 580.000 C 16.800 580.220,17.430 580.400,18.200 580.400 C 19.533 580.400,19.600 580.467,19.600 581.800 C 19.600 583.133,19.667 583.200,21.000 583.200 C 22.084 583.200,22.400 583.363,22.400 583.924 C 22.400 585.422,23.314 586.004,26.070 586.261 C 28.432 586.481,28.768 586.618,28.974 587.440 C 29.440 589.295,23.585 589.238,201.800 589.116 L 371.400 589.000 371.525 587.700 L 371.651 586.400 374.078 586.400 C 376.655 586.400,378.821 585.455,379.606 583.988 C 379.860 583.515,380.543 583.203,381.501 583.124 C 382.805 583.016,383.050 582.831,383.383 581.700 C 383.622 580.889,384.023 580.400,384.450 580.400 C 385.894 580.400,386.400 579.922,386.400 578.557 C 386.400 577.281,386.481 577.200,387.757 577.200 C 389.122 577.200,389.600 576.694,389.600 575.250 C 389.600 574.823,390.089 574.422,390.900 574.183 C 392.023 573.852,392.217 573.600,392.322 572.338 C 392.417 571.197,392.646 570.825,393.365 570.645 C 394.377 570.391,395.600 567.787,395.600 565.887 C 395.600 565.195,395.815 564.800,396.191 564.800 C 397.438 564.800,398.118 562.873,398.316 558.776 C 398.486 555.230,398.588 554.800,399.253 554.800 C 399.883 554.800,400.000 554.486,400.000 552.800 C 400.000 551.092,399.887 550.800,399.229 550.800 C 398.402 550.800,398.070 549.949,398.331 548.500 C 398.432 547.943,398.780 547.600,399.247 547.600 C 399.984 547.600,400.000 542.113,400.000 294.600 C 400.000 41.867,399.999 41.600,399.200 41.600 C 398.470 41.600,398.398 41.328,398.383 38.500 C 398.359 34.275,397.885 32.144,396.686 30.873 C 396.129 30.283,395.452 29.046,395.181 28.125 C 394.823 26.908,394.382 26.324,393.566 25.986 C 392.669 25.614,392.419 25.228,392.322 24.060 C 392.212 22.741,392.077 22.588,390.924 22.476 C 389.812 22.369,389.631 22.188,389.524 21.076 C 389.412 19.920,389.261 19.788,387.923 19.677 C 386.535 19.562,386.438 19.465,386.323 18.077 C 386.212 16.739,386.080 16.588,384.924 16.476 C 383.812 16.369,383.631 16.188,383.524 15.076 C 383.411 13.916,383.263 13.789,381.900 13.676 C 380.532 13.563,380.400 13.447,380.400 12.366 C 380.400 11.092,378.944 10.164,377.526 10.535 C 377.142 10.636,376.843 10.601,376.861 10.459 C 377.066 8.882,375.155 7.456,373.058 7.621 C 371.343 7.756,370.849 7.584,370.588 6.763 C 370.184 5.491,368.000 4.790,364.505 4.814 C 362.797 4.825,289.381 4.781,201.358 4.717 C 113.335 4.653,40.615 4.718,39.758 4.861 M278.500 10.700 C 235.325 10.756,164.675 10.756,121.500 10.700 C 78.325 10.644,113.650 10.598,200.000 10.598 C 286.350 10.598,321.675 10.644,278.500 10.700 M35.358 12.868 C 35.253 13.038,35.649 13.297,36.238 13.445 L 37.308 13.714 36.354 14.243 C 34.792 15.109,32.533 14.307,33.993 13.404 C 34.190 13.283,34.283 12.833,34.201 12.404 C 34.072 11.734,34.155 11.690,34.799 12.093 C 35.211 12.350,35.463 12.699,35.358 12.868 M28.640 15.840 C 28.497 16.212,28.711 16.400,29.275 16.400 C 30.095 16.400,30.100 16.427,29.409 17.191 C 28.563 18.125,28.165 17.973,27.906 16.618 C 27.788 16.001,27.871 15.720,28.126 15.878 C 28.377 16.033,28.434 15.866,28.273 15.445 C 28.107 15.013,28.166 14.855,28.432 15.020 C 28.664 15.163,28.758 15.533,28.640 15.840 M375.600 16.195 C 375.600 16.334,375.375 16.312,375.100 16.147 C 374.707 15.910,374.708 15.979,375.105 16.470 C 375.994 17.568,374.743 18.198,373.229 17.415 C 371.780 16.666,371.637 16.124,372.900 16.168 C 373.447 16.188,373.757 15.992,373.690 15.670 C 373.630 15.379,373.765 15.255,373.990 15.394 C 374.216 15.533,374.400 15.444,374.400 15.195 C 374.400 14.924,374.641 14.984,375.000 15.343 C 375.330 15.673,375.600 16.056,375.600 16.195 M378.363 19.535 C 377.847 21.013,377.581 21.084,376.600 20.000 C 375.899 19.225,375.901 19.200,376.689 19.200 C 377.136 19.200,377.730 18.926,378.008 18.590 C 378.735 17.715,378.871 18.077,378.363 19.535 M384.559 24.867 C 384.445 25.050,384.545 25.200,384.780 25.200 C 385.067 25.200,385.052 25.447,384.735 25.955 C 384.207 26.801,383.590 26.822,382.630 26.025 C 382.038 25.534,382.062 25.442,382.889 25.018 C 383.957 24.472,384.853 24.391,384.559 24.867 M386.924 28.924 C 386.801 29.123,386.554 29.050,386.376 28.762 C 386.198 28.474,386.153 28.075,386.276 27.876 C 386.399 27.677,386.646 27.750,386.824 28.038 C 387.002 28.326,387.047 28.725,386.924 28.924 M14.000 31.400 C 14.000 31.730,13.820 32.000,13.600 32.000 C 13.380 32.000,13.200 31.730,13.200 31.400 C 13.200 31.070,13.380 30.800,13.600 30.800 C 13.820 30.800,14.000 31.070,14.000 31.400 M10.682 39.700 C 10.587 40.195,10.509 39.790,10.509 38.800 C 10.509 37.810,10.587 37.405,10.682 37.900 C 10.778 38.395,10.778 39.205,10.682 39.700 M361.871 38.100 C 362.316 38.595,362.795 39.323,362.935 39.719 C 363.075 40.114,363.417 40.408,363.695 40.371 C 365.497 40.135,365.830 40.383,365.748 41.900 C 365.609 44.463,366.008 46.000,366.812 46.000 C 367.209 46.000,367.819 46.109,368.167 46.243 C 368.743 46.464,368.800 64.600,368.800 247.843 L 368.800 449.200 201.600 449.200 L 34.400 449.200 34.400 246.225 L 34.400 43.251 35.700 43.125 C 36.843 43.015,37.015 42.843,37.125 41.700 C 37.228 40.635,37.422 40.400,38.197 40.400 C 39.417 40.400,40.400 39.405,40.400 38.171 L 40.400 37.200 200.730 37.200 L 361.061 37.200 361.871 38.100 M392.700 427.667 C 392.644 498.800,392.599 440.720,392.599 298.600 C 392.599 156.480,392.644 98.280,392.700 169.267 C 392.756 240.254,392.756 356.534,392.700 427.667 M25.602 249.400 C 25.602 360.902,25.511 452.222,25.401 452.333 C 25.290 452.443,25.200 361.123,25.200 249.400 C 25.200 137.677,25.290 46.357,25.401 46.467 C 25.511 46.578,25.602 137.898,25.602 249.400 M154.276 61.492 C 154.176 61.661,153.977 62.347,153.834 63.015 C 153.581 64.197,153.509 64.232,151.124 64.298 C 148.278 64.377,148.071 64.516,147.941 66.443 C 147.868 67.539,147.692 67.844,147.206 67.718 C 145.472 67.264,145.007 68.899,144.870 75.941 C 144.719 83.646,144.969 84.800,146.790 84.800 C 147.905 84.800,148.000 84.909,148.000 86.192 C 148.000 87.386,148.157 87.619,149.100 87.826 C 151.005 88.243,151.135 88.330,151.269 89.276 C 151.533 91.139,151.744 91.149,192.078 91.171 C 233.364 91.194,231.200 91.293,231.200 89.381 C 231.200 88.130,231.292 88.041,232.700 87.924 C 234.120 87.807,234.207 87.720,234.325 86.292 C 234.397 85.418,234.617 84.887,234.847 85.029 C 235.066 85.165,235.678 85.167,236.208 85.034 L 237.170 84.792 237.085 76.096 L 237.000 67.400 235.700 67.275 C 234.553 67.164,234.400 67.009,234.400 65.962 C 234.400 64.702,233.866 64.310,232.055 64.240 C 231.242 64.209,230.984 63.983,230.939 63.260 C 230.906 62.743,230.673 62.113,230.420 61.860 C 229.888 61.327,154.587 60.964,154.276 61.492 M153.898 79.281 C 153.824 81.106,153.762 79.720,153.762 76.200 C 153.761 72.680,153.822 71.186,153.897 72.881 C 153.972 74.576,153.972 77.456,153.898 79.281 M191.614 159.964 C 190.476 160.158,190.161 160.433,189.856 161.500 L 189.484 162.800 182.402 162.800 C 174.790 162.800,172.959 163.130,172.399 164.603 C 172.077 165.449,171.781 165.517,167.806 165.665 C 163.269 165.832,162.631 166.125,162.935 167.900 C 163.084 168.770,162.984 168.800,159.945 168.800 L 156.800 168.800 156.800 170.182 L 156.800 171.565 153.900 171.682 L 151.000 171.800 150.879 173.250 L 150.758 174.700 148.222 174.700 C 145.183 174.700,144.800 174.893,144.800 176.424 C 144.800 177.430,144.647 177.600,143.739 177.600 C 143.009 177.600,142.204 178.112,141.164 179.239 C 140.331 180.141,139.462 180.762,139.232 180.620 C 138.005 179.861,136.000 180.869,136.000 182.245 C 136.000 183.411,135.865 183.600,135.033 183.600 C 133.307 183.600,132.908 183.956,133.022 185.391 C 133.128 186.732,133.120 186.739,131.564 186.597 L 130.000 186.454 130.000 187.993 C 130.000 188.865,130.217 189.610,130.500 189.709 C 130.775 189.806,130.068 189.799,128.929 189.694 L 126.858 189.504 127.052 191.192 L 127.245 192.880 125.623 192.692 L 124.000 192.505 124.000 194.052 C 124.000 195.582,123.982 195.600,122.453 195.600 L 120.906 195.600 121.045 197.236 L 121.184 198.873 119.592 198.689 L 118.000 198.505 118.000 200.028 C 118.000 201.500,117.949 201.556,116.500 201.676 C 115.082 201.793,115.005 201.870,115.098 203.076 C 115.191 204.282,115.114 204.359,113.698 204.476 C 112.869 204.545,112.178 204.823,112.150 205.100 C 112.123 205.375,112.078 206.050,112.050 206.600 C 112.009 207.429,111.798 207.600,110.824 207.600 C 109.327 207.600,109.177 207.874,109.097 210.755 L 109.031 213.125 107.517 213.367 C 106.684 213.500,106.024 213.742,106.049 213.904 C 106.297 215.505,105.928 216.800,105.223 216.800 C 104.045 216.800,103.200 218.341,103.200 220.489 C 103.200 221.953,103.054 222.400,102.576 222.400 C 102.233 222.400,102.044 222.548,102.157 222.730 C 102.269 222.911,101.969 223.046,101.491 223.030 C 100.417 222.993,100.114 224.143,100.047 228.502 L 100.000 231.603 98.700 231.502 L 97.400 231.400 97.284 234.453 C 97.169 237.468,97.154 237.509,96.007 237.739 C 94.372 238.066,94.099 239.454,94.290 246.474 L 94.449 252.349 92.925 252.474 L 91.400 252.600 91.303 269.800 C 91.238 281.235,91.349 287.437,91.635 288.303 C 92.083 289.663,93.314 290.624,94.037 290.177 C 94.327 289.998,94.405 291.523,94.288 295.058 C 94.078 301.381,94.230 302.083,95.912 302.583 L 97.200 302.965 97.200 305.883 C 97.200 307.561,97.370 308.800,97.600 308.800 C 97.820 308.800,98.000 309.066,98.000 309.391 C 98.000 309.716,98.450 310.276,99.000 310.637 C 99.881 311.214,100.000 311.575,100.000 313.672 C 100.000 316.671,100.472 317.600,101.997 317.600 L 103.165 317.600 103.282 320.500 L 103.400 323.400 104.677 323.524 C 105.834 323.636,105.966 323.787,106.077 325.124 C 106.192 326.505,106.293 326.608,107.650 326.721 L 109.099 326.842 109.075 329.451 C 109.049 332.228,109.385 332.782,111.100 332.794 C 111.861 332.799,112.000 333.017,112.000 334.200 C 112.000 335.533,112.067 335.600,113.400 335.600 C 114.817 335.600,114.909 335.717,114.968 337.593 C 114.988 338.223,115.269 338.638,115.736 338.729 C 116.943 338.964,118.000 340.317,118.000 341.626 C 118.000 343.339,118.667 344.400,119.744 344.400 C 120.469 344.400,120.736 344.712,121.029 345.900 C 121.352 347.207,121.567 347.416,122.700 347.525 C 123.579 347.610,124.015 347.869,124.046 348.325 C 124.072 348.696,124.117 349.246,124.146 349.546 C 124.176 349.847,124.823 350.297,125.584 350.546 C 126.545 350.861,127.037 351.305,127.196 352.000 C 127.353 352.687,127.825 353.119,128.701 353.380 C 129.562 353.635,130.104 354.124,130.368 354.880 C 130.584 355.499,131.080 356.027,131.479 356.061 C 131.876 356.094,132.380 356.164,132.600 356.215 C 132.820 356.266,133.675 356.328,134.500 356.354 C 135.976 356.399,136.000 356.426,136.000 358.000 C 136.000 359.556,136.038 359.600,137.375 359.600 C 138.633 359.600,138.760 359.710,138.875 360.900 C 138.996 362.157,139.067 362.204,140.997 362.326 C 143.119 362.460,144.250 363.168,144.852 364.741 C 145.157 365.540,145.438 365.661,146.706 365.540 C 148.174 365.399,148.200 365.421,148.200 366.798 L 148.200 368.200 151.100 368.318 L 154.000 368.435 154.000 369.818 C 154.000 371.040,154.127 371.209,155.100 371.278 C 155.705 371.321,156.650 371.394,157.200 371.441 C 157.750 371.488,158.605 371.543,159.100 371.563 C 159.786 371.591,160.000 371.840,160.000 372.610 C 160.000 373.995,161.260 374.400,165.571 374.400 C 169.031 374.400,169.086 374.415,168.912 375.324 C 168.559 377.174,169.625 377.407,179.212 377.575 C 180.387 377.596,180.697 377.792,181.054 378.738 C 181.670 380.369,182.037 380.400,200.953 380.400 C 218.653 380.400,220.061 380.278,221.402 378.623 C 222.158 377.690,222.479 377.624,227.046 377.461 C 232.268 377.274,233.456 376.914,233.834 375.405 C 234.060 374.505,234.288 374.425,236.925 374.317 C 239.760 374.201,239.774 374.194,240.144 372.900 C 240.473 371.750,240.682 371.597,241.958 371.576 C 246.380 371.504,248.261 370.895,248.632 369.414 C 248.849 368.550,249.113 368.400,250.415 368.400 C 251.612 368.400,252.265 368.097,253.427 367.000 C 254.393 366.090,255.302 365.600,256.027 365.600 C 257.467 365.600,258.521 364.546,258.290 363.337 C 258.120 362.449,258.222 362.400,260.255 362.400 C 262.486 362.400,264.000 361.511,264.000 360.200 C 264.000 359.810,264.391 359.600,265.120 359.600 C 266.541 359.600,267.200 358.941,267.200 357.520 C 267.200 356.507,267.333 356.400,268.600 356.400 C 269.929 356.400,270.000 356.330,270.000 355.024 C 270.000 353.723,270.081 353.642,271.500 353.524 C 272.869 353.411,273.011 353.287,273.125 352.100 C 273.240 350.910,273.367 350.800,274.625 350.800 C 275.962 350.800,276.000 350.756,276.000 349.200 L 276.000 347.600 277.600 347.600 C 279.162 347.600,279.200 347.567,279.200 346.200 C 279.200 345.083,279.362 344.790,280.000 344.750 C 280.440 344.723,281.025 344.678,281.300 344.650 C 281.575 344.622,281.855 343.936,281.923 343.123 C 282.038 341.735,282.135 341.638,283.523 341.523 C 284.867 341.411,285.011 341.283,285.125 340.100 C 285.217 339.146,285.448 338.800,285.993 338.800 C 287.496 338.800,288.000 338.338,288.000 336.957 C 288.000 335.818,288.145 335.599,288.900 335.594 C 290.629 335.582,291.070 334.634,291.171 330.700 C 291.197 329.715,291.346 329.600,292.600 329.600 C 293.931 329.600,294.000 329.532,294.000 328.211 C 294.000 326.981,294.148 326.785,295.300 326.486 C 296.695 326.125,297.058 325.304,297.153 322.300 C 297.193 321.027,297.336 320.799,298.100 320.794 C 299.274 320.786,300.081 320.256,299.983 319.557 C 299.555 316.498,300.004 314.850,301.300 314.725 L 302.600 314.600 302.716 311.522 C 302.818 308.836,302.936 308.411,303.644 308.186 C 305.362 307.641,305.997 305.738,305.999 301.125 L 306.000 296.851 307.300 296.725 L 308.600 296.600 308.709 289.148 L 308.817 281.697 309.998 281.460 C 311.678 281.124,311.800 280.330,311.778 269.800 C 311.758 259.961,311.605 259.089,309.811 258.638 L 308.800 258.385 308.800 251.035 C 308.800 243.191,308.802 243.200,306.781 243.200 C 306.096 243.200,306.017 242.805,305.914 238.900 C 305.832 235.821,305.658 234.586,305.300 234.550 C 305.025 234.523,304.356 234.478,303.814 234.450 C 302.837 234.401,302.826 234.357,302.714 230.125 L 302.600 225.849 301.300 225.513 C 300.036 225.186,300.000 225.118,300.000 223.021 C 300.000 220.253,299.729 219.600,298.581 219.600 C 297.473 219.600,297.262 219.321,297.033 217.543 C 296.739 215.266,296.088 214.037,295.036 213.773 C 294.239 213.573,294.020 213.236,293.922 212.062 C 293.811 210.735,293.680 210.588,292.500 210.475 C 291.226 210.352,290.949 209.866,291.163 208.130 C 291.195 207.872,290.825 207.535,290.341 207.381 C 288.723 206.868,288.057 205.879,287.926 203.794 L 287.800 201.800 286.281 201.675 C 284.991 201.568,284.799 201.434,285.005 200.783 C 285.378 199.610,284.601 198.600,283.326 198.600 C 282.314 198.600,282.187 198.449,282.076 197.100 C 281.959 195.687,281.873 195.600,280.600 195.600 C 279.327 195.600,279.241 195.513,279.124 194.100 C 279.027 192.925,278.827 192.591,278.200 192.559 C 276.025 192.448,276.000 192.430,276.000 191.000 C 276.000 189.667,275.933 189.600,274.600 189.600 C 273.324 189.600,273.200 189.498,273.200 188.449 C 273.200 187.007,272.314 186.235,271.029 186.557 C 270.132 186.782,270.038 186.675,269.924 185.302 C 269.789 183.664,269.919 183.720,266.124 183.643 L 264.048 183.600 263.924 182.100 C 263.841 181.093,263.622 180.637,263.259 180.714 C 262.057 180.966,261.246 180.346,261.124 179.081 C 261.005 177.847,260.927 177.795,259.000 177.675 C 256.972 177.548,255.200 176.458,255.200 175.338 C 255.200 174.785,253.740 174.265,252.774 174.475 C 252.396 174.557,252.154 174.191,252.064 173.401 C 251.885 171.825,251.468 171.613,248.525 171.606 L 246.051 171.600 245.925 170.300 L 245.800 169.000 243.200 168.904 C 237.912 168.709,237.263 168.514,237.124 167.079 L 237.000 165.800 232.700 165.686 C 228.795 165.583,228.400 165.504,228.400 164.819 C 228.400 162.799,228.405 162.800,220.607 162.800 L 213.300 162.800 213.070 161.651 C 212.944 161.018,212.516 160.363,212.120 160.195 C 211.254 159.827,193.583 159.628,191.614 159.964 M199.700 167.482 C 199.205 167.578,198.395 167.578,197.900 167.482 C 197.405 167.387,197.810 167.309,198.800 167.309 C 199.790 167.309,200.195 167.387,199.700 167.482 M206.900 168.699 C 203.105 168.765,196.895 168.765,193.100 168.699 C 189.305 168.634,192.410 168.580,200.000 168.580 C 207.590 168.580,210.695 168.634,206.900 168.699 M168.100 174.682 C 167.605 174.778,166.795 174.778,166.300 174.682 C 165.805 174.587,166.210 174.509,167.200 174.509 C 168.190 174.509,168.595 174.587,168.100 174.682 M208.713 185.494 C 209.554 185.887,211.676 186.289,213.600 186.419 C 216.483 186.614,216.026 186.665,210.600 186.755 C 204.621 186.854,204.292 186.898,205.600 187.430 L 207.000 188.000 204.700 187.867 C 203.435 187.794,202.400 187.878,202.400 188.055 C 202.400 188.231,202.128 188.270,201.795 188.143 C 201.462 188.015,200.967 188.086,200.695 188.300 C 200.423 188.514,199.660 188.807,199.000 188.951 C 197.888 189.193,197.855 189.169,198.550 188.626 C 199.256 188.073,199.232 188.042,198.150 188.087 C 197.517 188.114,196.460 188.089,195.800 188.032 L 194.600 187.928 196.000 187.464 C 197.206 187.064,196.430 186.970,190.400 186.786 C 184.221 186.596,183.941 186.561,188.015 186.486 C 191.724 186.417,192.939 186.243,194.200 185.600 C 196.383 184.487,206.400 184.414,208.713 185.494 M203.600 193.200 C 204.561 194.161,207.625 194.394,206.838 193.446 C 206.373 192.886,208.184 192.051,208.714 192.581 C 208.835 192.701,208.701 192.800,208.418 192.800 C 208.005 192.800,208.001 192.919,208.400 193.400 C 208.812 193.897,208.769 194.004,208.149 194.025 C 205.190 194.126,210.546 194.928,216.132 195.221 C 222.666 195.564,222.888 195.604,223.661 196.587 C 224.319 197.423,224.798 197.600,226.405 197.600 C 227.476 197.600,228.464 197.780,228.600 198.000 C 228.736 198.220,230.097 198.400,231.624 198.400 L 234.400 198.400 234.400 199.610 C 234.400 200.846,235.625 201.714,237.164 201.568 C 239.718 201.326,240.347 201.579,240.475 202.900 C 240.587 204.069,240.742 204.212,242.003 204.318 C 243.053 204.407,243.569 204.719,244.050 205.558 C 244.697 206.685,246.061 207.200,248.399 207.200 C 249.412 207.200,249.495 207.319,249.449 208.700 C 249.401 210.155,249.445 210.204,250.900 210.324 C 252.619 210.466,252.890 211.275,251.576 212.339 C 250.663 213.079,250.834 214.174,251.927 214.594 C 252.345 214.754,252.841 214.542,253.261 214.024 C 254.485 212.513,255.415 213.049,255.292 215.194 C 255.247 215.972,255.940 216.386,257.300 216.394 C 258.289 216.399,258.400 216.541,258.400 217.800 C 258.400 219.129,258.470 219.200,259.776 219.200 C 261.076 219.200,261.159 219.282,261.276 220.694 C 261.386 222.018,261.530 222.197,262.546 222.273 C 264.023 222.384,263.983 222.324,264.267 224.846 C 264.550 227.355,264.950 228.000,266.225 228.000 C 267.007 228.000,267.171 228.234,267.276 229.500 C 267.393 230.911,267.487 231.007,268.861 231.122 L 270.322 231.244 270.285 233.522 C 270.223 237.347,270.708 239.354,272.021 240.697 C 273.082 241.782,273.221 242.215,273.309 244.700 C 273.415 247.699,273.962 248.798,275.349 248.803 C 276.180 248.806,276.203 248.975,276.339 255.903 C 276.486 263.396,276.842 265.166,278.366 265.982 C 279.736 266.715,279.616 273.235,278.216 274.153 C 276.799 275.081,276.468 276.917,276.326 284.636 C 276.248 288.841,276.046 291.472,275.800 291.473 C 274.288 291.477,274.002 291.706,273.588 293.243 C 273.345 294.146,273.176 295.451,273.214 296.143 C 273.390 299.438,273.218 300.400,272.449 300.400 C 271.479 300.400,270.643 301.413,270.951 302.216 C 271.089 302.576,271.023 302.738,270.795 302.597 C 270.388 302.345,270.160 304.881,270.333 307.753 C 270.424 309.259,270.393 309.299,269.294 309.079 C 268.115 308.843,267.108 309.212,267.226 309.837 C 267.264 310.036,267.273 311.235,267.247 312.500 L 267.200 314.800 265.835 314.800 C 264.558 314.800,264.453 314.901,264.204 316.377 C 263.965 317.788,263.804 317.967,262.669 318.077 C 261.566 318.184,261.384 318.367,261.276 319.476 C 261.169 320.588,260.988 320.769,259.876 320.876 C 258.721 320.988,258.588 321.140,258.477 322.476 C 258.366 323.810,258.232 323.965,257.090 324.076 C 256.054 324.178,255.759 324.431,255.461 325.479 C 255.164 326.521,254.866 326.779,253.848 326.879 C 252.792 326.981,252.594 327.171,252.560 328.107 C 252.512 329.419,252.571 329.360,250.800 329.857 C 249.540 330.211,249.410 330.378,249.502 331.525 C 249.600 332.763,249.556 332.800,248.002 332.800 C 247.121 332.800,246.400 332.980,246.400 333.200 C 246.400 333.420,246.127 333.600,245.794 333.600 C 245.461 333.600,244.876 334.111,244.494 334.735 C 244.112 335.360,243.561 335.790,243.270 335.692 C 241.746 335.178,238.000 336.854,238.000 338.049 C 238.000 338.462,237.775 338.818,237.500 338.840 C 237.225 338.861,236.243 338.916,235.318 338.961 C 233.528 339.048,232.000 340.069,232.000 341.179 C 232.000 341.721,231.513 341.838,229.159 341.859 C 226.152 341.887,225.618 342.194,225.606 343.900 C 225.600 344.755,225.434 344.803,222.300 344.867 C 220.485 344.904,218.460 344.949,217.800 344.967 C 217.087 344.987,216.639 345.197,216.695 345.486 C 216.751 345.768,216.539 345.875,216.190 345.741 C 215.400 345.438,214.300 346.374,214.509 347.172 C 214.655 347.734,213.185 347.800,200.536 347.800 L 186.400 347.800 186.400 346.749 C 186.400 345.482,185.572 344.710,184.321 344.813 C 180.317 345.142,176.846 344.774,176.598 343.993 C 176.212 342.776,173.380 341.477,171.772 341.779 C 169.758 342.157,168.400 341.684,168.400 340.606 C 168.400 339.533,167.538 338.711,166.524 338.817 C 163.721 339.108,162.400 338.798,162.400 337.849 C 162.400 336.582,161.654 336.031,159.765 335.905 C 158.159 335.797,157.455 335.274,156.796 333.700 C 156.500 332.991,156.098 332.800,154.905 332.800 C 153.733 332.800,153.300 332.602,152.995 331.924 C 152.464 330.746,150.572 329.765,148.936 329.820 C 147.646 329.863,147.600 329.811,147.600 328.332 C 147.600 326.853,147.552 326.800,146.224 326.800 C 144.923 326.800,144.842 326.719,144.724 325.300 C 144.606 323.876,144.529 323.800,143.200 323.800 C 141.871 323.800,141.794 323.724,141.676 322.300 C 141.558 320.881,141.477 320.800,140.176 320.800 L 138.800 320.800 138.800 318.280 C 138.800 315.580,138.384 314.800,136.945 314.800 C 136.228 314.800,136.026 314.542,135.925 313.500 C 135.811 312.316,135.667 312.189,134.317 312.077 L 132.834 311.954 132.717 309.077 C 132.638 307.139,132.437 306.184,132.100 306.150 C 131.825 306.123,131.240 306.078,130.800 306.050 C 129.832 305.990,129.670 304.212,130.600 303.855 C 131.412 303.544,131.354 302.922,130.400 301.709 C 129.960 301.150,129.600 300.109,129.600 299.396 C 129.600 296.845,129.115 295.514,127.942 294.847 C 126.848 294.224,126.805 294.085,126.803 291.120 C 126.799 286.732,126.168 284.148,124.864 283.184 L 123.800 282.398 123.911 270.022 C 124.018 258.105,124.051 257.638,124.812 257.396 C 126.161 256.968,126.549 255.571,126.726 250.500 C 126.877 246.158,126.977 245.600,127.599 245.600 C 128.744 245.600,129.250 244.601,129.627 241.596 C 129.824 240.024,130.254 238.488,130.592 238.151 C 130.926 237.817,131.200 236.857,131.200 236.018 C 131.200 234.830,131.376 234.447,132.000 234.284 C 132.636 234.118,132.800 233.738,132.800 232.437 C 132.800 230.964,132.899 230.800,133.786 230.800 C 134.997 230.800,135.564 229.825,135.873 227.210 C 136.093 225.359,136.180 225.236,137.353 225.121 C 138.436 225.016,138.616 224.830,138.725 223.705 C 138.829 222.627,139.063 222.355,140.125 222.082 C 141.158 221.816,141.423 221.527,141.520 220.554 C 141.615 219.597,141.895 219.278,142.909 218.977 C 143.922 218.676,144.234 218.322,144.455 217.220 C 144.615 216.420,145.166 215.523,145.766 215.087 C 146.335 214.672,146.800 214.078,146.800 213.767 C 146.800 213.407,147.227 213.200,147.967 213.200 C 149.747 213.200,150.400 212.809,150.400 211.745 C 150.400 210.760,150.547 210.654,152.500 210.226 C 153.439 210.020,153.600 209.784,153.600 208.617 C 153.600 207.324,153.683 207.241,155.100 207.124 C 156.469 207.011,156.611 206.887,156.725 205.700 C 156.851 204.401,156.853 204.400,159.125 204.394 C 161.783 204.387,162.270 204.154,162.460 202.800 C 162.569 202.022,162.867 201.772,163.800 201.676 C 166.827 201.362,168.019 200.803,168.264 199.581 C 168.495 198.423,168.549 198.400,171.021 198.400 C 173.366 198.400,174.815 197.813,174.794 196.871 C 174.777 196.140,174.014 195.509,173.420 195.737 C 173.037 195.884,172.860 195.827,172.999 195.602 C 173.230 195.228,175.054 195.165,175.719 195.507 C 175.895 195.597,175.828 195.925,175.570 196.236 C 174.888 197.058,177.511 197.004,178.425 196.177 C 178.954 195.699,180.681 195.474,185.865 195.207 C 192.723 194.854,195.820 194.222,196.598 193.017 C 197.244 192.015,202.554 192.154,203.600 193.200 M109.082 227.700 C 108.987 228.195,108.909 227.790,108.909 226.800 C 108.909 225.810,108.987 225.405,109.082 225.900 C 109.178 226.395,109.178 227.205,109.082 227.700 M294.282 230.900 C 294.187 231.395,294.109 230.990,294.109 230.000 C 294.109 229.010,294.187 228.605,294.282 229.100 C 294.378 229.595,294.378 230.405,294.282 230.900 M248.157 231.600 C 247.271 231.753,246.910 232.105,246.617 233.100 C 246.128 234.761,242.483 235.085,241.261 233.576 C 240.386 232.495,239.235 232.927,238.930 234.451 C 238.779 235.207,238.453 235.600,237.979 235.600 C 237.582 235.600,236.974 235.883,236.629 236.229 C 235.847 237.010,235.795 238.800,236.553 238.800 C 236.858 238.800,237.201 239.160,237.316 239.600 C 237.471 240.193,237.328 240.400,236.763 240.400 C 236.267 240.400,236.000 240.120,236.000 239.600 C 236.000 239.020,235.733 238.800,235.029 238.800 C 233.194 238.800,232.276 240.760,233.831 241.357 C 235.063 241.829,234.483 243.200,233.050 243.200 C 231.705 243.200,230.731 244.917,231.432 246.051 C 231.557 246.254,231.511 246.394,231.330 246.363 C 229.258 246.003,228.400 246.424,228.400 247.800 C 228.400 249.133,228.333 249.200,227.000 249.200 C 225.635 249.200,225.600 249.240,225.600 250.787 C 225.600 251.943,225.455 252.319,225.069 252.171 C 223.885 251.717,222.400 252.729,222.400 253.990 C 222.400 255.188,221.891 255.462,220.100 255.230 C 219.782 255.189,219.600 255.680,219.600 256.582 C 219.600 257.748,219.453 258.000,218.774 258.000 C 217.156 258.000,216.403 258.716,216.662 260.008 C 216.876 261.081,216.795 261.205,215.850 261.250 C 213.593 261.357,213.763 261.195,213.650 263.363 C 213.612 264.101,213.423 264.279,212.841 264.127 C 211.445 263.762,210.286 264.728,210.547 266.037 C 210.747 267.034,210.653 267.207,209.890 267.246 C 207.620 267.364,207.764 267.220,207.646 269.490 C 207.607 270.253,207.434 270.347,206.437 270.147 C 205.182 269.896,204.400 270.741,204.400 272.348 C 204.400 272.960,204.092 273.179,203.100 273.275 C 201.957 273.385,201.785 273.557,201.675 274.700 C 201.565 275.839,201.406 276.000,200.389 276.000 C 199.162 276.000,198.400 276.900,198.400 278.348 C 198.400 278.960,198.092 279.179,197.100 279.275 C 196.385 279.344,195.778 279.625,195.750 279.900 C 195.722 280.175,195.678 280.760,195.650 281.200 C 195.612 281.813,195.317 282.000,194.387 282.000 C 193.129 282.000,192.760 282.461,192.658 284.160 C 192.626 284.690,192.506 285.065,192.390 284.994 C 192.275 284.922,191.555 284.996,190.790 285.156 C 188.379 285.663,186.466 284.935,186.322 283.457 C 186.216 282.367,186.030 282.184,184.924 282.076 C 183.812 281.969,183.631 281.788,183.524 280.676 C 183.412 279.520,183.261 279.388,181.923 279.277 C 180.535 279.162,180.438 279.065,180.323 277.677 C 180.212 276.339,180.080 276.188,178.924 276.076 C 177.812 275.969,177.631 275.788,177.524 274.676 C 177.415 273.554,177.231 273.376,176.000 273.200 C 174.760 273.023,174.614 272.878,174.724 271.938 C 174.863 270.740,174.266 270.200,172.800 270.200 C 171.986 270.200,171.775 269.977,171.664 269.001 C 171.507 267.620,171.027 267.215,169.537 267.206 C 168.692 267.201,168.515 267.045,168.673 266.441 C 169.041 265.034,168.091 263.916,166.772 264.206 C 165.769 264.426,165.600 264.344,165.600 263.632 C 165.600 261.390,164.651 261.156,156.083 261.283 L 148.200 261.400 148.064 262.599 C 147.903 264.019,147.329 264.485,146.100 264.196 C 145.605 264.080,145.200 264.168,145.200 264.392 C 145.200 264.617,144.939 264.800,144.620 264.800 C 143.610 264.800,142.000 267.343,142.000 268.938 C 142.000 270.211,141.877 270.400,141.049 270.400 C 138.154 270.400,138.038 281.264,140.929 281.676 C 141.573 281.768,141.827 282.112,141.903 283.000 C 142.167 286.080,142.709 287.043,144.497 287.606 C 146.433 288.215,147.600 289.069,147.600 289.875 C 147.600 290.177,147.915 290.536,148.300 290.672 C 149.212 290.994,150.800 292.429,150.800 292.932 C 150.800 293.739,152.894 296.050,153.436 295.841 C 153.741 295.724,153.967 295.757,153.938 295.914 C 153.778 296.784,154.988 298.832,155.779 299.031 C 156.274 299.155,156.959 299.845,157.302 300.564 C 157.655 301.304,158.448 302.089,159.128 302.370 C 159.832 302.662,160.430 303.266,160.571 303.828 C 160.711 304.386,161.203 304.886,161.745 305.022 C 162.285 305.157,162.955 305.836,163.333 306.628 C 163.921 307.861,164.618 308.253,165.800 308.014 C 166.020 307.970,166.061 308.072,165.891 308.242 C 165.542 308.591,169.087 312.000,169.800 312.000 C 170.393 312.000,171.975 313.676,171.876 314.200 C 171.834 314.420,172.475 314.656,173.300 314.724 C 174.719 314.842,174.800 314.923,174.800 316.224 C 174.800 317.530,174.871 317.600,176.200 317.600 C 177.504 317.600,177.600 317.686,177.600 318.862 C 177.600 320.261,179.290 322.800,180.220 322.800 C 180.539 322.800,180.800 322.980,180.800 323.200 C 180.800 323.420,181.520 323.600,182.400 323.600 C 183.556 323.600,184.000 323.767,184.000 324.200 C 184.000 325.838,185.430 326.400,189.600 326.400 C 193.770 326.400,195.200 325.838,195.200 324.200 C 195.200 323.774,195.636 323.598,196.700 323.594 C 198.567 323.587,200.045 322.864,200.642 321.666 C 200.894 321.161,201.702 320.445,202.438 320.074 C 203.187 319.697,203.870 318.997,203.988 318.486 C 204.105 317.983,204.650 317.350,205.200 317.079 C 205.750 316.808,206.373 316.194,206.585 315.715 C 206.797 315.236,207.398 314.615,207.919 314.336 C 208.441 314.057,209.252 313.289,209.722 312.628 C 210.192 311.968,212.627 309.387,215.134 306.893 C 217.640 304.398,219.578 302.245,219.441 302.108 C 219.048 301.715,220.861 300.000,221.670 300.000 C 222.110 300.000,222.400 299.710,222.400 299.270 C 222.400 298.469,223.971 296.800,224.726 296.800 C 224.999 296.800,225.200 296.218,225.200 295.424 C 225.200 294.123,225.281 294.042,226.700 293.924 C 228.119 293.807,228.207 293.719,228.324 292.300 C 228.442 290.881,228.523 290.800,229.824 290.800 C 231.125 290.800,231.200 290.725,231.200 289.424 C 231.200 288.123,231.281 288.042,232.700 287.924 C 234.119 287.807,234.207 287.719,234.324 286.300 C 234.442 284.881,234.523 284.800,235.824 284.800 C 236.700 284.800,237.200 284.607,237.200 284.270 C 237.200 283.653,238.683 282.231,239.700 281.872 C 240.085 281.736,240.406 281.394,240.413 281.113 C 240.431 280.413,241.818 278.800,242.402 278.800 C 243.199 278.800,245.137 277.229,245.413 276.359 C 245.556 275.909,245.777 275.644,245.904 275.771 C 246.031 275.898,246.894 275.210,247.821 274.243 C 248.748 273.275,249.887 272.363,250.352 272.215 C 250.818 272.067,251.302 271.532,251.430 271.025 C 251.557 270.517,252.112 269.861,252.664 269.566 C 253.216 269.270,254.033 268.515,254.481 267.887 C 254.928 267.258,255.726 266.580,256.254 266.379 C 257.078 266.066,258.223 264.303,258.084 263.559 C 258.060 263.427,258.480 263.403,259.019 263.506 C 259.822 263.659,260.096 263.462,260.534 262.422 C 260.828 261.723,261.615 260.819,262.283 260.413 C 263.127 259.899,263.578 259.245,263.761 258.266 C 263.907 257.491,264.536 256.311,265.160 255.643 C 267.654 252.973,267.557 241.606,265.035 240.973 C 264.206 240.765,264.022 240.450,263.921 239.062 C 263.805 237.464,263.750 237.402,262.500 237.459 C 261.550 237.502,261.189 237.340,261.157 236.859 C 260.991 234.275,261.365 234.529,257.611 234.450 C 255.267 234.401,255.217 234.376,254.888 233.100 C 254.534 231.726,251.432 231.034,248.157 231.600 M240.400 236.400 C 240.400 236.840,240.235 237.200,240.033 237.200 C 239.831 237.200,239.404 237.300,239.084 237.423 C 238.642 237.593,238.549 237.401,238.698 236.623 C 238.939 235.360,240.400 235.169,240.400 236.400 M103.093 244.900 C 103.009 245.835,102.940 245.070,102.940 243.200 C 102.940 241.330,103.009 240.565,103.093 241.500 C 103.177 242.435,103.177 243.965,103.093 244.900 M121.285 241.200 C 121.123 242.309,121.372 242.584,122.433 242.470 C 122.562 242.456,122.667 242.704,122.667 243.022 C 122.667 243.552,122.264 243.768,121.500 243.647 C 121.335 243.621,121.200 243.786,121.200 244.014 C 121.200 244.295,120.942 244.290,120.400 244.000 C 119.420 243.475,119.388 242.683,120.286 241.162 C 121.166 239.673,121.507 239.686,121.285 241.200 M251.700 240.282 C 251.205 240.378,250.395 240.378,249.900 240.282 C 249.405 240.187,249.810 240.109,250.800 240.109 C 251.790 240.109,252.195 240.187,251.700 240.282 M283.056 247.542 C 283.479 248.456,283.547 249.013,283.268 249.292 C 282.761 249.799,280.675 249.327,281.011 248.782 C 281.145 248.565,281.423 248.491,281.628 248.617 C 281.842 248.750,282.028 247.609,282.067 245.924 C 282.106 244.224,282.197 243.670,282.285 244.600 C 282.367 245.480,282.714 246.804,283.056 247.542 M100.998 250.797 C 101.660 252.076,101.481 253.669,100.592 254.406 C 100.169 254.758,100.009 254.409,99.789 252.653 C 99.404 249.566,99.938 248.746,100.998 250.797 M99.200 251.533 C 99.200 252.054,98.724 252.401,98.338 252.161 C 97.924 251.906,98.281 251.200,98.824 251.200 C 99.031 251.200,99.200 251.350,99.200 251.533 M118.400 252.954 C 118.400 253.259,118.669 254.024,118.998 254.654 C 119.533 255.678,119.531 255.849,118.974 256.262 C 118.564 256.566,118.498 256.814,118.783 256.989 C 119.019 257.136,119.098 257.442,118.957 257.670 C 118.791 257.938,118.578 257.893,118.356 257.543 C 118.075 257.100,118.009 257.110,117.993 257.600 C 117.979 258.059,117.836 258.017,117.387 257.424 C 116.706 256.523,116.615 254.293,117.214 253.174 C 117.694 252.277,118.400 252.146,118.400 252.954 M304.427 257.630 C 304.625 257.943,304.778 258.560,304.766 259.000 L 304.744 259.800 304.429 259.000 C 304.097 258.154,304.122 258.070,303.368 262.500 C 303.125 263.927,303.165 264.000,304.197 264.000 C 305.261 264.000,305.276 264.034,305.008 265.900 C 304.670 268.254,304.636 272.504,304.939 274.500 C 305.149 275.888,305.093 276.000,304.183 276.000 C 303.304 276.000,303.206 276.159,303.253 277.500 L 303.305 279.000 303.631 277.600 C 303.936 276.291,303.950 276.319,303.835 278.033 C 303.762 279.129,303.932 280.166,304.257 280.610 C 304.987 281.608,304.941 282.585,304.135 283.251 C 303.533 283.747,303.514 283.716,303.935 282.926 C 304.191 282.446,304.396 281.816,304.391 281.526 C 304.386 281.237,304.091 281.590,303.735 282.312 C 303.121 283.558,303.052 283.590,302.344 282.950 C 301.328 282.030,301.241 273.454,302.229 271.544 C 302.801 270.438,302.801 270.185,302.229 268.756 C 301.498 266.929,301.341 258.832,302.012 257.578 C 302.478 256.708,303.862 256.737,304.427 257.630 M286.337 260.360 C 287.442 263.608,286.764 281.600,285.537 281.600 C 285.352 281.600,285.180 282.005,285.156 282.500 C 285.131 282.995,284.880 282.450,284.596 281.288 C 284.313 280.127,283.965 278.716,283.824 278.155 C 283.669 277.537,283.721 277.228,283.955 277.372 C 284.382 277.636,285.016 276.083,284.637 275.703 C 284.506 275.573,284.397 275.812,284.394 276.233 C 284.389 276.860,284.320 276.893,284.017 276.413 C 283.777 276.034,283.814 275.619,284.123 275.237 C 284.483 274.791,284.484 274.716,284.128 274.930 C 283.795 275.129,283.646 274.706,283.625 273.507 C 283.609 272.568,283.575 271.260,283.551 270.600 C 283.527 269.940,283.607 268.181,283.728 266.692 C 283.862 265.058,283.802 264.075,283.576 264.215 C 283.360 264.349,283.371 264.002,283.604 263.389 C 283.825 262.808,283.911 262.180,283.796 261.994 C 283.681 261.808,283.759 261.549,283.970 261.418 C 284.181 261.288,284.476 260.367,284.625 259.371 C 284.928 257.352,285.409 257.630,286.337 260.360 M115.097 273.100 C 115.022 274.805,114.961 273.410,114.961 270.000 C 114.961 266.590,115.022 265.195,115.097 266.900 C 115.172 268.605,115.172 271.395,115.097 273.100 M303.256 270.200 C 303.256 272.115,303.365 272.747,303.600 272.200 C 303.789 271.760,303.944 270.860,303.944 270.200 C 303.944 269.540,303.789 268.640,303.600 268.200 C 303.365 267.653,303.256 268.285,303.256 270.200 M148.567 272.643 C 149.355 272.945,149.380 273.965,148.626 275.041 C 148.311 275.491,147.982 276.656,147.896 277.630 C 147.754 279.235,147.733 279.183,147.670 277.076 C 147.625 275.584,147.451 274.845,147.184 275.010 C 146.912 275.178,146.863 274.890,147.042 274.174 C 147.261 273.302,147.204 273.149,146.758 273.417 C 146.283 273.703,146.282 273.652,146.749 273.077 C 147.348 272.339,147.611 272.276,148.567 272.643 M119.042 284.492 C 119.623 284.756,119.847 285.048,119.591 285.205 C 119.354 285.352,119.132 285.848,119.097 286.308 C 119.062 286.768,118.907 287.066,118.751 286.970 C 118.596 286.874,118.392 287.021,118.299 287.298 C 118.164 287.699,118.005 287.697,117.509 287.288 C 116.593 286.532,116.443 285.044,117.131 283.534 C 117.695 282.296,117.751 282.267,117.900 283.123 C 117.989 283.630,118.503 284.246,119.042 284.492 M178.127 285.446 C 177.941 285.931,177.819 285.954,177.571 285.553 C 177.196 284.946,177.500 284.291,178.010 284.606 C 178.205 284.727,178.258 285.105,178.127 285.446 M99.647 286.524 C 99.683 287.190,99.762 287.112,99.976 286.200 L 100.258 285.000 101.003 286.500 C 101.710 287.924,101.714 288.072,101.070 289.421 C 100.300 291.036,99.600 290.920,99.600 289.176 C 99.600 288.171,99.440 287.993,98.500 287.954 C 97.823 287.925,97.669 287.837,98.100 287.724 C 98.570 287.602,98.800 287.148,98.800 286.347 C 98.800 284.989,99.573 285.150,99.647 286.524 M181.100 288.233 C 180.719 288.615,179.955 287.997,180.239 287.538 C 180.407 287.264,180.631 287.271,180.918 287.558 C 181.154 287.794,181.236 288.098,181.100 288.233 M283.408 293.627 C 283.540 294.041,283.324 295.059,282.930 295.890 C 282.358 297.093,282.185 297.237,282.079 296.600 C 282.006 296.160,281.688 295.233,281.373 294.540 C 280.642 292.931,280.649 292.577,281.400 293.200 C 281.891 293.607,282.000 293.582,282.000 293.062 C 282.000 292.207,283.098 292.647,283.408 293.627 M103.082 299.300 C 102.987 299.795,102.909 299.390,102.909 298.400 C 102.909 297.410,102.987 297.005,103.082 297.500 C 103.178 297.995,103.178 298.805,103.082 299.300 M121.082 299.300 C 120.987 299.795,120.909 299.390,120.909 298.400 C 120.909 297.410,120.987 297.005,121.082 297.500 C 121.178 297.995,121.178 298.805,121.082 299.300 M192.801 317.900 C 192.801 318.065,191.766 318.149,190.501 318.087 C 186.487 317.890,186.093 317.722,189.500 317.660 C 191.315 317.627,192.800 317.735,192.801 317.900 M192.959 323.667 C 192.845 323.850,192.268 323.987,191.676 323.972 C 190.757 323.948,190.714 323.899,191.380 323.639 C 192.410 323.236,193.216 323.250,192.959 323.667 M237.600 347.600 C 237.600 347.820,236.835 347.974,235.900 347.943 L 234.200 347.886 235.800 347.600 C 236.680 347.442,237.445 347.288,237.500 347.257 C 237.555 347.226,237.600 347.380,237.600 347.600 M229.653 350.000 C 229.870 350.000,229.919 349.792,229.762 349.538 C 229.581 349.245,229.653 349.185,229.958 349.374 C 230.326 349.602,230.329 349.803,229.970 350.236 C 229.596 350.687,229.652 350.803,230.251 350.813 C 230.971 350.825,230.970 350.848,230.224 351.413 C 229.219 352.173,227.749 352.166,227.455 351.400 C 227.140 350.577,227.567 349.600,228.243 349.600 C 228.549 349.600,228.821 349.375,228.846 349.100 C 228.872 348.825,228.975 348.915,229.076 349.300 C 229.176 349.685,229.436 350.000,229.653 350.000 M186.380 352.432 C 186.851 351.670,187.838 352.353,187.818 353.426 C 187.785 355.259,184.981 355.811,182.087 354.554 L 180.600 353.907 182.981 353.410 C 184.291 353.136,185.446 352.662,185.548 352.356 C 185.703 351.892,185.763 351.890,185.915 352.345 C 186.045 352.735,186.178 352.760,186.380 352.432 M215.739 352.480 C 215.993 352.286,216.650 352.261,217.200 352.424 C 217.763 352.591,217.938 352.762,217.600 352.817 C 217.270 352.870,217.700 353.023,218.555 353.157 L 220.111 353.400 218.449 354.329 C 216.375 355.489,213.950 355.010,214.110 353.472 C 214.209 352.511,214.919 351.791,215.139 352.430 C 215.222 352.670,215.464 352.691,215.739 352.480 M147.300 356.682 C 146.805 356.778,145.995 356.778,145.500 356.682 C 145.005 356.587,145.410 356.509,146.400 356.509 C 147.390 356.509,147.795 356.587,147.300 356.682 M203.900 356.698 C 201.755 356.770,198.245 356.770,196.100 356.698 C 193.955 356.626,195.710 356.567,200.000 356.567 C 204.290 356.567,206.045 356.626,203.900 356.698 M245.700 362.682 C 245.205 362.778,244.395 362.778,243.900 362.682 C 243.405 362.587,243.810 362.509,244.800 362.509 C 245.790 362.509,246.195 362.587,245.700 362.682 M165.024 364.987 C 165.779 365.558,165.775 365.575,164.876 365.587 C 164.368 365.594,164.052 365.761,164.174 365.958 C 164.296 366.155,164.126 366.419,163.798 366.546 C 163.469 366.672,163.200 366.601,163.200 366.387 C 163.200 366.174,162.930 366.000,162.600 366.000 C 161.991 366.000,161.779 365.154,162.267 364.667 C 162.729 364.204,164.217 364.377,165.024 364.987 M173.720 367.889 C 174.989 368.571,174.992 368.578,174.000 368.712 C 173.450 368.786,172.400 369.121,171.668 369.457 C 170.935 369.793,170.230 369.963,170.101 369.834 C 169.972 369.705,170.122 369.585,170.433 369.568 C 170.745 369.550,170.482 369.306,169.848 369.026 L 168.697 368.518 169.637 367.859 C 170.843 367.015,172.112 367.024,173.720 367.889 M231.829 367.648 C 232.506 368.742,232.330 370.391,231.579 369.989 C 231.025 369.692,230.816 369.765,230.675 370.301 C 230.564 370.729,230.475 370.572,230.446 369.898 C 230.401 368.816,230.357 368.797,227.986 368.851 C 226.658 368.881,225.458 368.792,225.319 368.653 C 225.180 368.514,225.862 368.394,226.833 368.386 C 227.805 368.378,229.050 368.114,229.600 367.800 C 230.821 367.102,231.465 367.058,231.829 367.648 M185.220 370.610 C 186.700 371.376,186.734 371.988,185.300 372.040 L 184.200 372.080 185.200 372.400 C 186.128 372.697,185.665 372.981,184.500 372.830 C 184.225 372.794,184.000 372.914,184.000 373.097 C 184.000 373.279,183.633 373.429,183.183 373.429 C 182.397 373.429,182.401 373.401,183.283 372.687 L 184.200 371.946 183.300 372.387 C 182.805 372.630,182.394 372.687,182.387 372.514 C 182.380 372.341,182.143 372.504,181.861 372.876 C 181.382 373.506,181.266 373.496,180.173 372.734 C 179.528 372.284,179.335 372.027,179.745 372.162 C 180.297 372.346,180.429 372.253,180.257 371.805 C 179.574 370.025,182.655 369.284,185.220 370.610 M220.223 370.567 C 220.650 370.879,220.866 371.268,220.703 371.430 C 220.540 371.593,220.572 371.925,220.774 372.169 C 221.032 372.480,220.707 372.591,219.677 372.542 C 218.381 372.481,218.294 372.533,218.926 372.996 C 219.583 373.476,219.561 373.513,218.659 373.459 C 218.119 373.427,217.779 373.234,217.904 373.032 C 218.029 372.830,217.837 372.777,217.478 372.915 C 217.119 373.052,216.728 373.007,216.608 372.813 C 216.488 372.619,216.707 372.378,217.095 372.277 C 217.582 372.150,217.491 372.077,216.800 372.041 C 215.345 371.965,214.000 371.555,214.000 371.187 C 214.000 370.143,218.967 369.649,220.223 370.567 M285.300 473.100 C 239.265 473.156,163.935 473.156,117.900 473.100 C 71.865 473.044,109.530 472.998,201.600 472.998 C 293.670 472.998,331.335 473.044,285.300 473.100 M25.699 502.100 C 25.644 514.915,25.552 531.160,25.494 538.200 C 25.436 545.240,25.346 534.755,25.294 514.900 C 25.242 495.045,25.335 478.800,25.500 478.800 C 25.665 478.800,25.755 489.285,25.699 502.100 M368.800 514.555 L 368.800 550.311 367.423 550.569 C 365.965 550.843,365.356 551.801,365.783 553.148 C 365.971 553.739,365.766 553.947,364.802 554.140 C 363.877 554.325,363.530 554.650,363.361 555.492 C 363.197 556.314,362.889 556.615,362.168 556.658 C 360.462 556.759,360.000 557.127,360.000 558.387 L 360.000 559.600 200.200 559.600 L 40.400 559.600 40.400 558.424 C 40.400 557.095,39.857 556.600,38.400 556.600 C 37.533 556.600,37.383 556.400,37.276 555.100 C 37.158 553.681,37.077 553.600,35.776 553.600 L 34.400 553.600 34.400 517.600 L 34.400 481.600 200.920 481.600 C 329.902 481.600,367.548 481.492,367.920 481.120 C 368.184 480.856,368.400 480.226,368.400 479.720 C 368.400 479.214,368.490 478.800,368.600 478.800 C 368.710 478.800,368.800 494.890,368.800 514.555 M167.838 501.958 C 166.912 502.981,167.007 504.400,168.000 504.400 C 168.444 504.400,168.800 504.667,168.800 505.000 C 168.800 505.333,168.444 505.600,168.000 505.600 C 167.556 505.600,167.200 505.333,167.200 505.000 C 167.200 504.139,165.465 504.244,164.641 505.155 C 163.992 505.871,164.009 505.949,164.979 506.712 C 166.498 507.907,166.066 509.400,164.200 509.400 C 163.633 509.400,163.409 509.657,163.430 510.280 C 163.446 510.764,163.320 511.074,163.151 510.970 C 162.981 510.865,162.844 513.525,162.846 516.881 C 162.850 523.371,162.913 523.583,164.844 523.594 C 165.791 523.599,165.878 523.730,165.777 525.000 C 165.716 525.770,165.831 526.423,166.033 526.450 C 166.235 526.477,166.580 526.545,166.800 526.600 C 167.020 526.655,167.560 526.723,168.000 526.750 C 168.638 526.790,168.800 527.083,168.800 528.200 C 168.800 529.568,168.837 529.600,170.410 529.600 C 171.728 529.600,172.084 529.769,172.374 530.532 C 173.171 532.629,174.641 532.783,192.915 532.687 C 210.956 532.593,210.379 532.665,210.394 530.500 C 210.399 529.758,210.628 529.596,211.700 529.574 C 216.114 529.488,216.119 529.484,216.327 526.206 L 216.490 523.643 217.945 523.521 L 219.400 523.400 219.478 516.800 C 219.571 508.852,219.560 508.800,217.773 508.800 C 216.472 508.800,216.400 508.727,216.400 507.408 C 216.400 506.005,215.115 505.111,214.047 505.771 C 213.817 505.913,213.597 505.382,213.525 504.508 L 213.400 503.000 206.815 502.890 C 200.797 502.789,200.154 502.708,199.351 501.954 L 198.472 501.128 197.636 501.964 C 196.439 503.161,191.585 503.185,190.400 502.000 C 189.736 501.336,189.067 501.200,186.462 501.200 C 183.832 501.200,183.207 501.330,182.600 502.000 C 181.658 503.041,170.147 503.248,169.757 502.231 C 169.407 501.321,168.528 501.196,167.838 501.958 M172.000 516.067 C 172.000 518.743,171.908 520.841,171.795 520.728 C 171.430 520.363,171.435 511.200,171.800 511.200 C 171.910 511.200,172.000 513.390,172.000 516.067 M197.323 529.898 C 194.860 529.968,190.720 529.969,188.123 529.899 C 185.525 529.829,187.540 529.772,192.600 529.772 C 197.660 529.771,199.785 529.828,197.323 529.898 M5.230 556.181 C 5.434 556.056,5.600 556.143,5.600 556.376 C 5.600 556.609,5.330 556.800,5.000 556.800 C 4.631 556.800,4.418 556.454,4.446 555.900 C 4.482 555.215,4.537 555.168,4.677 555.705 C 4.778 556.093,5.027 556.307,5.230 556.181 M11.143 560.057 C 10.624 560.456,10.020 560.783,9.800 560.785 C 9.580 560.787,9.670 560.613,10.000 560.400 C 10.476 560.092,10.393 560.010,9.600 560.000 C 8.807 559.990,8.724 559.908,9.200 559.600 C 9.570 559.361,9.615 559.210,9.318 559.206 C 9.020 559.202,9.173 558.686,9.718 557.850 L 10.600 556.500 11.343 557.916 L 12.086 559.331 11.143 560.057 M389.846 561.775 C 389.974 562.109,390.345 562.251,390.733 562.113 C 391.263 561.926,391.236 562.042,390.600 562.679 C 389.518 563.763,387.775 563.150,388.525 561.949 C 389.084 561.053,389.545 560.992,389.846 561.775 M14.196 565.853 C 13.705 566.211,13.357 566.271,13.270 566.011 C 13.194 565.782,13.006 565.673,12.852 565.768 C 12.697 565.863,12.571 565.607,12.571 565.199 C 12.571 564.791,12.754 564.489,12.976 564.529 C 13.199 564.568,13.452 564.150,13.539 563.600 C 13.693 562.622,13.711 562.630,14.339 563.939 C 14.948 565.208,14.941 565.308,14.196 565.853 M277.067 568.700 C 234.645 568.756,165.345 568.756,123.067 568.700 C 80.790 568.644,115.500 568.598,200.200 568.598 C 284.900 568.598,319.490 568.644,277.067 568.700 M384.149 571.697 C 383.940 572.045,384.056 572.030,384.523 571.651 C 384.964 571.293,385.200 571.258,385.200 571.551 C 385.200 571.798,385.065 572.014,384.900 572.031 C 384.735 572.047,384.293 572.120,383.917 572.193 C 382.906 572.387,382.172 571.357,382.791 570.611 C 383.404 569.872,384.648 570.866,384.149 571.697 M381.382 573.917 C 382.117 574.789,382.118 574.820,381.412 574.549 C 380.918 574.360,380.760 574.412,380.941 574.704 C 381.091 574.947,380.985 575.276,380.707 575.436 C 380.428 575.597,380.332 575.582,380.494 575.404 C 380.655 575.225,380.482 574.856,380.109 574.583 C 379.531 574.160,379.511 573.990,379.972 573.434 C 380.270 573.074,380.535 572.830,380.561 572.890 C 380.587 572.951,380.957 573.413,381.382 573.917 M377.872 577.831 C 377.911 578.474,377.853 578.685,377.742 578.300 C 377.632 577.915,377.172 577.600,376.722 577.600 C 376.031 577.600,375.982 577.504,376.411 576.987 C 377.143 576.105,377.789 576.478,377.872 577.831 " stroke="none" fill="#1c64fc" fill-rule="evenodd"></path><path id="path1" d="M123.133 4.700 C 165.885 4.756,235.725 4.756,278.333 4.700 C 320.940 4.644,285.960 4.598,200.600 4.598 C 115.240 4.598,80.380 4.644,123.133 4.700 M386.276 27.876 C 386.153 28.075,386.198 28.474,386.376 28.762 C 386.554 29.050,386.801 29.123,386.924 28.924 C 387.047 28.725,387.002 28.326,386.824 28.038 C 386.646 27.750,386.399 27.677,386.276 27.876 M13.200 31.400 C 13.200 31.730,13.380 32.000,13.600 32.000 C 13.820 32.000,14.000 31.730,14.000 31.400 C 14.000 31.070,13.820 30.800,13.600 30.800 C 13.380 30.800,13.200 31.070,13.200 31.400 M199.700 159.887 C 200.305 159.978,201.295 159.978,201.900 159.887 C 202.505 159.795,202.010 159.720,200.800 159.720 C 199.590 159.720,199.095 159.795,199.700 159.887 M190.300 168.682 C 190.795 168.778,191.605 168.778,192.100 168.682 C 192.595 168.587,192.190 168.509,191.200 168.509 C 190.210 168.509,189.805 168.587,190.300 168.682 M211.100 168.682 C 211.595 168.778,212.405 168.778,212.900 168.682 C 213.395 168.587,212.990 168.509,212.000 168.509 C 211.010 168.509,210.605 168.587,211.100 168.682 M195.000 186.396 L 192.200 186.659 194.467 186.729 C 197.337 186.819,198.508 187.191,197.371 187.652 C 196.933 187.830,197.335 187.864,198.300 187.731 C 199.342 187.588,200.000 187.656,200.000 187.906 C 200.000 188.131,200.279 188.422,200.621 188.553 C 201.023 188.707,201.142 188.630,200.958 188.332 C 200.766 188.021,200.951 187.946,201.537 188.100 C 202.012 188.224,202.400 188.198,202.400 188.043 C 202.400 187.425,205.214 186.800,207.995 186.800 C 213.099 186.800,210.856 186.517,204.200 186.322 C 200.680 186.218,196.540 186.252,195.000 186.396 M207.079 192.680 C 206.120 192.928,206.948 194.000,208.098 194.000 C 208.739 194.000,208.805 193.889,208.432 193.439 C 208.075 193.008,208.087 192.830,208.483 192.670 C 209.144 192.406,208.110 192.412,207.079 192.680 M173.006 195.590 C 172.892 195.774,173.134 195.838,173.544 195.730 C 174.006 195.610,174.389 195.793,174.550 196.213 C 174.760 196.761,174.922 196.796,175.400 196.400 C 175.725 196.130,175.910 195.777,175.810 195.616 C 175.555 195.204,173.258 195.183,173.006 195.590 M281.931 247.600 C 281.848 248.480,281.919 249.200,282.089 249.200 C 282.260 249.200,282.400 248.480,282.400 247.600 C 282.400 246.720,282.329 246.000,282.242 246.000 C 282.155 246.000,282.015 246.720,281.931 247.600 M117.600 255.557 C 117.600 256.633,117.803 257.192,118.257 257.367 C 119.161 257.713,119.346 257.419,118.610 256.808 C 118.274 256.530,118.000 256.122,118.000 255.902 C 118.000 255.656,118.206 255.673,118.533 255.944 C 118.952 256.292,119.044 256.196,118.966 255.493 C 118.911 255.002,118.852 254.465,118.833 254.300 C 118.700 253.097,117.600 254.218,117.600 255.557 M302.814 270.313 C 302.827 281.515,302.895 282.883,303.400 282.000 C 304.076 280.818,304.255 279.387,303.600 280.400 C 303.286 280.885,303.211 280.828,303.206 280.100 C 303.203 279.605,303.380 279.200,303.600 279.200 C 303.820 279.200,303.976 278.525,303.947 277.700 L 303.895 276.200 303.600 277.600 C 303.438 278.370,303.284 274.680,303.259 269.400 C 303.233 264.120,303.353 260.022,303.526 260.294 C 303.713 260.588,303.840 260.228,303.840 259.406 C 303.840 258.641,303.608 257.935,303.320 257.825 C 302.900 257.663,302.803 260.062,302.814 270.313 M284.812 259.871 C 284.805 260.351,284.517 261.026,284.171 261.371 C 283.598 261.945,283.709 262.172,284.500 262.047 C 285.006 261.967,284.832 262.813,284.300 263.018 C 283.636 263.274,283.372 268.440,283.749 273.800 C 283.974 277.007,284.006 277.127,284.374 276.200 C 284.604 275.623,284.682 275.865,284.654 277.067 C 284.632 277.995,284.449 278.630,284.240 278.501 C 284.015 278.362,283.994 278.576,284.188 279.034 C 284.367 279.455,284.532 280.190,284.556 280.667 C 284.626 282.044,285.133 282.200,285.469 280.947 C 285.996 278.985,285.855 260.712,285.306 259.800 C 284.833 259.014,284.824 259.015,284.812 259.871 M147.431 273.430 C 147.794 274.939,147.856 274.994,148.108 274.031 C 148.224 273.585,148.058 273.014,147.734 272.745 C 147.236 272.332,147.191 272.434,147.431 273.430 M117.600 285.843 C 117.600 286.563,117.780 287.264,118.000 287.400 C 118.220 287.536,118.400 287.446,118.400 287.200 C 118.400 286.954,118.598 286.875,118.840 287.025 C 119.147 287.214,119.141 287.038,118.822 286.442 C 118.428 285.705,118.491 285.536,119.282 285.219 C 119.787 285.016,120.020 284.824,119.800 284.792 C 117.655 284.477,117.600 284.504,117.600 285.843 M177.454 284.713 C 177.343 284.892,177.396 285.270,177.571 285.553 C 177.819 285.954,177.941 285.931,178.127 285.446 C 178.379 284.790,177.798 284.157,177.454 284.713 M99.716 288.361 C 99.762 289.000,99.935 289.439,100.100 289.337 C 100.540 289.067,100.467 287.200,100.016 287.200 C 99.805 287.200,99.670 287.722,99.716 288.361 M180.239 287.538 C 180.100 287.761,180.182 288.065,180.420 288.212 C 181.035 288.593,181.432 288.072,180.918 287.558 C 180.631 287.271,180.407 287.264,180.239 287.538 M281.764 293.748 C 281.447 294.098,281.465 294.358,281.828 294.697 C 282.213 295.057,282.385 295.015,282.577 294.515 C 282.901 293.670,282.326 293.128,281.764 293.748 M270.000 308.171 C 270.000 308.485,269.685 308.824,269.300 308.924 C 268.773 309.062,268.823 309.119,269.500 309.154 C 270.149 309.187,270.400 308.977,270.400 308.400 C 270.400 307.960,270.310 307.600,270.200 307.600 C 270.090 307.600,270.000 307.857,270.000 308.171 M191.380 323.639 C 190.714 323.899,190.757 323.948,191.676 323.972 C 192.268 323.987,192.845 323.850,192.959 323.667 C 193.216 323.250,192.410 323.236,191.380 323.639 M190.100 347.876 C 190.485 347.976,191.115 347.976,191.500 347.876 C 191.885 347.775,191.570 347.693,190.800 347.693 C 190.030 347.693,189.715 347.775,190.100 347.876 M210.100 347.876 C 210.485 347.976,211.115 347.976,211.500 347.876 C 211.885 347.775,211.570 347.693,210.800 347.693 C 210.030 347.693,209.715 347.775,210.100 347.876 M215.734 352.629 C 215.614 352.940,215.355 353.096,215.158 352.974 C 214.961 352.852,214.800 353.030,214.800 353.369 C 214.800 354.275,216.447 354.533,218.446 353.940 L 220.200 353.420 218.692 353.285 C 217.862 353.211,217.275 353.002,217.387 352.821 C 217.499 352.639,217.222 352.394,216.771 352.277 C 216.272 352.146,215.866 352.284,215.734 352.629 M184.815 353.187 C 183.999 353.895,184.001 353.900,185.247 354.149 C 187.120 354.524,187.267 354.476,187.128 353.536 C 186.965 352.435,185.872 352.271,184.815 353.187 M162.860 365.580 C 162.948 365.844,163.151 366.047,163.310 366.030 C 163.788 365.981,163.696 365.432,163.180 365.260 C 162.916 365.172,162.772 365.316,162.860 365.580 M171.308 368.337 C 171.028 368.513,171.061 368.760,171.409 369.083 C 171.817 369.462,172.026 369.450,172.375 369.030 C 172.883 368.418,172.045 367.875,171.308 368.337 M230.466 368.350 C 230.041 368.620,230.068 368.740,230.599 368.944 C 231.634 369.341,232.000 369.252,232.000 368.600 C 232.000 367.940,231.296 367.825,230.466 368.350 M180.471 371.865 C 180.626 372.663,182.678 372.864,183.391 372.152 C 183.655 371.888,184.304 371.591,184.835 371.491 C 185.366 371.391,184.572 371.284,183.071 371.254 C 180.724 371.208,180.359 371.293,180.471 371.865 M217.873 371.959 C 217.989 372.401,218.350 372.665,218.736 372.590 C 219.101 372.519,219.535 372.447,219.700 372.431 C 220.652 372.333,219.857 371.200,218.837 371.200 C 217.893 371.200,217.712 371.342,217.873 371.959 M398.331 548.500 C 398.070 549.949,398.402 550.800,399.229 550.800 C 399.862 550.800,400.000 550.513,400.000 549.200 C 400.000 547.365,398.638 546.794,398.331 548.500 M4.200 558.400 C 4.064 558.620,4.075 558.998,4.225 559.240 C 4.416 559.549,4.244 559.545,3.648 559.226 C 2.653 558.693,2.511 559.262,3.445 560.037 C 3.799 560.331,4.241 560.938,4.425 561.386 C 4.662 561.960,4.748 561.580,4.717 560.100 C 4.671 557.920,4.614 557.730,4.200 558.400 M12.835 565.358 C 12.458 565.812,12.467 565.919,12.878 565.859 C 13.430 565.778,13.787 565.253,13.490 564.957 C 13.393 564.860,13.098 565.041,12.835 565.358 M383.070 571.361 C 382.952 571.669,382.961 572.028,383.091 572.157 C 383.373 572.440,384.400 571.650,384.400 571.151 C 384.400 570.579,383.304 570.752,383.070 571.361 " stroke="none" fill="#1c6cfc" fill-rule="evenodd"></path><path id="path2" d="M187.700 347.876 C 188.085 347.976,188.715 347.976,189.100 347.876 C 189.485 347.775,189.170 347.693,188.400 347.693 C 187.630 347.693,187.315 347.775,187.700 347.876 " stroke="none" fill="#246cfc" fill-rule="evenodd"></path><path id="path3" d="M121.500 10.700 C 164.675 10.756,235.325 10.756,278.500 10.700 C 321.675 10.644,286.350 10.598,200.000 10.598 C 113.650 10.598,78.325 10.644,121.500 10.700 M34.201 12.404 C 34.283 12.833,34.190 13.283,33.993 13.404 C 32.533 14.307,34.792 15.109,36.354 14.243 L 37.308 13.714 36.238 13.445 C 35.649 13.297,35.253 13.038,35.358 12.868 C 35.463 12.699,35.211 12.350,34.799 12.093 C 34.155 11.690,34.072 11.734,34.201 12.404 M374.400 15.195 C 374.400 15.444,374.216 15.533,373.990 15.394 C 373.765 15.255,373.630 15.379,373.690 15.670 C 373.757 15.992,373.447 16.188,372.900 16.168 C 371.637 16.124,371.780 16.666,373.229 17.415 C 374.743 18.198,375.994 17.568,375.105 16.470 C 374.708 15.979,374.707 15.910,375.100 16.147 C 375.789 16.561,375.728 16.071,375.000 15.343 C 374.641 14.984,374.400 14.924,374.400 15.195 M28.403 16.789 C 27.981 17.056,27.931 17.291,28.233 17.593 C 28.534 17.894,28.873 17.782,29.391 17.209 C 30.189 16.329,29.557 16.060,28.403 16.789 M378.060 18.527 C 377.811 18.828,377.740 19.207,377.903 19.369 C 378.065 19.532,377.659 19.533,376.999 19.373 L 375.800 19.080 376.562 19.940 C 377.579 21.088,377.842 21.029,378.363 19.535 C 378.858 18.113,378.738 17.711,378.060 18.527 M382.889 25.018 C 382.062 25.442,382.038 25.534,382.630 26.025 C 383.590 26.822,384.207 26.801,384.735 25.955 C 385.052 25.447,385.067 25.200,384.780 25.200 C 384.545 25.200,384.445 25.050,384.559 24.867 C 384.853 24.391,383.957 24.472,382.889 25.018 M10.501 39.000 C 10.505 39.880,10.587 40.193,10.683 39.695 C 10.779 39.198,10.775 38.478,10.675 38.095 C 10.575 37.713,10.496 38.120,10.501 39.000 M392.599 298.600 C 392.599 440.720,392.644 498.800,392.700 427.667 C 392.756 356.534,392.756 240.254,392.700 169.267 C 392.644 98.280,392.599 156.480,392.599 298.600 M25.200 249.400 C 25.200 361.123,25.290 452.443,25.401 452.333 C 25.663 452.070,25.663 46.730,25.401 46.467 C 25.290 46.357,25.200 137.677,25.200 249.400 M153.761 76.400 C 153.761 79.810,153.822 81.205,153.897 79.500 C 153.972 77.795,153.972 75.005,153.897 73.300 C 153.822 71.595,153.761 72.990,153.761 76.400 M197.900 167.482 C 198.395 167.578,199.205 167.578,199.700 167.482 C 200.195 167.387,199.790 167.309,198.800 167.309 C 197.810 167.309,197.405 167.387,197.900 167.482 M187.100 168.682 C 187.595 168.778,188.405 168.778,188.900 168.682 C 189.395 168.587,188.990 168.509,188.000 168.509 C 187.010 168.509,186.605 168.587,187.100 168.682 M197.100 168.699 C 199.575 168.769,203.625 168.769,206.100 168.699 C 208.575 168.628,206.550 168.571,201.600 168.571 C 196.650 168.571,194.625 168.628,197.100 168.699 M166.300 174.682 C 166.795 174.778,167.605 174.778,168.100 174.682 C 168.595 174.587,168.190 174.509,167.200 174.509 C 166.210 174.509,165.805 174.587,166.300 174.682 M194.500 185.396 C 192.587 186.228,192.506 186.218,201.600 186.285 C 206.220 186.319,210.000 186.260,210.000 186.153 C 210.000 184.816,197.266 184.194,194.500 185.396 M185.700 186.696 C 186.965 186.775,189.035 186.775,190.300 186.696 C 191.565 186.616,190.530 186.551,188.000 186.551 C 185.470 186.551,184.435 186.616,185.700 186.696 M212.311 186.693 C 213.251 186.778,214.691 186.777,215.511 186.691 C 216.330 186.605,215.560 186.536,213.800 186.537 C 212.040 186.539,211.370 186.609,212.311 186.693 M195.600 187.586 C 194.676 187.895,194.666 187.923,195.467 187.960 C 195.944 187.982,196.664 188.107,197.067 188.238 C 197.677 188.435,197.699 188.403,197.200 188.044 C 196.681 187.671,196.695 187.611,197.300 187.606 C 197.931 187.601,198.185 188.045,198.045 188.908 C 198.017 189.078,198.491 189.098,199.097 188.952 C 200.643 188.581,200.723 188.406,199.367 188.360 C 198.207 188.321,198.206 188.318,199.200 188.000 C 199.770 187.817,199.920 187.663,199.550 187.640 C 199.192 187.618,198.383 187.522,197.750 187.426 C 197.118 187.330,196.150 187.402,195.600 187.586 M203.400 187.600 C 203.247 187.847,203.890 187.989,205.076 187.972 C 206.519 187.951,206.800 187.858,206.200 187.600 C 205.088 187.122,203.695 187.122,203.400 187.600 M108.909 226.800 C 108.909 227.790,108.987 228.195,109.082 227.700 C 109.178 227.205,109.178 226.395,109.082 225.900 C 108.987 225.405,108.909 225.810,108.909 226.800 M294.109 230.000 C 294.109 230.990,294.187 231.395,294.282 230.900 C 294.378 230.405,294.378 229.595,294.282 229.100 C 294.187 228.605,294.109 229.010,294.109 230.000 M102.940 243.200 C 102.940 245.070,103.009 245.835,103.093 244.900 C 103.177 243.965,103.177 242.435,103.093 241.500 C 103.009 240.565,102.940 241.330,102.940 243.200 M120.286 241.162 C 119.388 242.683,119.420 243.475,120.400 244.000 C 120.942 244.290,121.200 244.295,121.200 244.014 C 121.200 243.786,121.335 243.621,121.500 243.647 C 122.264 243.768,122.667 243.552,122.667 243.022 C 122.667 242.704,122.562 242.456,122.433 242.470 C 121.372 242.584,121.123 242.309,121.285 241.200 C 121.507 239.686,121.166 239.673,120.286 241.162 M249.900 240.282 C 250.395 240.378,251.205 240.378,251.700 240.282 C 252.195 240.187,251.790 240.109,250.800 240.109 C 249.810 240.109,249.405 240.187,249.900 240.282 M282.101 244.600 C 282.105 245.480,282.187 245.793,282.283 245.295 C 282.379 244.798,282.375 244.078,282.275 243.695 C 282.175 243.313,282.096 243.720,282.101 244.600 M282.400 248.000 C 282.400 249.184,281.818 249.653,281.507 248.720 C 281.385 248.355,281.277 248.352,281.057 248.708 C 280.874 249.004,281.151 249.273,281.813 249.439 C 283.215 249.791,283.736 249.210,283.225 247.865 C 282.694 246.468,282.400 246.516,282.400 248.000 M99.781 250.030 C 99.262 250.871,100.007 254.892,100.592 254.406 C 101.481 253.669,101.660 252.076,100.998 250.797 C 100.319 249.483,100.175 249.392,99.781 250.030 M98.217 251.572 C 97.944 252.014,98.575 252.492,98.944 252.122 C 99.325 251.742,99.254 251.200,98.824 251.200 C 98.617 251.200,98.344 251.368,98.217 251.572 M117.214 253.174 C 116.629 254.267,116.700 256.511,117.348 257.397 C 117.832 258.058,117.873 257.902,117.697 256.073 C 117.564 254.684,117.647 254.000,117.949 254.000 C 118.197 254.000,118.400 253.640,118.400 253.200 C 118.400 252.182,117.753 252.168,117.214 253.174 M118.694 254.639 C 118.563 254.771,118.563 255.160,118.696 255.505 C 118.854 255.918,118.777 256.033,118.468 255.842 C 118.211 255.683,118.000 255.743,118.000 255.976 C 118.000 256.486,118.408 256.510,119.143 256.044 C 119.527 255.800,119.554 255.619,119.236 255.422 C 118.989 255.270,118.891 254.977,119.017 254.772 C 119.274 254.357,119.064 254.270,118.694 254.639 M302.012 257.578 C 301.392 258.737,301.524 267.156,302.186 268.600 C 302.681 269.683,302.738 269.203,302.768 263.700 C 302.801 257.425,303.121 256.391,304.282 258.800 C 304.700 259.668,304.765 259.694,304.776 259.000 C 304.803 257.158,302.791 256.123,302.012 257.578 M285.000 258.600 C 285.730 261.684,286.109 270.204,285.763 275.762 C 285.563 278.974,285.507 281.601,285.637 281.601 C 286.778 281.597,287.377 263.417,286.337 260.360 C 285.647 258.331,284.615 256.973,285.000 258.600 M303.400 260.000 C 303.248 260.691,303.207 261.341,303.309 261.442 C 303.411 261.544,303.609 261.053,303.750 260.350 C 303.891 259.647,303.931 258.998,303.841 258.908 C 303.750 258.817,303.552 259.309,303.400 260.000 M114.961 270.000 C 114.961 273.410,115.022 274.805,115.097 273.100 C 115.172 271.395,115.172 268.605,115.097 266.900 C 115.022 265.195,114.961 266.590,114.961 270.000 M303.396 266.391 C 303.757 269.243,303.756 271.296,303.392 273.900 C 303.103 275.967,303.114 276.000,304.132 276.000 C 305.101 276.000,305.152 275.905,304.939 274.500 C 304.636 272.504,304.670 268.254,305.008 265.901 C 305.277 264.022,305.269 264.003,304.198 264.092 C 303.126 264.181,303.118 264.201,303.396 266.391 M302.100 271.729 C 301.272 273.566,301.424 282.117,302.300 282.911 C 302.997 283.542,303.131 279.877,302.691 272.210 L 302.600 270.620 302.100 271.729 M147.902 272.900 C 148.129 273.185,148.162 273.744,147.979 274.200 C 147.801 274.640,147.674 275.900,147.695 277.000 C 147.730 278.796,147.751 278.839,147.896 277.427 C 147.984 276.562,148.314 275.487,148.629 275.038 C 149.380 273.965,149.354 272.945,148.567 272.643 C 147.624 272.281,147.458 272.345,147.902 272.900 M146.566 273.255 C 146.373 273.567,146.451 273.616,146.797 273.402 C 147.196 273.155,147.253 273.334,147.042 274.174 C 146.863 274.890,146.912 275.178,147.184 275.010 C 147.701 274.690,147.731 273.328,147.228 273.017 C 147.023 272.891,146.725 272.998,146.566 273.255 M303.654 281.440 C 303.388 282.025,303.263 282.596,303.376 282.710 C 303.490 282.823,303.755 282.485,303.966 281.958 C 304.177 281.431,304.361 281.237,304.375 281.526 C 304.389 281.816,304.191 282.446,303.935 282.926 C 303.514 283.716,303.533 283.747,304.135 283.251 C 304.851 282.660,304.984 281.709,304.463 280.889 C 304.229 280.520,304.004 280.674,303.654 281.440 M117.123 283.534 C 116.487 284.950,116.586 286.525,117.352 287.160 C 117.694 287.444,117.776 287.131,117.666 285.969 C 117.532 284.571,117.599 284.424,118.258 284.671 C 118.863 284.898,118.916 284.844,118.543 284.375 C 118.292 284.059,118.004 283.440,117.904 283.000 C 117.750 282.322,117.631 282.403,117.123 283.534 M98.800 286.347 C 98.800 287.148,98.570 287.602,98.100 287.724 C 97.669 287.837,97.823 287.925,98.500 287.954 C 99.642 288.002,100.188 286.011,99.200 285.400 C 98.967 285.256,98.800 285.653,98.800 286.347 M100.205 286.925 C 100.371 288.199,100.290 289.050,99.965 289.442 C 99.616 289.863,99.598 290.158,99.903 290.463 C 100.486 291.046,101.740 288.610,101.450 287.457 C 100.909 285.303,99.939 284.889,100.205 286.925 M282.000 292.733 C 282.000 292.902,282.197 293.237,282.437 293.477 C 282.753 293.793,282.746 294.153,282.412 294.778 C 282.158 295.253,282.006 296.037,282.075 296.521 C 282.182 297.273,282.305 297.181,282.924 295.890 C 283.689 294.293,283.556 293.022,282.585 292.650 C 282.263 292.526,282.000 292.563,282.000 292.733 M102.909 298.400 C 102.909 299.390,102.987 299.795,103.082 299.300 C 103.178 298.805,103.178 297.995,103.082 297.500 C 102.987 297.005,102.909 297.410,102.909 298.400 M120.901 298.600 C 120.905 299.480,120.987 299.793,121.083 299.295 C 121.179 298.798,121.175 298.078,121.075 297.695 C 120.975 297.313,120.896 297.720,120.901 298.600 M187.200 317.847 C 189.554 318.146,192.801 318.177,192.801 317.900 C 192.800 317.735,191.315 317.627,189.500 317.660 C 187.685 317.693,186.650 317.777,187.200 317.847 M235.800 347.600 L 234.200 347.886 235.900 347.943 C 236.835 347.974,237.600 347.820,237.600 347.600 C 237.600 347.380,237.555 347.226,237.500 347.257 C 237.445 347.288,236.680 347.442,235.800 347.600 M228.846 349.100 C 228.821 349.375,228.549 349.600,228.243 349.600 C 227.567 349.600,227.140 350.577,227.455 351.400 C 227.749 352.166,229.219 352.173,230.224 351.413 C 230.970 350.848,230.971 350.825,230.251 350.813 C 229.652 350.803,229.596 350.687,229.970 350.236 C 230.329 349.803,230.326 349.602,229.958 349.374 C 229.653 349.185,229.581 349.245,229.762 349.538 C 229.919 349.792,229.870 350.000,229.653 350.000 C 229.436 350.000,229.176 349.685,229.076 349.300 C 228.975 348.915,228.872 348.825,228.846 349.100 M186.720 352.480 C 187.745 353.505,187.303 354.521,185.950 354.250 C 185.263 354.113,184.498 353.997,184.250 353.994 C 184.003 353.991,184.070 353.803,184.400 353.577 C 184.826 353.286,184.420 353.245,183.000 353.435 C 180.443 353.777,180.377 353.864,182.126 354.595 C 185.572 356.035,189.912 354.152,187.400 352.306 C 186.743 351.823,186.202 351.962,186.720 352.480 M214.600 352.306 C 212.677 353.719,215.704 355.846,217.879 354.611 L 219.000 353.974 217.709 354.217 C 216.098 354.520,214.800 354.133,214.800 353.349 C 214.800 353.021,214.978 352.863,215.195 352.997 C 215.422 353.137,215.489 352.977,215.353 352.621 C 215.078 351.906,215.121 351.924,214.600 352.306 M145.500 356.682 C 145.995 356.778,146.805 356.778,147.300 356.682 C 147.795 356.587,147.390 356.509,146.400 356.509 C 145.410 356.509,145.005 356.587,145.500 356.682 M196.100 356.698 C 198.245 356.770,201.755 356.770,203.900 356.698 C 206.045 356.626,204.290 356.567,200.000 356.567 C 195.710 356.567,193.955 356.626,196.100 356.698 M243.900 362.682 C 244.395 362.778,245.205 362.778,245.700 362.682 C 246.195 362.587,245.790 362.509,244.800 362.509 C 243.810 362.509,243.405 362.587,243.900 362.682 M162.178 364.835 C 162.031 365.074,162.110 365.470,162.355 365.715 C 162.682 366.042,162.800 366.039,162.800 365.705 C 162.800 365.410,163.327 365.322,164.300 365.453 C 165.714 365.645,165.756 365.620,165.024 365.028 C 164.129 364.304,162.572 364.198,162.178 364.835 M169.576 367.939 L 168.662 368.679 169.810 368.967 C 170.703 369.191,170.830 369.336,170.379 369.621 C 170.061 369.823,169.980 369.988,170.200 369.988 C 171.116 369.988,171.828 369.218,171.255 368.848 C 170.444 368.325,171.579 367.994,172.521 368.479 C 173.999 369.240,175.165 368.666,173.720 367.889 C 172.066 366.999,170.716 367.016,169.576 367.939 M229.600 367.800 C 229.050 368.114,227.805 368.378,226.833 368.386 C 225.862 368.394,225.180 368.513,225.318 368.651 C 226.075 369.408,232.251 368.330,231.755 367.527 C 231.463 367.055,230.744 367.146,229.600 367.800 M230.400 369.191 C 230.400 369.345,230.820 369.663,231.333 369.897 C 232.054 370.225,232.267 370.202,232.267 369.795 C 232.267 369.505,231.847 369.187,231.333 369.089 C 230.820 368.991,230.400 369.037,230.400 369.191 M180.243 370.633 C 180.109 370.981,180.000 371.296,179.999 371.333 C 179.999 371.370,181.304 371.368,182.899 371.329 C 184.998 371.277,185.468 371.347,184.600 371.581 C 183.940 371.760,183.580 371.931,183.800 371.962 C 184.020 371.992,183.788 372.335,183.283 372.723 C 182.403 373.401,182.399 373.429,183.183 373.429 C 183.633 373.429,184.000 373.279,184.000 373.097 C 184.000 372.914,184.225 372.794,184.500 372.830 C 185.665 372.981,186.128 372.697,185.200 372.400 L 184.200 372.080 185.300 372.040 C 188.011 371.942,185.120 370.000,182.263 370.000 C 181.011 370.000,180.414 370.187,180.243 370.633 M215.100 370.465 C 213.253 371.139,214.073 371.900,216.800 372.041 C 217.491 372.077,217.582 372.150,217.095 372.277 C 216.707 372.378,216.488 372.619,216.608 372.813 C 216.728 373.007,217.119 373.052,217.478 372.915 C 217.837 372.777,218.029 372.830,217.904 373.032 C 217.779 373.234,218.154 373.424,218.738 373.453 C 219.747 373.504,219.757 373.487,218.935 373.108 C 217.504 372.448,217.440 371.200,218.837 371.200 C 219.564 371.200,220.000 371.409,220.000 371.757 C 220.000 372.064,220.295 372.428,220.657 372.566 C 221.175 372.765,221.218 372.704,220.860 372.272 C 220.611 371.972,220.540 371.593,220.703 371.430 C 221.777 370.356,217.443 369.609,215.100 370.465 M180.186 372.791 C 181.052 373.359,181.451 373.441,181.664 373.096 C 182.051 372.470,181.925 372.383,180.343 372.183 L 179.000 372.013 180.186 372.791 M117.900 473.100 C 163.935 473.156,239.265 473.156,285.300 473.100 C 331.335 473.044,293.670 472.998,201.600 472.998 C 109.530 472.998,71.865 473.044,117.900 473.100 M25.294 514.900 C 25.346 534.755,25.436 545.240,25.494 538.200 C 25.769 504.719,25.772 478.800,25.500 478.800 C 25.335 478.800,25.242 495.045,25.294 514.900 M171.555 513.100 C 171.469 516.691,171.590 520.523,171.795 520.728 C 171.908 520.841,172.000 518.743,172.000 516.067 C 172.000 511.432,171.650 509.100,171.555 513.100 M188.123 529.899 C 190.720 529.969,194.860 529.968,197.323 529.898 C 199.785 529.828,197.660 529.771,192.600 529.772 C 187.540 529.772,185.525 529.829,188.123 529.899 M4.446 555.900 C 4.418 556.454,4.631 556.800,5.000 556.800 C 5.330 556.800,5.600 556.609,5.600 556.376 C 5.600 556.143,5.434 556.056,5.230 556.181 C 5.027 556.307,4.778 556.093,4.677 555.705 C 4.537 555.168,4.482 555.215,4.446 555.900 M9.718 557.850 C 9.173 558.686,9.020 559.202,9.318 559.206 C 9.615 559.210,9.570 559.361,9.200 559.600 C 8.724 559.908,8.807 559.990,9.600 560.000 C 10.393 560.010,10.476 560.092,10.000 560.400 C 9.670 560.613,9.580 560.787,9.800 560.785 C 10.020 560.783,10.624 560.456,11.143 560.057 L 12.086 559.331 11.343 557.916 L 10.600 556.500 9.718 557.850 M388.525 561.949 C 387.775 563.150,389.518 563.763,390.600 562.679 C 391.236 562.042,391.263 561.926,390.733 562.113 C 390.345 562.251,389.974 562.109,389.846 561.775 C 389.545 560.992,389.084 561.053,388.525 561.949 M13.530 563.613 C 13.436 564.233,13.162 564.550,12.791 564.467 C 12.466 564.393,12.350 564.483,12.533 564.667 C 12.717 564.850,13.032 565.023,13.233 565.050 C 13.435 565.077,13.712 565.123,13.849 565.150 C 13.986 565.178,13.851 565.499,13.549 565.865 C 13.051 566.469,13.084 566.486,13.900 566.051 C 14.930 565.503,14.996 565.005,14.225 563.613 L 13.678 562.626 13.530 563.613 M123.067 568.700 C 165.345 568.756,234.645 568.756,277.067 568.700 C 319.490 568.644,284.900 568.598,200.200 568.598 C 115.500 568.598,80.790 568.644,123.067 568.700 M382.873 570.487 C 382.313 571.047,382.255 571.600,382.757 571.600 C 383.124 571.600,383.727 570.394,383.483 570.149 C 383.408 570.075,383.134 570.226,382.873 570.487 M379.994 573.407 C 379.600 573.882,379.586 574.146,379.937 574.497 C 380.288 574.848,380.400 574.840,380.400 574.466 C 380.400 574.080,380.598 574.076,381.300 574.444 L 382.200 574.916 381.404 573.958 C 380.967 573.431,380.587 572.951,380.561 572.890 C 380.535 572.830,380.280 573.063,379.994 573.407 M376.362 577.046 C 375.898 577.605,375.927 577.673,376.580 577.546 C 376.994 577.466,377.409 577.175,377.500 576.900 C 377.738 576.186,376.996 576.282,376.362 577.046 " stroke="none" fill="#2064fc" fill-rule="evenodd"></path><path id="path4" d="M121.500 10.700 C 164.675 10.756,235.325 10.756,278.500 10.700 C 321.675 10.644,286.350 10.598,200.000 10.598 C 113.650 10.598,78.325 10.644,121.500 10.700 M34.201 12.404 C 34.283 12.833,34.190 13.283,33.993 13.404 C 32.533 14.307,34.792 15.109,36.354 14.243 L 37.308 13.714 36.238 13.445 C 35.649 13.297,35.253 13.038,35.358 12.868 C 35.463 12.699,35.211 12.350,34.799 12.093 C 34.155 11.690,34.072 11.734,34.201 12.404 M374.400 15.195 C 374.400 15.444,374.216 15.533,373.990 15.394 C 373.765 15.255,373.630 15.379,373.690 15.670 C 373.757 15.992,373.447 16.188,372.900 16.168 C 371.637 16.124,371.780 16.666,373.229 17.415 C 374.743 18.198,375.994 17.568,375.105 16.470 C 374.708 15.979,374.707 15.910,375.100 16.147 C 375.789 16.561,375.728 16.071,375.000 15.343 C 374.641 14.984,374.400 14.924,374.400 15.195 M28.403 16.789 C 27.981 17.056,27.931 17.291,28.233 17.593 C 28.534 17.894,28.873 17.782,29.391 17.209 C 30.189 16.329,29.557 16.060,28.403 16.789 M378.060 18.527 C 377.811 18.828,377.740 19.207,377.903 19.369 C 378.065 19.532,377.659 19.533,376.999 19.373 L 375.800 19.080 376.562 19.940 C 377.579 21.088,377.842 21.029,378.363 19.535 C 378.858 18.113,378.738 17.711,378.060 18.527 M382.889 25.018 C 382.062 25.442,382.038 25.534,382.630 26.025 C 383.590 26.822,384.207 26.801,384.735 25.955 C 385.052 25.447,385.067 25.200,384.780 25.200 C 384.545 25.200,384.445 25.050,384.559 24.867 C 384.853 24.391,383.957 24.472,382.889 25.018 M10.501 39.000 C 10.505 39.880,10.587 40.193,10.683 39.695 C 10.779 39.198,10.775 38.478,10.675 38.095 C 10.575 37.713,10.496 38.120,10.501 39.000 M392.599 298.600 C 392.599 440.720,392.644 498.800,392.700 427.667 C 392.756 356.534,392.756 240.254,392.700 169.267 C 392.644 98.280,392.599 156.480,392.599 298.600 M25.200 249.400 C 25.200 361.123,25.290 452.443,25.401 452.333 C 25.663 452.070,25.663 46.730,25.401 46.467 C 25.290 46.357,25.200 137.677,25.200 249.400 M153.761 76.400 C 153.761 79.810,153.822 81.205,153.897 79.500 C 153.972 77.795,153.972 75.005,153.897 73.300 C 153.822 71.595,153.761 72.990,153.761 76.400 M197.900 167.482 C 198.395 167.578,199.205 167.578,199.700 167.482 C 200.195 167.387,199.790 167.309,198.800 167.309 C 197.810 167.309,197.405 167.387,197.900 167.482 M187.100 168.682 C 187.595 168.778,188.405 168.778,188.900 168.682 C 189.395 168.587,188.990 168.509,188.000 168.509 C 187.010 168.509,186.605 168.587,187.100 168.682 M197.100 168.699 C 199.575 168.769,203.625 168.769,206.100 168.699 C 208.575 168.628,206.550 168.571,201.600 168.571 C 196.650 168.571,194.625 168.628,197.100 168.699 M166.300 174.682 C 166.795 174.778,167.605 174.778,168.100 174.682 C 168.595 174.587,168.190 174.509,167.200 174.509 C 166.210 174.509,165.805 174.587,166.300 174.682 M194.500 185.396 C 192.587 186.228,192.506 186.218,201.600 186.285 C 206.220 186.319,210.000 186.260,210.000 186.153 C 210.000 184.816,197.266 184.194,194.500 185.396 M185.700 186.696 C 186.965 186.775,189.035 186.775,190.300 186.696 C 191.565 186.616,190.530 186.551,188.000 186.551 C 185.470 186.551,184.435 186.616,185.700 186.696 M212.311 186.693 C 213.251 186.778,214.691 186.777,215.511 186.691 C 216.330 186.605,215.560 186.536,213.800 186.537 C 212.040 186.539,211.370 186.609,212.311 186.693 M195.600 187.586 C 194.676 187.895,194.666 187.923,195.467 187.960 C 195.944 187.982,196.664 188.107,197.067 188.238 C 197.677 188.435,197.699 188.403,197.200 188.044 C 196.681 187.671,196.695 187.611,197.300 187.606 C 197.931 187.601,198.185 188.045,198.045 188.908 C 198.017 189.078,198.491 189.098,199.097 188.952 C 200.643 188.581,200.723 188.406,199.367 188.360 C 198.207 188.321,198.206 188.318,199.200 188.000 C 199.770 187.817,199.920 187.663,199.550 187.640 C 199.192 187.618,198.383 187.522,197.750 187.426 C 197.118 187.330,196.150 187.402,195.600 187.586 M203.400 187.600 C 203.247 187.847,203.890 187.989,205.076 187.972 C 206.519 187.951,206.800 187.858,206.200 187.600 C 205.088 187.122,203.695 187.122,203.400 187.600 M108.909 226.800 C 108.909 227.790,108.987 228.195,109.082 227.700 C 109.178 227.205,109.178 226.395,109.082 225.900 C 108.987 225.405,108.909 225.810,108.909 226.800 M294.109 230.000 C 294.109 230.990,294.187 231.395,294.282 230.900 C 294.378 230.405,294.378 229.595,294.282 229.100 C 294.187 228.605,294.109 229.010,294.109 230.000 M102.940 243.200 C 102.940 245.070,103.009 245.835,103.093 244.900 C 103.177 243.965,103.177 242.435,103.093 241.500 C 103.009 240.565,102.940 241.330,102.940 243.200 M120.286 241.162 C 119.388 242.683,119.420 243.475,120.400 244.000 C 120.942 244.290,121.200 244.295,121.200 244.014 C 121.200 243.786,121.335 243.621,121.500 243.647 C 122.264 243.768,122.667 243.552,122.667 243.022 C 122.667 242.704,122.562 242.456,122.433 242.470 C 121.372 242.584,121.123 242.309,121.285 241.200 C 121.507 239.686,121.166 239.673,120.286 241.162 M249.900 240.282 C 250.395 240.378,251.205 240.378,251.700 240.282 C 252.195 240.187,251.790 240.109,250.800 240.109 C 249.810 240.109,249.405 240.187,249.900 240.282 M282.101 244.600 C 282.105 245.480,282.187 245.793,282.283 245.295 C 282.379 244.798,282.375 244.078,282.275 243.695 C 282.175 243.313,282.096 243.720,282.101 244.600 M282.400 248.000 C 282.400 249.184,281.818 249.653,281.507 248.720 C 281.385 248.355,281.277 248.352,281.057 248.708 C 280.874 249.004,281.151 249.273,281.813 249.439 C 283.215 249.791,283.736 249.210,283.225 247.865 C 282.694 246.468,282.400 246.516,282.400 248.000 M99.781 250.030 C 99.262 250.871,100.007 254.892,100.592 254.406 C 101.481 253.669,101.660 252.076,100.998 250.797 C 100.319 249.483,100.175 249.392,99.781 250.030 M98.217 251.572 C 97.944 252.014,98.575 252.492,98.944 252.122 C 99.325 251.742,99.254 251.200,98.824 251.200 C 98.617 251.200,98.344 251.368,98.217 251.572 M117.214 253.174 C 116.629 254.267,116.700 256.511,117.348 257.397 C 117.832 258.058,117.873 257.902,117.697 256.073 C 117.564 254.684,117.647 254.000,117.949 254.000 C 118.197 254.000,118.400 253.640,118.400 253.200 C 118.400 252.182,117.753 252.168,117.214 253.174 M118.694 254.639 C 118.563 254.771,118.563 255.160,118.696 255.505 C 118.854 255.918,118.777 256.033,118.468 255.842 C 118.211 255.683,118.000 255.743,118.000 255.976 C 118.000 256.486,118.408 256.510,119.143 256.044 C 119.527 255.800,119.554 255.619,119.236 255.422 C 118.989 255.270,118.891 254.977,119.017 254.772 C 119.274 254.357,119.064 254.270,118.694 254.639 M302.012 257.578 C 301.392 258.737,301.524 267.156,302.186 268.600 C 302.681 269.683,302.738 269.203,302.768 263.700 C 302.801 257.425,303.121 256.391,304.282 258.800 C 304.700 259.668,304.765 259.694,304.776 259.000 C 304.803 257.158,302.791 256.123,302.012 257.578 M285.000 258.600 C 285.730 261.684,286.109 270.204,285.763 275.762 C 285.563 278.974,285.507 281.601,285.637 281.601 C 286.778 281.597,287.377 263.417,286.337 260.360 C 285.647 258.331,284.615 256.973,285.000 258.600 M303.400 260.000 C 303.248 260.691,303.207 261.341,303.309 261.442 C 303.411 261.544,303.609 261.053,303.750 260.350 C 303.891 259.647,303.931 258.998,303.841 258.908 C 303.750 258.817,303.552 259.309,303.400 260.000 M114.961 270.000 C 114.961 273.410,115.022 274.805,115.097 273.100 C 115.172 271.395,115.172 268.605,115.097 266.900 C 115.022 265.195,114.961 266.590,114.961 270.000 M303.396 266.391 C 303.757 269.243,303.756 271.296,303.392 273.900 C 303.103 275.967,303.114 276.000,304.132 276.000 C 305.101 276.000,305.152 275.905,304.939 274.500 C 304.636 272.504,304.670 268.254,305.008 265.901 C 305.277 264.022,305.269 264.003,304.198 264.092 C 303.126 264.181,303.118 264.201,303.396 266.391 M302.100 271.729 C 301.272 273.566,301.424 282.117,302.300 282.911 C 302.997 283.542,303.131 279.877,302.691 272.210 L 302.600 270.620 302.100 271.729 M147.902 272.900 C 148.129 273.185,148.162 273.744,147.979 274.200 C 147.801 274.640,147.674 275.900,147.695 277.000 C 147.730 278.796,147.751 278.839,147.896 277.427 C 147.984 276.562,148.314 275.487,148.629 275.038 C 149.380 273.965,149.354 272.945,148.567 272.643 C 147.624 272.281,147.458 272.345,147.902 272.900 M146.566 273.255 C 146.373 273.567,146.451 273.616,146.797 273.402 C 147.196 273.155,147.253 273.334,147.042 274.174 C 146.863 274.890,146.912 275.178,147.184 275.010 C 147.701 274.690,147.731 273.328,147.228 273.017 C 147.023 272.891,146.725 272.998,146.566 273.255 M303.654 281.440 C 303.388 282.025,303.263 282.596,303.376 282.710 C 303.490 282.823,303.755 282.485,303.966 281.958 C 304.177 281.431,304.361 281.237,304.375 281.526 C 304.389 281.816,304.191 282.446,303.935 282.926 C 303.514 283.716,303.533 283.747,304.135 283.251 C 304.851 282.660,304.984 281.709,304.463 280.889 C 304.229 280.520,304.004 280.674,303.654 281.440 M117.123 283.534 C 116.487 284.950,116.586 286.525,117.352 287.160 C 117.694 287.444,117.776 287.131,117.666 285.969 C 117.532 284.571,117.599 284.424,118.258 284.671 C 118.863 284.898,118.916 284.844,118.543 284.375 C 118.292 284.059,118.004 283.440,117.904 283.000 C 117.750 282.322,117.631 282.403,117.123 283.534 M98.800 286.347 C 98.800 287.148,98.570 287.602,98.100 287.724 C 97.669 287.837,97.823 287.925,98.500 287.954 C 99.642 288.002,100.188 286.011,99.200 285.400 C 98.967 285.256,98.800 285.653,98.800 286.347 M100.205 286.925 C 100.371 288.199,100.290 289.050,99.965 289.442 C 99.616 289.863,99.598 290.158,99.903 290.463 C 100.486 291.046,101.740 288.610,101.450 287.457 C 100.909 285.303,99.939 284.889,100.205 286.925 M282.000 292.733 C 282.000 292.902,282.197 293.237,282.437 293.477 C 282.753 293.793,282.746 294.153,282.412 294.778 C 282.158 295.253,282.006 296.037,282.075 296.521 C 282.182 297.273,282.305 297.181,282.924 295.890 C 283.689 294.293,283.556 293.022,282.585 292.650 C 282.263 292.526,282.000 292.563,282.000 292.733 M102.909 298.400 C 102.909 299.390,102.987 299.795,103.082 299.300 C 103.178 298.805,103.178 297.995,103.082 297.500 C 102.987 297.005,102.909 297.410,102.909 298.400 M120.901 298.600 C 120.905 299.480,120.987 299.793,121.083 299.295 C 121.179 298.798,121.175 298.078,121.075 297.695 C 120.975 297.313,120.896 297.720,120.901 298.600 M187.200 317.847 C 189.554 318.146,192.801 318.177,192.801 317.900 C 192.800 317.735,191.315 317.627,189.500 317.660 C 187.685 317.693,186.650 317.777,187.200 317.847 M235.800 347.600 L 234.200 347.886 235.900 347.943 C 236.835 347.974,237.600 347.820,237.600 347.600 C 237.600 347.380,237.555 347.226,237.500 347.257 C 237.445 347.288,236.680 347.442,235.800 347.600 M228.846 349.100 C 228.821 349.375,228.549 349.600,228.243 349.600 C 227.567 349.600,227.140 350.577,227.455 351.400 C 227.749 352.166,229.219 352.173,230.224 351.413 C 230.970 350.848,230.971 350.825,230.251 350.813 C 229.652 350.803,229.596 350.687,229.970 350.236 C 230.329 349.803,230.326 349.602,229.958 349.374 C 229.653 349.185,229.581 349.245,229.762 349.538 C 229.919 349.792,229.870 350.000,229.653 350.000 C 229.436 350.000,229.176 349.685,229.076 349.300 C 228.975 348.915,228.872 348.825,228.846 349.100 M186.720 352.480 C 187.745 353.505,187.303 354.521,185.950 354.250 C 185.263 354.113,184.498 353.997,184.250 353.994 C 184.003 353.991,184.070 353.803,184.400 353.577 C 184.826 353.286,184.420 353.245,183.000 353.435 C 180.443 353.777,180.377 353.864,182.126 354.595 C 185.572 356.035,189.912 354.152,187.400 352.306 C 186.743 351.823,186.202 351.962,186.720 352.480 M214.600 352.306 C 212.677 353.719,215.704 355.846,217.879 354.611 L 219.000 353.974 217.709 354.217 C 216.098 354.520,214.800 354.133,214.800 353.349 C 214.800 353.021,214.978 352.863,215.195 352.997 C 215.422 353.137,215.489 352.977,215.353 352.621 C 215.078 351.906,215.121 351.924,214.600 352.306 M145.500 356.682 C 145.995 356.778,146.805 356.778,147.300 356.682 C 147.795 356.587,147.390 356.509,146.400 356.509 C 145.410 356.509,145.005 356.587,145.500 356.682 M196.100 356.698 C 198.245 356.770,201.755 356.770,203.900 356.698 C 206.045 356.626,204.290 356.567,200.000 356.567 C 195.710 356.567,193.955 356.626,196.100 356.698 M243.900 362.682 C 244.395 362.778,245.205 362.778,245.700 362.682 C 246.195 362.587,245.790 362.509,244.800 362.509 C 243.810 362.509,243.405 362.587,243.900 362.682 M162.178 364.835 C 162.031 365.074,162.110 365.470,162.355 365.715 C 162.682 366.042,162.800 366.039,162.800 365.705 C 162.800 365.410,163.327 365.322,164.300 365.453 C 165.714 365.645,165.756 365.620,165.024 365.028 C 164.129 364.304,162.572 364.198,162.178 364.835 M169.576 367.939 L 168.662 368.679 169.810 368.967 C 170.703 369.191,170.830 369.336,170.379 369.621 C 170.061 369.823,169.980 369.988,170.200 369.988 C 171.116 369.988,171.828 369.218,171.255 368.848 C 170.444 368.325,171.579 367.994,172.521 368.479 C 173.999 369.240,175.165 368.666,173.720 367.889 C 172.066 366.999,170.716 367.016,169.576 367.939 M229.600 367.800 C 229.050 368.114,227.805 368.378,226.833 368.386 C 225.862 368.394,225.180 368.513,225.318 368.651 C 226.075 369.408,232.251 368.330,231.755 367.527 C 231.463 367.055,230.744 367.146,229.600 367.800 M230.400 369.191 C 230.400 369.345,230.820 369.663,231.333 369.897 C 232.054 370.225,232.267 370.202,232.267 369.795 C 232.267 369.505,231.847 369.187,231.333 369.089 C 230.820 368.991,230.400 369.037,230.400 369.191 M180.243 370.633 C 180.109 370.981,180.000 371.296,179.999 371.333 C 179.999 371.370,181.304 371.368,182.899 371.329 C 184.998 371.277,185.468 371.347,184.600 371.581 C 183.940 371.760,183.580 371.931,183.800 371.962 C 184.020 371.992,183.788 372.335,183.283 372.723 C 182.403 373.401,182.399 373.429,183.183 373.429 C 183.633 373.429,184.000 373.279,184.000 373.097 C 184.000 372.914,184.225 372.794,184.500 372.830 C 185.665 372.981,186.128 372.697,185.200 372.400 L 184.200 372.080 185.300 372.040 C 188.011 371.942,185.120 370.000,182.263 370.000 C 181.011 370.000,180.414 370.187,180.243 370.633 M215.100 370.465 C 213.253 371.139,214.073 371.900,216.800 372.041 C 217.491 372.077,217.582 372.150,217.095 372.277 C 216.707 372.378,216.488 372.619,216.608 372.813 C 216.728 373.007,217.119 373.052,217.478 372.915 C 217.837 372.777,218.029 372.830,217.904 373.032 C 217.779 373.234,218.154 373.424,218.738 373.453 C 219.747 373.504,219.757 373.487,218.935 373.108 C 217.504 372.448,217.440 371.200,218.837 371.200 C 219.564 371.200,220.000 371.409,220.000 371.757 C 220.000 372.064,220.295 372.428,220.657 372.566 C 221.175 372.765,221.218 372.704,220.860 372.272 C 220.611 371.972,220.540 371.593,220.703 371.430 C 221.777 370.356,217.443 369.609,215.100 370.465 M180.186 372.791 C 181.052 373.359,181.451 373.441,181.664 373.096 C 182.051 372.470,181.925 372.383,180.343 372.183 L 179.000 372.013 180.186 372.791 M117.900 473.100 C 163.935 473.156,239.265 473.156,285.300 473.100 C 331.335 473.044,293.670 472.998,201.600 472.998 C 109.530 472.998,71.865 473.044,117.900 473.100 M25.294 514.900 C 25.346 534.755,25.436 545.240,25.494 538.200 C 25.769 504.719,25.772 478.800,25.500 478.800 C 25.335 478.800,25.242 495.045,25.294 514.900 M171.555 513.100 C 171.469 516.691,171.590 520.523,171.795 520.728 C 171.908 520.841,172.000 518.743,172.000 516.067 C 172.000 511.432,171.650 509.100,171.555 513.100 M188.123 529.899 C 190.720 529.969,194.860 529.968,197.323 529.898 C 199.785 529.828,197.660 529.771,192.600 529.772 C 187.540 529.772,185.525 529.829,188.123 529.899 M4.446 555.900 C 4.418 556.454,4.631 556.800,5.000 556.800 C 5.330 556.800,5.600 556.609,5.600 556.376 C 5.600 556.143,5.434 556.056,5.230 556.181 C 5.027 556.307,4.778 556.093,4.677 555.705 C 4.537 555.168,4.482 555.215,4.446 555.900 M9.718 557.850 C 9.173 558.686,9.020 559.202,9.318 559.206 C 9.615 559.210,9.570 559.361,9.200 559.600 C 8.724 559.908,8.807 559.990,9.600 560.000 C 10.393 560.010,10.476 560.092,10.000 560.400 C 9.670 560.613,9.580 560.787,9.800 560.785 C 10.020 560.783,10.624 560.456,11.143 560.057 L 12.086 559.331 11.343 557.916 L 10.600 556.500 9.718 557.850 M388.525 561.949 C 387.775 563.150,389.518 563.763,390.600 562.679 C 391.236 562.042,391.263 561.926,390.733 562.113 C 390.345 562.251,389.974 562.109,389.846 561.775 C 389.545 560.992,389.084 561.053,388.525 561.949 M13.530 563.613 C 13.436 564.233,13.162 564.550,12.791 564.467 C 12.466 564.393,12.350 564.483,12.533 564.667 C 12.717 564.850,13.032 565.023,13.233 565.050 C 13.435 565.077,13.712 565.123,13.849 565.150 C 13.986 565.178,13.851 565.499,13.549 565.865 C 13.051 566.469,13.084 566.486,13.900 566.051 C 14.930 565.503,14.996 565.005,14.225 563.613 L 13.678 562.626 13.530 563.613 M123.067 568.700 C 165.345 568.756,234.645 568.756,277.067 568.700 C 319.490 568.644,284.900 568.598,200.200 568.598 C 115.500 568.598,80.790 568.644,123.067 568.700 M382.873 570.487 C 382.313 571.047,382.255 571.600,382.757 571.600 C 383.124 571.600,383.727 570.394,383.483 570.149 C 383.408 570.075,383.134 570.226,382.873 570.487 M379.994 573.407 C 379.600 573.882,379.586 574.146,379.937 574.497 C 380.288 574.848,380.400 574.840,380.400 574.466 C 380.400 574.080,380.598 574.076,381.300 574.444 L 382.200 574.916 381.404 573.958 C 380.967 573.431,380.587 572.951,380.561 572.890 C 380.535 572.830,380.280 573.063,379.994 573.407 M376.362 577.046 C 375.898 577.605,375.927 577.673,376.580 577.546 C 376.994 577.466,377.409 577.175,377.500 576.900 C 377.738 576.186,376.996 576.282,376.362 577.046 " stroke="none" fill="#2064fc" fill-rule="evenodd"></path></g></svg>